<?xml version="1.0" encoding="utf-8" standalone="no"?>
<!DOCTYPE svg PUBLIC "-//W3C//DTD SVG 1.1//EN"
  "http://www.w3.org/Graphics/SVG/1.1/DTD/svg11.dtd">
<!-- Created with matplotlib (https://matplotlib.org/) -->
<svg height="343.366226pt" version="1.1" viewBox="0 0 560.16 343.366226" width="560.16pt" xmlns="http://www.w3.org/2000/svg" xmlns:xlink="http://www.w3.org/1999/xlink">
 <metadata>
  <rdf:RDF xmlns:cc="http://creativecommons.org/ns#" xmlns:dc="http://purl.org/dc/elements/1.1/" xmlns:rdf="http://www.w3.org/1999/02/22-rdf-syntax-ns#">
   <cc:Work>
    <dc:type rdf:resource="http://purl.org/dc/dcmitype/StillImage"/>
    <dc:date>2021-03-05T21:56:04.357071</dc:date>
    <dc:format>image/svg+xml</dc:format>
    <dc:creator>
     <cc:Agent>
      <dc:title>Matplotlib v3.3.4, https://matplotlib.org/</dc:title>
     </cc:Agent>
    </dc:creator>
   </cc:Work>
  </rdf:RDF>
 </metadata>
 <defs>
  <style type="text/css">*{stroke-linecap:butt;stroke-linejoin:round;}</style>
 </defs>
 <g id="figure_1">
  <g id="patch_1">
   <path d="M 0 343.366226 
L 560.16 343.366226 
L 560.16 0 
L 0 0 
z
" style="fill:#ffffff;"/>
  </g>
  <g id="axes_1">
   <g id="patch_2">
    <path d="M 64.147699 296.019513 
L 552.96 296.019513 
L 552.96 27.863874 
L 64.147699 27.863874 
z
" style="fill:#ffffff;"/>
   </g>
   <g id="line2d_1">
    <path d="M 308.553849 301.382625 
L 308.553849 27.863874 
" style="fill:none;stroke:#000000;stroke-linecap:square;stroke-width:0.5;"/>
   </g>
   <g id="patch_3">
    <path d="M 64.147699 296.019513 
L 64.147699 27.863874 
" style="fill:none;stroke:#000000;stroke-linecap:square;stroke-linejoin:miter;"/>
   </g>
   <g id="patch_4">
    <path d="M 552.96 296.019513 
L 552.96 27.863874 
" style="fill:none;stroke:#000000;stroke-linecap:square;stroke-linejoin:miter;"/>
   </g>
   <g id="patch_5">
    <path d="M 64.147699 296.019513 
L 552.96 296.019513 
" style="fill:none;stroke:#000000;stroke-linecap:square;stroke-linejoin:miter;"/>
   </g>
   <g id="patch_6">
    <path d="M 64.147699 27.863874 
L 552.96 27.863874 
" style="fill:none;stroke:#000000;stroke-linecap:square;stroke-linejoin:miter;"/>
   </g>
   <g id="matplotlib.axis_1">
    <g id="xtick_1">
     <g id="line2d_2"/>
     <g id="line2d_3"/>
     <g id="text_1">
      <!-- SHFS -->
      <g transform="translate(101.336095 312.796489)scale(0.18 -0.18)">
       <defs>
        <path d="M 59.59375 52.109375 
C 59.5 66.484375 49.703125 74.8125 32.90625 74.8125 
C 16.90625 74.8125 7 66.5625 7 53.28125 
C 7 44.328125 11.703125 38.703125 21.296875 36.1875 
L 39.40625 31.359375 
C 48.59375 28.9375 52.796875 25.21875 52.796875 19.484375 
C 52.796875 15.546875 50.703125 11.53125 47.59375 9.328125 
C 44.703125 7.3125 40.09375 6.203125 34.203125 6.203125 
C 26.296875 6.203125 20.90625 8.125 17.40625 12.34375 
C 14.703125 15.5625 13.5 19.09375 13.59375 23.609375 
L 4.796875 23.609375 
C 4.90625 16.890625 6.203125 12.46875 9.09375 8.4375 
C 14.09375 1.609375 22.5 -2 33.59375 -2 
C 42.296875 -2 49.40625 0.015625 54.09375 3.625 
C 59 7.546875 62.09375 14.078125 62.09375 20.421875 
C 62.09375 29.46875 56.5 36.109375 46.59375 38.828125 
L 28.296875 43.765625 
C 19.5 46.171875 16.296875 48.984375 16.296875 54.625 
C 16.296875 62.0625 22.796875 67 32.59375 67 
C 44.203125 67 50.703125 61.671875 50.796875 52.109375 
z
" id="Nimbus_Sans_L_Regular-83"/>
        <path d="M 55.09375 33 
L 55.09375 -0.03125 
L 64.40625 -0.03125 
L 64.40625 73 
L 55.09375 73 
L 55.09375 41.21875 
L 17.59375 41.21875 
L 17.59375 73 
L 8.296875 73 
L 8.296875 -0.03125 
L 17.703125 -0.03125 
L 17.703125 33 
z
" id="Nimbus_Sans_L_Regular-72"/>
        <path d="M 18.296875 33 
L 53.09375 33 
L 53.09375 41.21875 
L 18.296875 41.21875 
L 18.296875 64.78125 
L 57.90625 64.78125 
L 57.90625 73 
L 9 73 
L 9 -0.21875 
L 18.296875 -0.21875 
z
" id="Nimbus_Sans_L_Regular-70"/>
       </defs>
       <use transform="scale(0.996264)" xlink:href="#Nimbus_Sans_L_Regular-83"/>
       <use transform="translate(66.450031 0)scale(0.996264)" xlink:href="#Nimbus_Sans_L_Regular-72"/>
       <use transform="translate(138.380016 0)scale(0.996264)" xlink:href="#Nimbus_Sans_L_Regular-70"/>
       <use transform="translate(199.251647 0)scale(0.996264)" xlink:href="#Nimbus_Sans_L_Regular-83"/>
      </g>
     </g>
    </g>
    <g id="xtick_2">
     <g id="line2d_4"/>
     <g id="line2d_5"/>
     <g id="text_2">
      <!-- VFS -->
      <g transform="translate(230.012865 312.796489)scale(0.18 -0.18)">
       <defs>
        <path d="M 39.203125 0 
L 64.5 73 
L 54.59375 73 
L 34.40625 11.21875 
L 13 73 
L 3 73 
L 29.203125 0 
z
" id="Nimbus_Sans_L_Regular-86"/>
       </defs>
       <use transform="scale(0.996264)" xlink:href="#Nimbus_Sans_L_Regular-86"/>
       <use transform="translate(66.450031 0)scale(0.996264)" xlink:href="#Nimbus_Sans_L_Regular-70"/>
       <use transform="translate(127.321662 0)scale(0.996264)" xlink:href="#Nimbus_Sans_L_Regular-83"/>
      </g>
     </g>
    </g>
    <g id="xtick_3">
     <g id="line2d_6"/>
     <g id="line2d_7"/>
     <g id="text_3">
      <!-- VFS -->
      <g transform="translate(352.21594 312.796489)scale(0.18 -0.18)">
       <use transform="scale(0.996264)" xlink:href="#Nimbus_Sans_L_Regular-86"/>
       <use transform="translate(66.450031 0)scale(0.996264)" xlink:href="#Nimbus_Sans_L_Regular-70"/>
       <use transform="translate(127.321662 0)scale(0.996264)" xlink:href="#Nimbus_Sans_L_Regular-83"/>
      </g>
      <!-- (No mitig.) -->
      <g transform="translate(328.312012 332.346656)scale(0.18 -0.18)">
       <defs>
        <path d="M 23.59375 73 
C 13.59375 59.84375 7.296875 41.5625 7.296875 25.796875 
C 7.296875 9.9375 13.59375 -8.34375 23.59375 -21.5 
L 29.09375 -21.5 
C 20.296875 -7.140625 15.40625 9.734375 15.40625 25.796875 
C 15.40625 41.765625 20.296875 58.734375 29.09375 73 
z
" id="Nimbus_Sans_L_Regular-40"/>
        <path d="M 64.59375 73 
L 55.796875 73 
L 55.796875 13.296875 
L 17.703125 73 
L 7.59375 73 
L 7.59375 -0.03125 
L 16.40625 -0.03125 
L 16.40625 59.171875 
L 54.09375 -0.03125 
L 64.59375 -0.03125 
z
" id="Nimbus_Sans_L_Regular-78"/>
        <path d="M 27.203125 54 
C 12.5 54 3.59375 43.53125 3.59375 25.984375 
C 3.59375 8.453125 12.40625 -2 27.296875 -2 
C 42 -2 51 8.453125 51 25.59375 
C 51 43.625 42.296875 54 27.203125 54 
z
M 27.296875 46.28125 
C 36.703125 46.28125 42.296875 38.625 42.296875 25.703125 
C 42.296875 13.453125 36.5 5.703125 27.296875 5.703125 
C 18 5.703125 12.296875 13.359375 12.296875 25.984375 
C 12.296875 38.53125 18 46.28125 27.296875 46.28125 
z
" id="Nimbus_Sans_L_Regular-111"/>
        <path d="M 7 52.484375 
L 7 0 
L 15.40625 0 
L 15.40625 32.953125 
C 15.40625 40.578125 20.90625 46.6875 27.703125 46.6875 
C 33.90625 46.6875 37.40625 42.875 37.40625 36.15625 
L 37.40625 0 
L 45.796875 0 
L 45.796875 32.953125 
C 45.796875 40.578125 51.296875 46.6875 58.09375 46.6875 
C 64.203125 46.6875 67.796875 42.78125 67.796875 36.15625 
L 67.796875 0 
L 76.203125 0 
L 76.203125 39.375 
C 76.203125 48.78125 70.796875 54 61 54 
C 54 54 49.796875 51.890625 44.90625 45.984375 
C 41.796875 51.59375 37.59375 54 30.796875 54 
C 23.796875 54 19.203125 51.390625 14.703125 45.078125 
L 14.703125 52.484375 
z
" id="Nimbus_Sans_L_Regular-109"/>
        <path d="M 15 52.484375 
L 6.703125 52.484375 
L 6.703125 0 
L 15 0 
z
M 15 73 
L 6.59375 73 
L 6.59375 62.484375 
L 15 62.484375 
z
" id="Nimbus_Sans_L_Regular-105"/>
        <path d="M 25.40625 52.8125 
L 16.796875 52.8125 
L 16.796875 67 
L 8.5 67 
L 8.5 52.8125 
L 1.40625 52.8125 
L 1.40625 46 
L 8.5 46 
L 8.5 6.3125 
C 8.5 1 12.09375 -2 18.59375 -2 
C 20.59375 -2 22.59375 -1.8125 25.40625 -1.296875 
L 25.40625 5.71875 
C 24.296875 5.40625 23 5.3125 21.40625 5.3125 
C 17.796875 5.3125 16.796875 6.3125 16.796875 10.015625 
L 16.796875 46 
L 25.40625 46 
z
" id="Nimbus_Sans_L_Regular-116"/>
        <path d="M 41.203125 52.203125 
L 41.203125 44.59375 
C 37 50.8125 31.90625 53.71875 25.203125 53.71875 
C 11.90625 53.71875 2.90625 42.0625 2.90625 25 
C 2.90625 16.375 5.203125 9.34375 9.5 4.3125 
C 13.40625 -0.109375 19 -2.703125 24.5 -2.703125 
C 31.09375 -2.703125 35.703125 0.09375 40.40625 6.703125 
L 40.40625 4.03125 
C 40.40625 -3 39.5 -7.265625 37.40625 -10.140625 
C 35.203125 -13.1875 30.90625 -14.984375 25.796875 -14.984375 
C 22 -14.984375 18.59375 -14 16.296875 -12.234375 
C 14.40625 -10.75 13.59375 -9.375 13.09375 -6.34375 
L 4.59375 -6.34375 
C 5.5 -16.140625 13.203125 -22 25.5 -22 
C 33.296875 -22 40 -19.484375 43.40625 -15.296875 
C 47.40625 -10.484375 48.90625 -3.890625 48.90625 8.40625 
L 48.90625 52.203125 
z
M 26.09375 46 
C 35.09375 46 40.40625 38.359375 40.40625 25.203125 
C 40.40625 12.625 35 5 26.203125 5 
C 17.09375 5 11.59375 12.75 11.59375 25.5 
C 11.59375 38.15625 17.203125 46 26.09375 46 
z
" id="Nimbus_Sans_L_Regular-103"/>
        <path d="M 19.09375 10.421875 
L 8.703125 10.421875 
L 8.703125 0 
L 19.09375 0 
z
" id="Nimbus_Sans_L_Regular-46"/>
        <path d="M 9.296875 -21.5 
C 19.296875 -8.34375 25.59375 9.9375 25.59375 25.6875 
C 25.59375 41.5625 19.296875 59.84375 9.296875 73 
L 3.796875 73 
C 12.59375 58.640625 17.5 41.765625 17.5 25.6875 
C 17.5 9.734375 12.59375 -7.25 3.796875 -21.5 
z
" id="Nimbus_Sans_L_Regular-41"/>
       </defs>
       <use transform="scale(0.996264)" xlink:href="#Nimbus_Sans_L_Regular-40"/>
       <use transform="translate(33.17523 0)scale(0.996264)" xlink:href="#Nimbus_Sans_L_Regular-78"/>
       <use transform="translate(105.105215 0)scale(0.996264)" xlink:href="#Nimbus_Sans_L_Regular-111"/>
       <use transform="translate(188.192061 0)scale(0.996264)" xlink:href="#Nimbus_Sans_L_Regular-109"/>
       <use transform="translate(271.180491 0)scale(0.996264)" xlink:href="#Nimbus_Sans_L_Regular-105"/>
       <use transform="translate(293.297276 0)scale(0.996264)" xlink:href="#Nimbus_Sans_L_Regular-116"/>
       <use transform="translate(320.992445 0)scale(0.996264)" xlink:href="#Nimbus_Sans_L_Regular-105"/>
       <use transform="translate(343.10923 0)scale(0.996264)" xlink:href="#Nimbus_Sans_L_Regular-103"/>
       <use transform="translate(398.500907 0)scale(0.996264)" xlink:href="#Nimbus_Sans_L_Regular-46"/>
       <use transform="translate(426.196076 0)scale(0.996264)" xlink:href="#Nimbus_Sans_L_Regular-41"/>
      </g>
     </g>
    </g>
    <g id="xtick_4">
     <g id="line2d_8"/>
     <g id="line2d_9"/>
     <g id="text_4">
      <!-- VFS -->
      <g transform="translate(474.419016 312.796489)scale(0.18 -0.18)">
       <use transform="scale(0.996264)" xlink:href="#Nimbus_Sans_L_Regular-86"/>
       <use transform="translate(66.450031 0)scale(0.996264)" xlink:href="#Nimbus_Sans_L_Regular-70"/>
       <use transform="translate(127.321662 0)scale(0.996264)" xlink:href="#Nimbus_Sans_L_Regular-83"/>
      </g>
     </g>
    </g>
   </g>
   <g id="matplotlib.axis_2">
    <g id="ytick_1">
     <g id="line2d_10">
      <path clip-path="url(#p36506ac48f)" d="M 64.147699 296.019513 
L 552.96 296.019513 
" style="fill:none;stroke:#000000;stroke-dasharray:1,3;stroke-dashoffset:0;stroke-opacity:0.5;stroke-width:0.5;"/>
     </g>
     <g id="line2d_11"/>
     <g id="line2d_12"/>
     <g id="text_5">
      <!-- 0 -->
      <g transform="translate(52.392874 299.502948)scale(0.14 -0.14)">
       <defs>
        <path d="M 27.5 71 
C 20.90625 71 14.90625 68.125 11.203125 63.21875 
C 6.59375 57.046875 4.296875 47.5625 4.296875 34.5 
C 4.296875 10.671875 12.296875 -2 27.5 -2 
C 42.5 -2 50.703125 10.671875 50.703125 33.90625 
C 50.703125 47.65625 48.5 56.84375 43.796875 63.21875 
C 40.09375 68.21875 34.203125 71 27.5 71 
z
M 27.5 63.1875 
C 37 63.1875 41.703125 53.625 41.703125 34.703125 
C 41.703125 14.671875 37.09375 5.3125 27.296875 5.3125 
C 18 5.3125 13.296875 15.078125 13.296875 34.40625 
C 13.296875 53.71875 18 63.1875 27.5 63.1875 
z
" id="Nimbus_Sans_L_Regular-48"/>
       </defs>
       <use transform="scale(0.996264)" xlink:href="#Nimbus_Sans_L_Regular-48"/>
      </g>
     </g>
    </g>
    <g id="ytick_2">
     <g id="line2d_13">
      <path clip-path="url(#p36506ac48f)" d="M 64.147699 251.326906 
L 552.96 251.326906 
" style="fill:none;stroke:#000000;stroke-dasharray:1,3;stroke-dashoffset:0;stroke-opacity:0.5;stroke-width:0.5;"/>
     </g>
     <g id="line2d_14"/>
     <g id="line2d_15"/>
     <g id="text_6">
      <!-- 1000 -->
      <g transform="translate(29.128401 254.810341)scale(0.14 -0.14)">
       <defs>
        <path d="M 25.90625 50.59375 
L 25.90625 0 
L 34.703125 0 
L 34.703125 71.015625 
L 28.90625 71.015625 
C 25.796875 60.109375 23.796875 58.609375 10.203125 56.90625 
L 10.203125 50.59375 
z
" id="Nimbus_Sans_L_Regular-49"/>
       </defs>
       <use transform="scale(0.996264)" xlink:href="#Nimbus_Sans_L_Regular-49"/>
       <use transform="translate(55.391677 0)scale(0.996264)" xlink:href="#Nimbus_Sans_L_Regular-48"/>
       <use transform="translate(110.783354 0)scale(0.996264)" xlink:href="#Nimbus_Sans_L_Regular-48"/>
       <use transform="translate(166.175031 0)scale(0.996264)" xlink:href="#Nimbus_Sans_L_Regular-48"/>
      </g>
     </g>
    </g>
    <g id="ytick_3">
     <g id="line2d_16">
      <path clip-path="url(#p36506ac48f)" d="M 64.147699 206.6343 
L 552.96 206.6343 
" style="fill:none;stroke:#000000;stroke-dasharray:1,3;stroke-dashoffset:0;stroke-opacity:0.5;stroke-width:0.5;"/>
     </g>
     <g id="line2d_17"/>
     <g id="line2d_18"/>
     <g id="text_7">
      <!-- 2000 -->
      <g transform="translate(29.128401 210.117735)scale(0.14 -0.14)">
       <defs>
        <path d="M 50.59375 8.71875 
L 13.296875 8.71875 
C 14.203125 14.53125 17.40625 18.234375 26.09375 23.34375 
L 36.09375 28.75 
C 46 34.15625 51.09375 41.453125 51.09375 50.171875 
C 51.09375 56.078125 48.703125 61.59375 44.5 65.390625 
C 40.296875 69.203125 35.09375 71 28.40625 71 
C 19.40625 71 12.703125 67.796875 8.796875 61.796875 
C 6.296875 57.984375 5.203125 53.578125 5 46.359375 
L 13.796875 46.359375 
C 14.09375 51.171875 14.703125 54.078125 15.90625 56.375 
C 18.203125 60.6875 22.796875 63.296875 28.09375 63.296875 
C 36.09375 63.296875 42.09375 57.578125 42.09375 49.96875 
C 42.09375 44.359375 38.796875 39.546875 32.5 35.953125 
L 23.296875 30.75 
C 8.5 22.34375 4.203125 15.625 3.40625 0 
L 50.59375 0 
z
" id="Nimbus_Sans_L_Regular-50"/>
       </defs>
       <use transform="scale(0.996264)" xlink:href="#Nimbus_Sans_L_Regular-50"/>
       <use transform="translate(55.391677 0)scale(0.996264)" xlink:href="#Nimbus_Sans_L_Regular-48"/>
       <use transform="translate(110.783354 0)scale(0.996264)" xlink:href="#Nimbus_Sans_L_Regular-48"/>
       <use transform="translate(166.175031 0)scale(0.996264)" xlink:href="#Nimbus_Sans_L_Regular-48"/>
      </g>
     </g>
    </g>
    <g id="ytick_4">
     <g id="line2d_19">
      <path clip-path="url(#p36506ac48f)" d="M 64.147699 161.941693 
L 552.96 161.941693 
" style="fill:none;stroke:#000000;stroke-dasharray:1,3;stroke-dashoffset:0;stroke-opacity:0.5;stroke-width:0.5;"/>
     </g>
     <g id="line2d_20"/>
     <g id="line2d_21"/>
     <g id="text_8">
      <!-- 3000 -->
      <g transform="translate(29.128401 165.425128)scale(0.14 -0.14)">
       <defs>
        <path d="M 22.09375 33 
L 23.203125 33 
L 26.90625 33 
C 36.59375 33 41.59375 28.59375 41.59375 20.0625 
C 41.59375 11.125 36.09375 5.8125 26.90625 5.8125 
C 17.296875 5.8125 12.59375 10.640625 12 21.015625 
L 3.203125 21.015625 
C 3.59375 15.28125 4.59375 11.5625 6.296875 8.34375 
C 9.90625 1.515625 16.90625 -2 26.59375 -2 
C 41.203125 -2 50.59375 6.734375 50.59375 20.203125 
C 50.59375 29.25 47.09375 34.28125 38.59375 37.203125 
C 45.203125 39.78125 48.5 44.71875 48.5 51.734375 
C 48.5 63.78125 40.40625 71 26.90625 71 
C 12.59375 71 5 63.28125 4.703125 48.359375 
L 13.5 48.359375 
C 13.59375 52.59375 14 54.953125 15.09375 57.109375 
C 17.09375 60.9375 21.5 63.296875 27 63.296875 
C 34.796875 63.296875 39.5 58.75 39.5 51.359375 
C 39.5 46.421875 37.703125 43.453125 33.796875 41.890625 
C 31.40625 40.90625 28.296875 40.5 22.09375 40.5 
z
" id="Nimbus_Sans_L_Regular-51"/>
       </defs>
       <use transform="scale(0.996264)" xlink:href="#Nimbus_Sans_L_Regular-51"/>
       <use transform="translate(55.391677 0)scale(0.996264)" xlink:href="#Nimbus_Sans_L_Regular-48"/>
       <use transform="translate(110.783354 0)scale(0.996264)" xlink:href="#Nimbus_Sans_L_Regular-48"/>
       <use transform="translate(166.175031 0)scale(0.996264)" xlink:href="#Nimbus_Sans_L_Regular-48"/>
      </g>
     </g>
    </g>
    <g id="ytick_5">
     <g id="line2d_22">
      <path clip-path="url(#p36506ac48f)" d="M 64.147699 117.249087 
L 552.96 117.249087 
" style="fill:none;stroke:#000000;stroke-dasharray:1,3;stroke-dashoffset:0;stroke-opacity:0.5;stroke-width:0.5;"/>
     </g>
     <g id="line2d_23"/>
     <g id="line2d_24"/>
     <g id="text_9">
      <!-- 4000 -->
      <g transform="translate(29.128401 120.732522)scale(0.14 -0.14)">
       <defs>
        <path d="M 32.703125 17 
L 32.703125 0 
L 41.5 0 
L 41.5 17 
L 52 17 
L 52 24.90625 
L 41.5 24.90625 
L 41.5 71.015625 
L 35 71.015625 
L 2.796875 26.3125 
L 2.796875 17 
z
M 32.703125 24.90625 
L 10.5 24.90625 
L 32.703125 55.984375 
z
" id="Nimbus_Sans_L_Regular-52"/>
       </defs>
       <use transform="scale(0.996264)" xlink:href="#Nimbus_Sans_L_Regular-52"/>
       <use transform="translate(55.391677 0)scale(0.996264)" xlink:href="#Nimbus_Sans_L_Regular-48"/>
       <use transform="translate(110.783354 0)scale(0.996264)" xlink:href="#Nimbus_Sans_L_Regular-48"/>
       <use transform="translate(166.175031 0)scale(0.996264)" xlink:href="#Nimbus_Sans_L_Regular-48"/>
      </g>
     </g>
    </g>
    <g id="ytick_6">
     <g id="line2d_25">
      <path clip-path="url(#p36506ac48f)" d="M 64.147699 72.55648 
L 552.96 72.55648 
" style="fill:none;stroke:#000000;stroke-dasharray:1,3;stroke-dashoffset:0;stroke-opacity:0.5;stroke-width:0.5;"/>
     </g>
     <g id="line2d_26"/>
     <g id="line2d_27"/>
     <g id="text_10">
      <!-- 5000 -->
      <g transform="translate(29.128401 76.039916)scale(0.14 -0.14)">
       <defs>
        <path d="M 47.59375 71 
L 11 71 
L 5.703125 32.59375 
L 13.796875 32.59375 
C 17.90625 37.484375 21.296875 39.1875 26.796875 39.1875 
C 36.296875 39.1875 42.296875 32.6875 42.296875 22.203125 
C 42.296875 12 36.40625 5.8125 26.796875 5.8125 
C 19.09375 5.8125 14.40625 9.703125 12.296875 17.703125 
L 3.5 17.703125 
C 4.703125 11.90625 5.703125 9.09375 7.796875 6.484375 
C 11.796875 1.09375 19 -2 27 -2 
C 41.296875 -2 51.296875 8.390625 51.296875 23.390625 
C 51.296875 37.40625 42 47 28.40625 47 
C 23.40625 47 19.40625 45.703125 15.296875 42.6875 
L 18.09375 62.296875 
L 47.59375 62.296875 
z
" id="Nimbus_Sans_L_Regular-53"/>
       </defs>
       <use transform="scale(0.996264)" xlink:href="#Nimbus_Sans_L_Regular-53"/>
       <use transform="translate(55.391677 0)scale(0.996264)" xlink:href="#Nimbus_Sans_L_Regular-48"/>
       <use transform="translate(110.783354 0)scale(0.996264)" xlink:href="#Nimbus_Sans_L_Regular-48"/>
       <use transform="translate(166.175031 0)scale(0.996264)" xlink:href="#Nimbus_Sans_L_Regular-48"/>
      </g>
     </g>
    </g>
    <g id="ytick_7">
     <g id="line2d_28">
      <path clip-path="url(#p36506ac48f)" d="M 64.147699 27.863874 
L 552.96 27.863874 
" style="fill:none;stroke:#000000;stroke-dasharray:1,3;stroke-dashoffset:0;stroke-opacity:0.5;stroke-width:0.5;"/>
     </g>
     <g id="line2d_29"/>
     <g id="line2d_30"/>
    </g>
    <g id="text_11">
     <!-- Average \# TSC -->
     <g transform="translate(20.308831 222.562776)rotate(-90)scale(0.18 -0.18)">
      <defs>
       <path d="M 47.40625 22 
L 54.90625 0 
L 65.296875 0 
L 39.703125 73 
L 27.703125 73 
L 1.703125 0 
L 11.59375 0 
L 19.296875 22 
z
M 44.796875 29.8125 
L 21.59375 29.8125 
L 33.59375 63 
z
" id="Nimbus_Sans_L_Regular-65"/>
       <path d="M 28.5 0 
L 48.59375 52.5 
L 39.203125 52.5 
L 24.40625 9.921875 
L 10.40625 52.5 
L 1 52.5 
L 19.40625 0 
z
" id="Nimbus_Sans_L_Regular-118"/>
       <path d="M 51.296875 23.890625 
C 51.296875 31.78125 50.703125 36.53125 49.203125 40.375 
C 45.796875 48.859375 37.796875 54 28 54 
C 13.40625 54 4 42.84375 4 25.703125 
C 4 8.546875 13.09375 -2 27.796875 -2 
C 39.796875 -2 48.09375 4.84375 50.203125 16.3125 
L 41.796875 16.3125 
C 39.5 9.34375 34.796875 5.703125 28.09375 5.703125 
C 22.796875 5.703125 18.296875 8.125 15.5 12.578125 
C 13.5 15.59375 12.796875 18.640625 12.703125 23.890625 
z
M 12.90625 31 
C 13.59375 40.265625 19.5 46.28125 27.90625 46.28125 
C 36.09375 46.28125 42.40625 39.53125 42.40625 31 
C 42.40625 31 42.40625 31 42.296875 31 
z
" id="Nimbus_Sans_L_Regular-101"/>
       <path d="M 6.90625 52.484375 
L 6.90625 0 
L 15.296875 0 
L 15.296875 27.203125 
C 15.296875 34.703125 17.203125 39.609375 21.203125 42.5 
C 23.796875 44.40625 26.296875 45 32.09375 45 
L 32.09375 53.625 
C 30.703125 53.8125 30 53.8125 28.90625 53.8125 
C 23.5 53.8125 19.40625 50.625 14.59375 42.90625 
L 14.59375 52.484375 
z
" id="Nimbus_Sans_L_Regular-114"/>
       <path d="M 53.5 5.203125 
C 52.59375 5 52.203125 5 51.703125 5 
C 48.796875 5 47.203125 6.484375 47.203125 9.078125 
L 47.203125 39.765625 
C 47.203125 49.015625 40.40625 54 27.5 54 
C 19.90625 54 13.59375 51.8125 10.09375 47.90625 
C 7.703125 45.203125 6.703125 42.21875 6.5 37.03125 
L 14.90625 37.03125 
C 15.59375 43.390625 19.40625 46.28125 27.203125 46.28125 
C 34.703125 46.28125 38.90625 43.484375 38.90625 38.515625 
L 38.90625 36.328125 
C 38.90625 32.828125 36.796875 31.34375 30.203125 30.546875 
C 18.40625 29.0625 16.59375 28.65625 13.40625 27.359375 
C 7.296875 24.875 4.203125 20.1875 4.203125 13.421875 
C 4.203125 3.96875 10.796875 -2 21.40625 -2 
C 28 -2 33.296875 0.296875 39.203125 5.703125 
C 39.796875 0.390625 42.40625 -2 47.796875 -2 
C 49.5 -2 50.796875 -1.8125 53.5 -1.09375 
z
M 38.90625 16.75 
C 38.90625 13.953125 38.09375 12.265625 35.59375 9.984375 
C 32.203125 6.890625 28.09375 5.3125 23.203125 5.3125 
C 16.703125 5.3125 12.90625 8.390625 12.90625 13.65625 
C 12.90625 19.140625 16.59375 21.921875 25.5 23.21875 
C 34.296875 24.40625 36.09375 24.8125 38.90625 26.09375 
z
" id="Nimbus_Sans_L_Regular-97"/>
       <path d="M 48.5 69.5 
L 40.796875 69.5 
L 37.296875 50 
L 24.796875 50 
L 28.40625 69.5 
L 20.796875 69.5 
L 17.203125 50 
L 5.09375 50 
L 5.09375 43.1875 
L 15.90625 43.1875 
L 12.796875 25.796875 
L 1.40625 25.796875 
L 1.40625 19 
L 11.5 19 
L 7.703125 -2 
L 15.296875 -2 
L 19.203125 19 
L 31.59375 19 
L 27.796875 -2 
L 35.40625 -2 
L 39.296875 19 
L 51 19 
L 51 25.796875 
L 40.5 25.796875 
L 43.59375 43.1875 
L 54.203125 43.1875 
L 54.203125 50 
L 44.90625 50 
z
M 36 43.1875 
L 32.90625 25.796875 
L 20.40625 25.796875 
L 23.59375 43.1875 
z
" id="Nimbus_Sans_L_Regular-35"/>
       <path d="M 35.40625 64.78125 
L 59.296875 64.78125 
L 59.296875 73 
L 2.09375 73 
L 2.09375 64.78125 
L 26.09375 64.78125 
L 26.09375 -0.21875 
L 35.40625 -0.21875 
z
" id="Nimbus_Sans_L_Regular-84"/>
       <path d="M 66.203125 50.453125 
C 63.296875 66.4375 54.09375 74.21875 38.09375 74.21875 
C 28.296875 74.21875 20.40625 71.125 15 65.125 
C 8.40625 57.953125 4.796875 47.578125 4.796875 35.796875 
C 4.796875 23.828125 8.5 13.5625 15.40625 6.46875 
C 21 0.6875 28.203125 -2 37.703125 -2 
C 55.5 -2 65.5 7.578125 67.703125 26.828125 
L 58.09375 26.828125 
C 57.296875 21.859375 56.296875 18.46875 54.796875 15.578125 
C 51.796875 9.59375 45.59375 6.203125 37.796875 6.203125 
C 23.296875 6.203125 14.09375 17.765625 14.09375 35.90625 
C 14.09375 54.546875 22.90625 66 37 66 
C 42.90625 66 48.40625 64.21875 51.40625 61.40625 
C 54.09375 58.921875 55.59375 55.828125 56.703125 50.453125 
z
" id="Nimbus_Sans_L_Regular-67"/>
      </defs>
      <use transform="scale(0.996264)" xlink:href="#Nimbus_Sans_L_Regular-65"/>
      <use transform="translate(62.465918 0)scale(0.996264)" xlink:href="#Nimbus_Sans_L_Regular-118"/>
      <use transform="translate(109.788488 0)scale(0.996264)" xlink:href="#Nimbus_Sans_L_Regular-101"/>
      <use transform="translate(165.180165 0)scale(0.996264)" xlink:href="#Nimbus_Sans_L_Regular-114"/>
      <use transform="translate(197.359298 0)scale(0.996264)" xlink:href="#Nimbus_Sans_L_Regular-97"/>
      <use transform="translate(252.750975 0)scale(0.996264)" xlink:href="#Nimbus_Sans_L_Regular-103"/>
      <use transform="translate(308.142652 0)scale(0.996264)" xlink:href="#Nimbus_Sans_L_Regular-101"/>
      <use transform="translate(391.229499 0)scale(0.996264)" xlink:href="#Nimbus_Sans_L_Regular-35"/>
      <use transform="translate(474.316345 0)scale(0.996264)" xlink:href="#Nimbus_Sans_L_Regular-84"/>
      <use transform="translate(535.187976 0)scale(0.996264)" xlink:href="#Nimbus_Sans_L_Regular-83"/>
      <use transform="translate(601.638007 0)scale(0.996264)" xlink:href="#Nimbus_Sans_L_Regular-67"/>
     </g>
    </g>
   </g>
   <g id="text_12">
    <!-- \textbf{Unikraft} -->
    <g transform="translate(160.003896 17.137648)scale(0.14 -0.14)">
     <defs>
      <path d="M 50.40625 73 
L 50.40625 23.78125 
C 50.40625 15 45.90625 10.8125 36.5 10.8125 
C 27.09375 10.8125 22.59375 15 22.59375 23.78125 
L 22.59375 73 
L 7.59375 73 
L 7.59375 23.734375 
C 7.59375 15.546875 9.796875 9.765625 14.703125 5.375 
C 20 0.578125 27.703125 -2 36.5 -2 
C 45.296875 -2 53 0.578125 58.296875 5.375 
C 63.203125 9.765625 65.40625 15.546875 65.40625 23.734375 
L 65.40625 73 
z
" id="Nimbus_Sans_L_Bold-85"/>
      <path d="M 6.296875 54.09375 
L 6.296875 0 
L 20.296875 0 
L 20.296875 32.453125 
C 20.296875 38.859375 24.796875 43.078125 31.59375 43.078125 
C 37.59375 43.078125 40.59375 39.765625 40.59375 33.359375 
L 40.59375 0 
L 54.59375 0 
L 54.59375 36.265625 
C 54.59375 48.1875 48 55 36.5 55 
C 29.203125 55 24.296875 52.28125 20.296875 46.28125 
L 20.296875 54.09375 
z
" id="Nimbus_Sans_L_Bold-110"/>
      <path d="M 20.703125 54.09375 
L 6.703125 54.09375 
L 6.703125 0 
L 20.703125 0 
z
M 20.703125 73 
L 6.703125 73 
L 6.703125 60.46875 
L 20.703125 60.46875 
z
" id="Nimbus_Sans_L_Bold-105"/>
      <path d="M 19.90625 33.03125 
L 19.90625 73 
L 5.90625 73 
L 5.90625 -0.03125 
L 19.90625 -0.03125 
L 19.90625 17.703125 
L 25.5 23.8125 
L 38.40625 -0.03125 
L 54.796875 -0.03125 
L 35.09375 33.625 
L 53.5 54.0625 
L 37.59375 54.0625 
z
" id="Nimbus_Sans_L_Bold-107"/>
      <path d="M 6.296875 54.09375 
L 6.296875 0 
L 20.296875 0 
L 20.296875 28.75 
C 20.296875 36.96875 24.40625 41.0625 32.59375 41.0625 
C 34.09375 41.0625 35.09375 40.96875 37 40.65625 
L 37 54.90625 
C 36.203125 55 35.703125 55 35.296875 55 
C 28.90625 55 23.296875 50.78125 20.296875 43.46875 
L 20.296875 54.09375 
z
" id="Nimbus_Sans_L_Bold-114"/>
      <path d="M 52.40625 2 
C 49.90625 4.296875 49.203125 5.8125 49.203125 8.609375 
L 49.203125 38.671875 
C 49.203125 49.71875 41.703125 55.328125 27.09375 55.328125 
C 12.5 55.328125 4.90625 49.109375 4 36.59375 
L 17.5 36.59375 
C 18.203125 42.203125 20.5 44 27.40625 44 
C 32.796875 44 35.5 42.203125 35.5 38.59375 
C 35.5 36.796875 34.59375 35.1875 33.09375 34.390625 
C 31.203125 33.390625 31.203125 33.390625 24.296875 32.28125 
L 18.703125 31.265625 
C 8 29.46875 2.796875 23.953125 2.796875 14.234375 
C 2.796875 9.625 4.09375 5.8125 6.59375 3.109375 
C 9.703125 -0.109375 14.40625 -2 19.203125 -2 
C 25.203125 -2 30.703125 0.59375 35.59375 5.703125 
C 35.59375 2.90625 35.90625 1.90625 37.203125 0.296875 
L 52.40625 0.296875 
z
M 35.5 22.046875 
C 35.5 13.921875 31.5 9.3125 24.40625 9.3125 
C 19.703125 9.3125 16.796875 11.8125 16.796875 15.828125 
C 16.796875 20.046875 19 22.046875 24.796875 23.25 
L 29.59375 24.15625 
C 33.296875 24.859375 33.90625 25.046875 35.5 25.859375 
z
" id="Nimbus_Sans_L_Bold-97"/>
      <path d="M 31.296875 53 
L 23 53 
L 23 58.296875 
C 23 61.09375 24.203125 62.484375 26.796875 62.484375 
C 28 62.484375 29.59375 62.484375 30.796875 62.28125 
L 30.796875 72.796875 
C 28.203125 73 24.703125 73 22.796875 73 
C 13.5 73 9 68.59375 9 59.5 
L 9 53 
L 1.40625 53 
L 1.40625 43.6875 
L 9 43.6875 
L 9 -0.015625 
L 23 -0.015625 
L 23 43.6875 
L 31.296875 43.6875 
z
" id="Nimbus_Sans_L_Bold-102"/>
      <path d="M 30.09375 53.3125 
L 22.296875 53.3125 
L 22.296875 68 
L 8.296875 68 
L 8.296875 53.3125 
L 1.40625 53.3125 
L 1.40625 44 
L 8.296875 44 
L 8.296875 10.734375 
C 8.296875 2.203125 12.796875 -2 22 -2 
C 25.09375 -2 27.59375 -1.703125 30.09375 -0.90625 
L 30.09375 8.90625 
C 28.703125 8.71875 27.90625 8.609375 26.90625 8.609375 
C 23.203125 8.609375 22.296875 9.71875 22.296875 14.515625 
L 22.296875 44 
L 30.09375 44 
z
" id="Nimbus_Sans_L_Bold-116"/>
     </defs>
     <use transform="scale(0.996264)" xlink:href="#Nimbus_Sans_L_Bold-85"/>
     <use transform="translate(71.929985 0)scale(0.996264)" xlink:href="#Nimbus_Sans_L_Bold-110"/>
     <use transform="translate(132.801616 0)scale(0.996264)" xlink:href="#Nimbus_Sans_L_Bold-105"/>
     <use transform="translate(160.496785 0)scale(0.996264)" xlink:href="#Nimbus_Sans_L_Bold-107"/>
     <use transform="translate(215.888462 0)scale(0.996264)" xlink:href="#Nimbus_Sans_L_Bold-114"/>
     <use transform="translate(254.642168 0)scale(0.996264)" xlink:href="#Nimbus_Sans_L_Bold-97"/>
     <use transform="translate(310.033845 0)scale(0.996264)" xlink:href="#Nimbus_Sans_L_Bold-102"/>
     <use transform="translate(343.209075 0)scale(0.996264)" xlink:href="#Nimbus_Sans_L_Bold-116"/>
    </g>
   </g>
   <g id="text_13">
    <!-- \textbf{Linux} -->
    <g transform="translate(412.227541 17.137648)scale(0.14 -0.14)">
     <defs>
      <path d="M 23 73 
L 8 73 
L 8 0 
L 57.90625 0 
L 57.90625 12.515625 
L 23 12.515625 
z
" id="Nimbus_Sans_L_Bold-76"/>
      <path d="M 54.09375 0 
L 54.09375 54.09375 
L 40.09375 54.09375 
L 40.09375 20.453125 
C 40.09375 14.09375 35.59375 9.90625 28.796875 9.90625 
C 22.796875 9.90625 19.796875 13.109375 19.796875 19.5625 
L 19.796875 54.09375 
L 5.796875 54.09375 
L 5.796875 16.625 
C 5.796875 4.765625 12.40625 -2 23.90625 -2 
C 31.203125 -2 36.09375 0.671875 40.09375 6.609375 
L 40.09375 0 
z
" id="Nimbus_Sans_L_Bold-117"/>
      <path d="M 35.5 27.25 
L 53.09375 54.09375 
L 36.296875 54.09375 
L 27.59375 37.765625 
L 18.796875 54.09375 
L 2 54.09375 
L 19.59375 27.25 
L 1.59375 0 
L 18.40625 0 
L 27.59375 16.828125 
L 36.703125 0 
L 53.5 0 
z
" id="Nimbus_Sans_L_Bold-120"/>
     </defs>
     <use transform="scale(0.996264)" xlink:href="#Nimbus_Sans_L_Bold-76"/>
     <use transform="translate(60.871631 0)scale(0.996264)" xlink:href="#Nimbus_Sans_L_Bold-105"/>
     <use transform="translate(88.5668 0)scale(0.996264)" xlink:href="#Nimbus_Sans_L_Bold-110"/>
     <use transform="translate(148.442334 0)scale(0.996264)" xlink:href="#Nimbus_Sans_L_Bold-117"/>
     <use transform="translate(209.313965 0)scale(0.996264)" xlink:href="#Nimbus_Sans_L_Bold-120"/>
    </g>
   </g>
   <g id="patch_7">
    <path clip-path="url(#p36506ac48f)" d="M 76.368006 296.019513 
L 125.249236 296.019513 
L 125.249236 282.250614 
L 76.368006 282.250614 
z
" style="fill:#d5316a;stroke:#000000;stroke-linejoin:miter;stroke-width:0.5;"/>
   </g>
   <g id="patch_8">
    <path clip-path="url(#p36506ac48f)" d="M 125.249236 296.019513 
L 174.130466 296.019513 
L 174.130466 283.012176 
L 125.249236 283.012176 
z
" style="fill:url(#he9e8438603);stroke:#000000;stroke-linejoin:miter;stroke-width:0.5;"/>
   </g>
   <g id="patch_9">
    <path clip-path="url(#p36506ac48f)" d="M 198.571081 296.019513 
L 247.452312 296.019513 
L 247.452312 222.838051 
L 198.571081 222.838051 
z
" style="fill:#3db2d7;stroke:#000000;stroke-linejoin:miter;stroke-width:0.5;"/>
   </g>
   <g id="patch_10">
    <path clip-path="url(#p36506ac48f)" d="M 247.452312 296.019513 
L 296.333542 296.019513 
L 296.333542 196.825166 
L 247.452312 196.825166 
z
" style="fill:url(#h3db3d887ec);stroke:#000000;stroke-linejoin:miter;stroke-width:0.5;"/>
   </g>
   <g id="patch_11">
    <path clip-path="url(#p36506ac48f)" d="M 320.774157 296.019513 
L 369.655387 296.019513 
L 369.655387 208.048374 
L 320.774157 208.048374 
z
" style="fill:#e06e36;stroke:#000000;stroke-linejoin:miter;stroke-width:0.5;"/>
   </g>
   <g id="patch_12">
    <path clip-path="url(#p36506ac48f)" d="M 369.655387 296.019513 
L 418.536617 296.019513 
L 418.536617 149.561841 
L 369.655387 149.561841 
z
" style="fill:url(#h1affea178b);stroke:#000000;stroke-linejoin:miter;stroke-width:0.5;"/>
   </g>
   <g id="patch_13">
    <path clip-path="url(#p36506ac48f)" d="M 442.977232 296.019513 
L 491.858462 296.019513 
L 491.858462 177.705669 
L 442.977232 177.705669 
z
" style="fill:#3db2d7;stroke:#000000;stroke-linejoin:miter;stroke-width:0.5;"/>
   </g>
   <g id="patch_14">
    <path clip-path="url(#p36506ac48f)" d="M 491.858462 296.019513 
L 540.739692 296.019513 
L 540.739692 114.823172 
L 491.858462 114.823172 
z
" style="fill:url(#h3db3d887ec);stroke:#000000;stroke-linejoin:miter;stroke-width:0.5;"/>
   </g>
   <g id="legend_1">
    <g id="patch_15">
     <path d="M 71.147699 59.672464 
L 325.949424 59.672464 
L 325.949424 34.863874 
L 71.147699 34.863874 
z
" style="fill:#ffffff;"/>
    </g>
    <g id="patch_16">
     <path d="M 76.747699 51.101686 
L 104.747699 51.101686 
L 104.747699 41.301686 
L 76.747699 41.301686 
z
" style="fill:#ffffff;stroke:#000000;stroke-linejoin:miter;"/>
    </g>
    <g id="text_14">
     <!-- FILE EXISTS -->
     <g transform="translate(115.947699 51.101686)scale(0.14 -0.14)">
      <defs>
       <path d="M 19.40625 73 
L 10 73 
L 10 -0.03125 
L 19.40625 -0.03125 
z
" id="Nimbus_Sans_L_Regular-73"/>
       <path d="M 17.296875 73 
L 8 73 
L 8 0 
L 53.296875 0 
L 53.296875 8.21875 
L 17.296875 8.21875 
z
" id="Nimbus_Sans_L_Regular-76"/>
       <path d="M 18.296875 33 
L 58 33 
L 58 41.21875 
L 18.296875 41.21875 
L 18.296875 64.78125 
L 59.5 64.78125 
L 59.5 73 
L 9 73 
L 9 0 
L 61.296875 0 
L 61.296875 8.21875 
L 18.296875 8.21875 
z
" id="Nimbus_Sans_L_Regular-69"/>
       <path d="M 39.09375 37.4375 
L 63.703125 73 
L 52.59375 73 
L 33.796875 44.34375 
L 15.09375 73 
L 3.796875 73 
L 28 37.4375 
L 2.203125 -0.03125 
L 13.5 -0.03125 
L 33.5 30.421875 
L 53.40625 -0.03125 
L 64.90625 -0.03125 
z
" id="Nimbus_Sans_L_Regular-88"/>
      </defs>
      <use transform="scale(0.996264)" xlink:href="#Nimbus_Sans_L_Regular-70"/>
      <use transform="translate(60.871631 0)scale(0.996264)" xlink:href="#Nimbus_Sans_L_Regular-73"/>
      <use transform="translate(88.5668 0)scale(0.996264)" xlink:href="#Nimbus_Sans_L_Regular-76"/>
      <use transform="translate(143.958477 0)scale(0.996264)" xlink:href="#Nimbus_Sans_L_Regular-69"/>
      <use transform="translate(238.103678 0)scale(0.996264)" xlink:href="#Nimbus_Sans_L_Regular-69"/>
      <use transform="translate(304.553709 0)scale(0.996264)" xlink:href="#Nimbus_Sans_L_Regular-88"/>
      <use transform="translate(371.00374 0)scale(0.996264)" xlink:href="#Nimbus_Sans_L_Regular-73"/>
      <use transform="translate(398.69891 0)scale(0.996264)" xlink:href="#Nimbus_Sans_L_Regular-83"/>
      <use transform="translate(465.148941 0)scale(0.996264)" xlink:href="#Nimbus_Sans_L_Regular-84"/>
      <use transform="translate(526.020572 0)scale(0.996264)" xlink:href="#Nimbus_Sans_L_Regular-83"/>
     </g>
    </g>
    <g id="patch_17">
     <path d="M 226.893564 51.101686 
L 254.893564 51.101686 
L 254.893564 41.301686 
L 226.893564 41.301686 
z
" style="fill:url(#hb0217d5975);stroke:#000000;stroke-linejoin:miter;"/>
    </g>
    <g id="text_15">
     <!-- NO FILE -->
     <g transform="translate(266.093564 51.101686)scale(0.14 -0.14)">
      <defs>
       <path d="M 38.90625 74.21875 
C 18 74.21875 3.796875 58.84375 3.796875 36.109375 
C 3.796875 13.359375 18 -2 39 -2 
C 47.796875 -2 55.703125 0.6875 61.59375 5.671875 
C 69.5 12.359375 74.203125 23.625 74.203125 35.5 
C 74.203125 58.953125 60.296875 74.21875 38.90625 74.21875 
z
M 38.90625 66 
C 54.703125 66 64.90625 54.046875 64.90625 35.703125 
C 64.90625 18.171875 54.40625 6.203125 39 6.203125 
C 23.5 6.203125 13.09375 18.171875 13.09375 36.109375 
C 13.09375 54.046875 23.5 66 38.90625 66 
z
" id="Nimbus_Sans_L_Regular-79"/>
      </defs>
      <use transform="scale(0.996264)" xlink:href="#Nimbus_Sans_L_Regular-78"/>
      <use transform="translate(71.929985 0)scale(0.996264)" xlink:href="#Nimbus_Sans_L_Regular-79"/>
      <use transform="translate(177.133525 0)scale(0.996264)" xlink:href="#Nimbus_Sans_L_Regular-70"/>
      <use transform="translate(238.005155 0)scale(0.996264)" xlink:href="#Nimbus_Sans_L_Regular-73"/>
      <use transform="translate(265.700325 0)scale(0.996264)" xlink:href="#Nimbus_Sans_L_Regular-76"/>
      <use transform="translate(321.092002 0)scale(0.996264)" xlink:href="#Nimbus_Sans_L_Regular-69"/>
     </g>
    </g>
   </g>
   <g id="text_16">
    <g id="patch_18">
     <path d="M 113.365002 277.241354 
L 113.365002 227.500412 
L 80.920056 227.500412 
L 80.920056 277.241354 
z
" style="fill:#ffffff;"/>
    </g>
    <!-- 308 -->
    <g transform="translate(93.157032 267.326632)rotate(-90)scale(0.18 -0.18)">
     <defs>
      <path d="M 39.09375 37.484375 
C 46.40625 41.875 48.796875 45.46875 48.796875 52.15625 
C 48.796875 63.21875 40.09375 71 27.5 71 
C 15 71 6.203125 63.21875 6.203125 52.15625 
C 6.203125 45.578125 8.59375 41.984375 15.796875 37.484375 
C 7.703125 33.59375 3.703125 27.71875 3.703125 19.9375 
C 3.703125 6.96875 13.5 -2 27.5 -2 
C 41.5 -2 51.296875 6.984375 51.296875 19.84375 
C 51.296875 27.71875 47.296875 33.59375 39.09375 37.484375 
z
M 27.5 63.1875 
C 35 63.1875 39.796875 58.8125 39.796875 51.953125 
C 39.796875 45.375 34.90625 41 27.5 41 
C 20.09375 41 15.203125 45.375 15.203125 52.046875 
C 15.203125 58.8125 20.09375 63.1875 27.5 63.1875 
z
M 27.5 33.578125 
C 36.296875 33.578125 42.296875 28 42.296875 19.734375 
C 42.296875 11.390625 36.296875 5.8125 27.296875 5.8125 
C 18.703125 5.8125 12.703125 11.484375 12.703125 19.734375 
C 12.703125 28 18.703125 33.578125 27.5 33.578125 
z
" id="Nimbus_Sans_L_Regular-56"/>
     </defs>
     <use transform="scale(0.996264)" xlink:href="#Nimbus_Sans_L_Regular-51"/>
     <use transform="translate(55.391677 0)scale(0.996264)" xlink:href="#Nimbus_Sans_L_Regular-48"/>
     <use transform="translate(110.783354 0)scale(0.996264)" xlink:href="#Nimbus_Sans_L_Regular-56"/>
    </g>
    <!-- (86ns) -->
    <g transform="translate(110.085433 277.781354)rotate(-90)scale(0.18 -0.18)">
     <defs>
      <path d="M 49.796875 52.84375 
C 48.09375 64.234375 40.5 71 29.703125 71 
C 21.90625 71 14.90625 67.21875 10.703125 60.9375 
C 6.296875 54.0625 4.296875 45.375 4.296875 32.515625 
C 4.296875 20.640625 6.09375 13.0625 10.296875 6.78125 
C 14.09375 1.078125 20.296875 -2 28.09375 -2 
C 41.59375 -2 51.296875 8.09375 51.296875 22.109375 
C 51.296875 35.4375 42.296875 44.8125 29.59375 44.8125 
C 22.59375 44.8125 17.09375 42.109375 13.296875 36.90625 
C 13.40625 53.8125 19 63.1875 29.09375 63.1875 
C 35.296875 63.1875 39.59375 59.421875 41 52.84375 
z
M 28.5 37 
C 37 37 42.296875 31.03125 42.296875 21.40625 
C 42.296875 12.390625 36.296875 5.8125 28.203125 5.8125 
C 20 5.8125 13.796875 12.703125 13.796875 21.90625 
C 13.796875 30.828125 19.796875 37 28.5 37 
z
" id="Nimbus_Sans_L_Regular-54"/>
      <path d="M 7 52.484375 
L 7 0 
L 15.40625 0 
L 15.40625 28.953125 
C 15.40625 39.671875 21 46.6875 29.59375 46.6875 
C 36.203125 46.6875 40.40625 42.671875 40.40625 36.359375 
L 40.40625 0 
L 48.703125 0 
L 48.703125 39.671875 
C 48.703125 48.390625 42.203125 54 32.09375 54 
C 24.296875 54 19.296875 50.984375 14.703125 43.6875 
L 14.703125 52.484375 
z
" id="Nimbus_Sans_L_Regular-110"/>
      <path d="M 43.796875 37.921875 
C 43.703125 48.203125 36.90625 54 24.796875 54 
C 12.59375 54 4.703125 47.71875 4.703125 38.0625 
C 4.703125 29.890625 8.90625 26.015625 21.296875 23.03125 
L 29.09375 21.140625 
C 34.90625 19.734375 37.203125 17.65625 37.203125 13.875 
C 37.203125 9 32.296875 5.703125 25 5.703125 
C 20.5 5.703125 16.703125 7 14.59375 9.1875 
C 13.296875 10.6875 12.703125 12.171875 12.203125 15.84375 
L 3.40625 15.84375 
C 3.796875 3.765625 10.59375 -2 24.296875 -2 
C 37.5 -2 45.90625 4.453125 45.90625 14.515625 
C 45.90625 22.28125 41.5 26.578125 31.09375 29.0625 
L 23.09375 30.953125 
C 16.296875 32.53125 13.40625 34.734375 13.40625 38.40625 
C 13.40625 43.1875 17.703125 46.28125 24.5 46.28125 
C 31.203125 46.28125 34.796875 43.390625 35 37.921875 
z
" id="Nimbus_Sans_L_Regular-115"/>
     </defs>
     <use transform="scale(0.996264)" xlink:href="#Nimbus_Sans_L_Regular-40"/>
     <use transform="translate(33.17523 0)scale(0.996264)" xlink:href="#Nimbus_Sans_L_Regular-56"/>
     <use transform="translate(88.566907 0)scale(0.996264)" xlink:href="#Nimbus_Sans_L_Regular-54"/>
     <use transform="translate(143.958584 0)scale(0.996264)" xlink:href="#Nimbus_Sans_L_Regular-110"/>
     <use transform="translate(199.350261 0)scale(0.996264)" xlink:href="#Nimbus_Sans_L_Regular-115"/>
     <use transform="translate(249.163461 0)scale(0.996264)" xlink:href="#Nimbus_Sans_L_Regular-41"/>
    </g>
   </g>
   <g id="text_17">
    <g id="patch_19">
     <path d="M 162.246232 278.002916 
L 162.246232 228.261974 
L 129.801286 228.261974 
L 129.801286 278.002916 
z
" style="fill:#ffffff;"/>
    </g>
    <!-- 291 -->
    <g transform="translate(142.038262 268.088194)rotate(-90)scale(0.18 -0.18)">
     <defs>
      <path d="M 5.296875 16.625 
C 7 4.9375 14.59375 -2 25.40625 -2 
C 33.203125 -2 40.296875 1.78125 44.40625 8.0625 
C 48.90625 14.9375 50.90625 23.625 50.90625 36.484375 
C 50.90625 48.359375 49.09375 55.9375 44.90625 62.21875 
C 41 67.921875 34.796875 71 27 71 
C 13.5 71 3.796875 61.078125 3.796875 47.296875 
C 3.796875 34.21875 12.796875 25 25.59375 25 
C 32.296875 25 37.203125 27.40625 41.796875 32.90625 
C 41.703125 15.484375 36.09375 5.8125 26 5.8125 
C 19.796875 5.8125 15.5 9.75 14.09375 16.625 
z
M 26.90625 63.296875 
C 35.09375 63.296875 41.296875 56.59375 41.296875 47.515625 
C 41.296875 38.921875 35.203125 32.8125 26.59375 32.8125 
C 18.09375 32.8125 12.796875 38.625 12.796875 48 
C 12.796875 56.875 18.796875 63.296875 26.90625 63.296875 
z
" id="Nimbus_Sans_L_Regular-57"/>
     </defs>
     <use transform="scale(0.996264)" xlink:href="#Nimbus_Sans_L_Regular-50"/>
     <use transform="translate(55.391677 0)scale(0.996264)" xlink:href="#Nimbus_Sans_L_Regular-57"/>
     <use transform="translate(110.783354 0)scale(0.996264)" xlink:href="#Nimbus_Sans_L_Regular-49"/>
    </g>
    <!-- (81ns) -->
    <g transform="translate(158.966663 278.542916)rotate(-90)scale(0.18 -0.18)">
     <use transform="scale(0.996264)" xlink:href="#Nimbus_Sans_L_Regular-40"/>
     <use transform="translate(33.17523 0)scale(0.996264)" xlink:href="#Nimbus_Sans_L_Regular-56"/>
     <use transform="translate(88.566907 0)scale(0.996264)" xlink:href="#Nimbus_Sans_L_Regular-49"/>
     <use transform="translate(143.958584 0)scale(0.996264)" xlink:href="#Nimbus_Sans_L_Regular-110"/>
     <use transform="translate(199.350261 0)scale(0.996264)" xlink:href="#Nimbus_Sans_L_Regular-115"/>
     <use transform="translate(249.163461 0)scale(0.996264)" xlink:href="#Nimbus_Sans_L_Regular-41"/>
    </g>
   </g>
   <g id="text_18">
    <g id="patch_20">
     <path d="M 235.568078 217.82879 
L 235.568078 158.117349 
L 203.123131 158.117349 
L 203.123131 217.82879 
z
" style="fill:#ffffff;"/>
    </g>
    <!-- 1637 -->
    <g transform="translate(215.360107 207.914069)rotate(-90)scale(0.18 -0.18)">
     <defs>
      <path d="M 52 70.703125 
L 4.59375 70.703125 
L 4.59375 62 
L 42.90625 62 
C 26 37.78125 19.09375 22.90625 13.796875 -0.5 
L 23.203125 -0.5 
C 27.09375 22.296875 36 41.890625 52 63.296875 
z
" id="Nimbus_Sans_L_Regular-55"/>
     </defs>
     <use transform="scale(0.996264)" xlink:href="#Nimbus_Sans_L_Regular-49"/>
     <use transform="translate(55.391677 0)scale(0.996264)" xlink:href="#Nimbus_Sans_L_Regular-54"/>
     <use transform="translate(110.783354 0)scale(0.996264)" xlink:href="#Nimbus_Sans_L_Regular-51"/>
     <use transform="translate(166.175031 0)scale(0.996264)" xlink:href="#Nimbus_Sans_L_Regular-55"/>
    </g>
    <!-- (455ns) -->
    <g transform="translate(232.288508 218.36879)rotate(-90)scale(0.18 -0.18)">
     <use transform="scale(0.996264)" xlink:href="#Nimbus_Sans_L_Regular-40"/>
     <use transform="translate(33.17523 0)scale(0.996264)" xlink:href="#Nimbus_Sans_L_Regular-52"/>
     <use transform="translate(88.566907 0)scale(0.996264)" xlink:href="#Nimbus_Sans_L_Regular-53"/>
     <use transform="translate(143.958584 0)scale(0.996264)" xlink:href="#Nimbus_Sans_L_Regular-53"/>
     <use transform="translate(199.350261 0)scale(0.996264)" xlink:href="#Nimbus_Sans_L_Regular-110"/>
     <use transform="translate(254.741938 0)scale(0.996264)" xlink:href="#Nimbus_Sans_L_Regular-115"/>
     <use transform="translate(304.555138 0)scale(0.996264)" xlink:href="#Nimbus_Sans_L_Regular-41"/>
    </g>
   </g>
   <g id="text_19">
    <g id="patch_21">
     <path d="M 284.449308 191.815906 
L 284.449308 132.104464 
L 252.004361 132.104464 
L 252.004361 191.815906 
z
" style="fill:#ffffff;"/>
    </g>
    <!-- 2219 -->
    <g transform="translate(264.241338 181.901184)rotate(-90)scale(0.18 -0.18)">
     <use transform="scale(0.996264)" xlink:href="#Nimbus_Sans_L_Regular-50"/>
     <use transform="translate(55.391677 0)scale(0.996264)" xlink:href="#Nimbus_Sans_L_Regular-50"/>
     <use transform="translate(110.783354 0)scale(0.996264)" xlink:href="#Nimbus_Sans_L_Regular-49"/>
     <use transform="translate(166.175031 0)scale(0.996264)" xlink:href="#Nimbus_Sans_L_Regular-57"/>
    </g>
    <!-- (617ns) -->
    <g transform="translate(281.169738 192.355906)rotate(-90)scale(0.18 -0.18)">
     <use transform="scale(0.996264)" xlink:href="#Nimbus_Sans_L_Regular-40"/>
     <use transform="translate(33.17523 0)scale(0.996264)" xlink:href="#Nimbus_Sans_L_Regular-54"/>
     <use transform="translate(88.566907 0)scale(0.996264)" xlink:href="#Nimbus_Sans_L_Regular-49"/>
     <use transform="translate(143.958584 0)scale(0.996264)" xlink:href="#Nimbus_Sans_L_Regular-55"/>
     <use transform="translate(199.350261 0)scale(0.996264)" xlink:href="#Nimbus_Sans_L_Regular-110"/>
     <use transform="translate(254.741938 0)scale(0.996264)" xlink:href="#Nimbus_Sans_L_Regular-115"/>
     <use transform="translate(304.555138 0)scale(0.996264)" xlink:href="#Nimbus_Sans_L_Regular-41"/>
    </g>
   </g>
   <g id="text_20">
    <g id="patch_22">
     <path d="M 357.771153 203.039113 
L 357.771153 143.327672 
L 325.326206 143.327672 
L 325.326206 203.039113 
z
" style="fill:#ffffff;"/>
    </g>
    <!-- 1968 -->
    <g transform="translate(337.563183 193.124391)rotate(-90)scale(0.18 -0.18)">
     <use transform="scale(0.996264)" xlink:href="#Nimbus_Sans_L_Regular-49"/>
     <use transform="translate(55.391677 0)scale(0.996264)" xlink:href="#Nimbus_Sans_L_Regular-57"/>
     <use transform="translate(110.783354 0)scale(0.996264)" xlink:href="#Nimbus_Sans_L_Regular-54"/>
     <use transform="translate(166.175031 0)scale(0.996264)" xlink:href="#Nimbus_Sans_L_Regular-56"/>
    </g>
    <!-- (547ns) -->
    <g transform="translate(354.491584 203.579113)rotate(-90)scale(0.18 -0.18)">
     <use transform="scale(0.996264)" xlink:href="#Nimbus_Sans_L_Regular-40"/>
     <use transform="translate(33.17523 0)scale(0.996264)" xlink:href="#Nimbus_Sans_L_Regular-53"/>
     <use transform="translate(88.566907 0)scale(0.996264)" xlink:href="#Nimbus_Sans_L_Regular-52"/>
     <use transform="translate(143.958584 0)scale(0.996264)" xlink:href="#Nimbus_Sans_L_Regular-55"/>
     <use transform="translate(199.350261 0)scale(0.996264)" xlink:href="#Nimbus_Sans_L_Regular-110"/>
     <use transform="translate(254.741938 0)scale(0.996264)" xlink:href="#Nimbus_Sans_L_Regular-115"/>
     <use transform="translate(304.555138 0)scale(0.996264)" xlink:href="#Nimbus_Sans_L_Regular-41"/>
    </g>
   </g>
   <g id="text_21">
    <g id="patch_23">
     <path d="M 406.652383 144.552581 
L 406.652383 84.841139 
L 374.207436 84.841139 
L 374.207436 144.552581 
z
" style="fill:#ffffff;"/>
    </g>
    <!-- 3277 -->
    <g transform="translate(386.444413 134.637859)rotate(-90)scale(0.18 -0.18)">
     <use transform="scale(0.996264)" xlink:href="#Nimbus_Sans_L_Regular-51"/>
     <use transform="translate(55.391677 0)scale(0.996264)" xlink:href="#Nimbus_Sans_L_Regular-50"/>
     <use transform="translate(110.783354 0)scale(0.996264)" xlink:href="#Nimbus_Sans_L_Regular-55"/>
     <use transform="translate(166.175031 0)scale(0.996264)" xlink:href="#Nimbus_Sans_L_Regular-55"/>
    </g>
    <!-- (910ns) -->
    <g transform="translate(403.372814 145.092581)rotate(-90)scale(0.18 -0.18)">
     <use transform="scale(0.996264)" xlink:href="#Nimbus_Sans_L_Regular-40"/>
     <use transform="translate(33.17523 0)scale(0.996264)" xlink:href="#Nimbus_Sans_L_Regular-57"/>
     <use transform="translate(88.566907 0)scale(0.996264)" xlink:href="#Nimbus_Sans_L_Regular-49"/>
     <use transform="translate(143.958584 0)scale(0.996264)" xlink:href="#Nimbus_Sans_L_Regular-48"/>
     <use transform="translate(199.350261 0)scale(0.996264)" xlink:href="#Nimbus_Sans_L_Regular-110"/>
     <use transform="translate(254.741938 0)scale(0.996264)" xlink:href="#Nimbus_Sans_L_Regular-115"/>
     <use transform="translate(304.555138 0)scale(0.996264)" xlink:href="#Nimbus_Sans_L_Regular-41"/>
    </g>
   </g>
   <g id="text_22">
    <g id="patch_24">
     <path d="M 479.974228 172.696409 
L 479.974228 112.984967 
L 447.529282 112.984967 
L 447.529282 172.696409 
z
" style="fill:#ffffff;"/>
    </g>
    <!-- 2647 -->
    <g transform="translate(459.766258 162.781687)rotate(-90)scale(0.18 -0.18)">
     <use transform="scale(0.996264)" xlink:href="#Nimbus_Sans_L_Regular-50"/>
     <use transform="translate(55.391677 0)scale(0.996264)" xlink:href="#Nimbus_Sans_L_Regular-54"/>
     <use transform="translate(110.783354 0)scale(0.996264)" xlink:href="#Nimbus_Sans_L_Regular-52"/>
     <use transform="translate(166.175031 0)scale(0.996264)" xlink:href="#Nimbus_Sans_L_Regular-55"/>
    </g>
    <!-- (735ns) -->
    <g transform="translate(476.694659 173.236409)rotate(-90)scale(0.18 -0.18)">
     <use transform="scale(0.996264)" xlink:href="#Nimbus_Sans_L_Regular-40"/>
     <use transform="translate(33.17523 0)scale(0.996264)" xlink:href="#Nimbus_Sans_L_Regular-55"/>
     <use transform="translate(88.566907 0)scale(0.996264)" xlink:href="#Nimbus_Sans_L_Regular-51"/>
     <use transform="translate(143.958584 0)scale(0.996264)" xlink:href="#Nimbus_Sans_L_Regular-53"/>
     <use transform="translate(199.350261 0)scale(0.996264)" xlink:href="#Nimbus_Sans_L_Regular-110"/>
     <use transform="translate(254.741938 0)scale(0.996264)" xlink:href="#Nimbus_Sans_L_Regular-115"/>
     <use transform="translate(304.555138 0)scale(0.996264)" xlink:href="#Nimbus_Sans_L_Regular-41"/>
    </g>
   </g>
   <g id="text_23">
    <g id="patch_25">
     <path d="M 528.855458 109.813911 
L 528.855458 40.131971 
L 496.410512 40.131971 
L 496.410512 109.813911 
z
" style="fill:#ffffff;"/>
    </g>
    <!-- 4054 -->
    <g transform="translate(508.647488 94.91394)rotate(-90)scale(0.18 -0.18)">
     <use transform="scale(0.996264)" xlink:href="#Nimbus_Sans_L_Regular-52"/>
     <use transform="translate(55.391677 0)scale(0.996264)" xlink:href="#Nimbus_Sans_L_Regular-48"/>
     <use transform="translate(110.783354 0)scale(0.996264)" xlink:href="#Nimbus_Sans_L_Regular-53"/>
     <use transform="translate(166.175031 0)scale(0.996264)" xlink:href="#Nimbus_Sans_L_Regular-52"/>
    </g>
    <!-- (1126ns) -->
    <g transform="translate(525.575889 110.353911)rotate(-90)scale(0.18 -0.18)">
     <use transform="scale(0.996264)" xlink:href="#Nimbus_Sans_L_Regular-40"/>
     <use transform="translate(33.17523 0)scale(0.996264)" xlink:href="#Nimbus_Sans_L_Regular-49"/>
     <use transform="translate(88.566907 0)scale(0.996264)" xlink:href="#Nimbus_Sans_L_Regular-49"/>
     <use transform="translate(143.958584 0)scale(0.996264)" xlink:href="#Nimbus_Sans_L_Regular-50"/>
     <use transform="translate(199.350261 0)scale(0.996264)" xlink:href="#Nimbus_Sans_L_Regular-54"/>
     <use transform="translate(254.741938 0)scale(0.996264)" xlink:href="#Nimbus_Sans_L_Regular-110"/>
     <use transform="translate(310.133615 0)scale(0.996264)" xlink:href="#Nimbus_Sans_L_Regular-115"/>
     <use transform="translate(359.946815 0)scale(0.996264)" xlink:href="#Nimbus_Sans_L_Regular-41"/>
    </g>
   </g>
  </g>
 </g>
 <defs>
  <clipPath id="p36506ac48f">
   <rect height="268.155639" width="488.812301" x="64.147699" y="27.863874"/>
  </clipPath>
 </defs>
 <defs>
  <pattern height="72" id="he9e8438603" patternUnits="userSpaceOnUse" width="72" x="0" y="0">
   <rect fill="#d5316a" height="73" width="73" x="0" y="0"/>
   <path d="M -36 36 
L 36 108 
M -33 33 
L 39 105 
M -30 30 
L 42 102 
M -27 27 
L 45 99 
M -24 24 
L 48 96 
M -21 21 
L 51 93 
M -18 18 
L 54 90 
M -15 15 
L 57 87 
M -12 12 
L 60 84 
M -9 9 
L 63 81 
M -6 6 
L 66 78 
M -3 3 
L 69 75 
M 0 0 
L 72 72 
M 3 -3 
L 75 69 
M 6 -6 
L 78 66 
M 9 -9 
L 81 63 
M 12 -12 
L 84 60 
M 15 -15 
L 87 57 
M 18 -18 
L 90 54 
M 21 -21 
L 93 51 
M 24 -24 
L 96 48 
M 27 -27 
L 99 45 
M 30 -30 
L 102 42 
M 33 -33 
L 105 39 
M 36 -36 
L 108 36 
" style="fill:#000000;stroke:#000000;stroke-linecap:butt;stroke-linejoin:miter;stroke-width:1.0;"/>
  </pattern>
  <pattern height="72" id="h3db3d887ec" patternUnits="userSpaceOnUse" width="72" x="0" y="0">
   <rect fill="#3db2d7" height="73" width="73" x="0" y="0"/>
   <path d="M -36 36 
L 36 108 
M -33 33 
L 39 105 
M -30 30 
L 42 102 
M -27 27 
L 45 99 
M -24 24 
L 48 96 
M -21 21 
L 51 93 
M -18 18 
L 54 90 
M -15 15 
L 57 87 
M -12 12 
L 60 84 
M -9 9 
L 63 81 
M -6 6 
L 66 78 
M -3 3 
L 69 75 
M 0 0 
L 72 72 
M 3 -3 
L 75 69 
M 6 -6 
L 78 66 
M 9 -9 
L 81 63 
M 12 -12 
L 84 60 
M 15 -15 
L 87 57 
M 18 -18 
L 90 54 
M 21 -21 
L 93 51 
M 24 -24 
L 96 48 
M 27 -27 
L 99 45 
M 30 -30 
L 102 42 
M 33 -33 
L 105 39 
M 36 -36 
L 108 36 
" style="fill:#000000;stroke:#000000;stroke-linecap:butt;stroke-linejoin:miter;stroke-width:1.0;"/>
  </pattern>
  <pattern height="72" id="h1affea178b" patternUnits="userSpaceOnUse" width="72" x="0" y="0">
   <rect fill="#e06e36" height="73" width="73" x="0" y="0"/>
   <path d="M -36 36 
L 36 108 
M -33 33 
L 39 105 
M -30 30 
L 42 102 
M -27 27 
L 45 99 
M -24 24 
L 48 96 
M -21 21 
L 51 93 
M -18 18 
L 54 90 
M -15 15 
L 57 87 
M -12 12 
L 60 84 
M -9 9 
L 63 81 
M -6 6 
L 66 78 
M -3 3 
L 69 75 
M 0 0 
L 72 72 
M 3 -3 
L 75 69 
M 6 -6 
L 78 66 
M 9 -9 
L 81 63 
M 12 -12 
L 84 60 
M 15 -15 
L 87 57 
M 18 -18 
L 90 54 
M 21 -21 
L 93 51 
M 24 -24 
L 96 48 
M 27 -27 
L 99 45 
M 30 -30 
L 102 42 
M 33 -33 
L 105 39 
M 36 -36 
L 108 36 
" style="fill:#000000;stroke:#000000;stroke-linecap:butt;stroke-linejoin:miter;stroke-width:1.0;"/>
  </pattern>
  <pattern height="72" id="hb0217d5975" patternUnits="userSpaceOnUse" width="72" x="0" y="0">
   <rect fill="#ffffff" height="73" width="73" x="0" y="0"/>
   <path d="M -36 36 
L 36 108 
M -33 33 
L 39 105 
M -30 30 
L 42 102 
M -27 27 
L 45 99 
M -24 24 
L 48 96 
M -21 21 
L 51 93 
M -18 18 
L 54 90 
M -15 15 
L 57 87 
M -12 12 
L 60 84 
M -9 9 
L 63 81 
M -6 6 
L 66 78 
M -3 3 
L 69 75 
M 0 0 
L 72 72 
M 3 -3 
L 75 69 
M 6 -6 
L 78 66 
M 9 -9 
L 81 63 
M 12 -12 
L 84 60 
M 15 -15 
L 87 57 
M 18 -18 
L 90 54 
M 21 -21 
L 93 51 
M 24 -24 
L 96 48 
M 27 -27 
L 99 45 
M 30 -30 
L 102 42 
M 33 -33 
L 105 39 
M 36 -36 
L 108 36 
" style="fill:#000000;stroke:#000000;stroke-linecap:butt;stroke-linejoin:miter;stroke-width:1.0;"/>
  </pattern>
 </defs>
</svg>
