<?xml version="1.0" encoding="utf-8" standalone="no"?>
<!DOCTYPE svg PUBLIC "-//W3C//DTD SVG 1.1//EN"
  "http://www.w3.org/Graphics/SVG/1.1/DTD/svg11.dtd">
<!-- Created with matplotlib (https://matplotlib.org/) -->
<svg height="360pt" version="1.1" viewBox="0 0 576 360" width="576pt" xmlns="http://www.w3.org/2000/svg" xmlns:xlink="http://www.w3.org/1999/xlink">
 <metadata>
  <rdf:RDF xmlns:cc="http://creativecommons.org/ns#" xmlns:dc="http://purl.org/dc/elements/1.1/" xmlns:rdf="http://www.w3.org/1999/02/22-rdf-syntax-ns#">
   <cc:Work>
    <dc:type rdf:resource="http://purl.org/dc/dcmitype/StillImage"/>
    <dc:date>2021-03-05T12:47:33.978625</dc:date>
    <dc:format>image/svg+xml</dc:format>
    <dc:creator>
     <cc:Agent>
      <dc:title>Matplotlib v3.3.4, https://matplotlib.org/</dc:title>
     </cc:Agent>
    </dc:creator>
   </cc:Work>
  </rdf:RDF>
 </metadata>
 <defs>
  <style type="text/css">*{stroke-linecap:butt;stroke-linejoin:round;}</style>
 </defs>
 <g id="figure_1">
  <g id="patch_1">
   <path d="M 0 360 
L 576 360 
L 576 0 
L 0 0 
z
" style="fill:#ffffff;"/>
  </g>
  <g id="axes_1">
   <g id="patch_2">
    <path d="M 60.435371 324.283454 
L 560.88 324.283454 
L 560.88 15.12 
L 60.435371 15.12 
z
" style="fill:#ffffff;"/>
   </g>
   <g id="patch_3">
    <path d="M 60.435371 324.283454 
L 60.435371 15.12 
" style="fill:none;stroke:#000000;stroke-linecap:square;stroke-linejoin:miter;"/>
   </g>
   <g id="patch_4">
    <path d="M 560.88 324.283454 
L 560.88 15.12 
" style="fill:none;stroke:#000000;stroke-linecap:square;stroke-linejoin:miter;"/>
   </g>
   <g id="patch_5">
    <path d="M 60.435371 324.283454 
L 560.88 324.283454 
" style="fill:none;stroke:#000000;stroke-linecap:square;stroke-linejoin:miter;"/>
   </g>
   <g id="patch_6">
    <path d="M 60.435371 15.12 
L 560.88 15.12 
" style="fill:none;stroke:#000000;stroke-linecap:square;stroke-linejoin:miter;"/>
   </g>
   <g id="matplotlib.axis_1">
    <g id="xtick_1">
     <g id="line2d_1">
      <defs>
       <path d="M 0 0 
L 0 -4 
" id="md50e3f868c" style="stroke:#000000;stroke-width:0.5;"/>
      </defs>
      <g>
       <use style="stroke:#000000;stroke-width:0.5;" x="110.479834" xlink:href="#md50e3f868c" y="324.283454"/>
      </g>
     </g>
     <g id="line2d_2">
      <defs>
       <path d="M 0 0 
L 0 4 
" id="mf0f78f646c" style="stroke:#000000;stroke-width:0.5;"/>
      </defs>
      <g>
       <use style="stroke:#000000;stroke-width:0.5;" x="110.479834" xlink:href="#mf0f78f646c" y="15.12"/>
      </g>
     </g>
     <g id="text_1">
      <!-- Binary buddy -->
      <g transform="translate(58.062978 341.060431)scale(0.18 -0.18)">
       <defs>
        <path d="M 7.90625 0 
L 40.796875 0 
C 47.703125 0 52.796875 1.890625 56.703125 6.09375 
C 60.296875 9.875 62.296875 15.015625 62.296875 20.640625 
C 62.296875 29.34375 58.296875 34.59375 49 38.1875 
C 55.59375 41.296875 59.09375 46.78125 59.09375 54.3125 
C 59.09375 59.703125 57.09375 64.484375 53.296875 67.890625 
C 49.5 71.390625 44.5 73 37.5 73 
L 7.90625 73 
z
M 17.203125 41.1875 
L 17.203125 64.796875 
L 35.203125 64.796875 
C 40.40625 64.796875 43.296875 64.078125 45.796875 62.140625 
C 48.40625 60.109375 49.796875 57.0625 49.796875 52.984375 
C 49.796875 49.03125 48.40625 45.875 45.796875 43.84375 
C 43.296875 41.90625 40.40625 41.1875 35.203125 41.1875 
z
M 17.203125 8.1875 
L 17.203125 33 
L 39.90625 33 
C 44.40625 33 47.40625 31.90625 49.59375 29.53125 
C 51.796875 27.265625 53 24.09375 53 20.546875 
C 53 17.078125 51.796875 13.921875 49.59375 11.65625 
C 47.40625 9.28125 44.40625 8.1875 39.90625 8.1875 
z
" id="Nimbus_Sans_L_Regular-66"/>
        <path d="M 15 52.46875 
L 6.703125 52.46875 
L 6.703125 0 
L 15 0 
z
M 15 73 
L 6.59375 73 
L 6.59375 62.484375 
L 15 62.484375 
z
" id="Nimbus_Sans_L_Regular-105"/>
        <path d="M 7 52 
L 7 0 
L 15.40625 0 
L 15.40625 28.671875 
C 15.40625 39.671875 21 46.6875 29.59375 46.6875 
C 36.203125 46.6875 40.40625 42.6875 40.40625 36.375 
L 40.40625 0 
L 48.703125 0 
L 48.703125 39.671875 
C 48.703125 48.390625 42.203125 54 32.09375 54 
C 24.296875 54 19.296875 50.984375 14.703125 43.6875 
L 14.703125 52 
z
" id="Nimbus_Sans_L_Regular-110"/>
        <path d="M 53.5 5.1875 
C 52.59375 5 52.203125 5 51.703125 5 
C 48.796875 5 47.203125 6.484375 47.203125 9.078125 
L 47.203125 39.71875 
C 47.203125 48.984375 40.40625 54 27.5 54 
C 19.90625 54 13.59375 51.796875 10.09375 47.890625 
C 7.703125 45.203125 6.703125 42.21875 6.5 37.03125 
L 14.90625 37.03125 
C 15.59375 43.40625 19.40625 46.296875 27.203125 46.296875 
C 34.703125 46.296875 38.90625 43.5 38.90625 38.53125 
L 38.90625 36.34375 
C 38.90625 32.859375 36.796875 31.359375 30.203125 30.5625 
C 18.40625 29.078125 16.59375 28.671875 13.40625 27.390625 
C 7.296875 24.890625 4.203125 20.21875 4.203125 13.453125 
C 4.203125 4 10.796875 -2 21.40625 -2 
C 28 -2 33.296875 0.296875 39.203125 5.6875 
C 39.796875 0.390625 42.40625 -2 47.796875 -2 
C 49.5 -2 50.796875 -1.8125 53.5 -1.109375 
z
M 38.90625 16.734375 
C 38.90625 13.953125 38.09375 12.265625 35.59375 9.96875 
C 32.203125 6.890625 28.09375 5.296875 23.203125 5.296875 
C 16.703125 5.296875 12.90625 8.375 12.90625 13.65625 
C 12.90625 19.125 16.59375 21.90625 25.5 23.203125 
C 34.296875 24.40625 36.09375 24.796875 38.90625 26.09375 
z
" id="Nimbus_Sans_L_Regular-97"/>
        <path d="M 6.90625 52 
L 6.90625 0 
L 15.296875 0 
L 15.296875 26.984375 
C 15.296875 34.421875 17.203125 39.28125 21.203125 42.15625 
C 23.796875 44.046875 26.296875 44.640625 32.09375 44.734375 
L 32.09375 53.1875 
C 30.703125 53.890625 30 54 28.90625 54 
C 23.5 54 19.40625 50.796875 14.59375 42.96875 
L 14.59375 52 
z
" id="Nimbus_Sans_L_Regular-114"/>
        <path d="M 38.796875 52 
L 24.296875 11.3125 
L 10.90625 52 
L 2 52 
L 19.703125 -0.453125 
L 16.5 -8.71875 
C 15.203125 -12.40625 13.296875 -13.8125 9.796875 -13.8125 
C 8.59375 -13.8125 7.203125 -13.609375 5.40625 -13.203125 
L 5.40625 -20.703125 
C 7.09375 -21.609375 8.796875 -22 11 -22 
C 13.703125 -22 16.59375 -21.109375 18.796875 -19.5 
C 21.40625 -17.609375 22.90625 -15.40625 24.5 -11.21875 
L 47.796875 52 
z
" id="Nimbus_Sans_L_Regular-121"/>
        <path d="M 5.40625 73 
L 5.40625 0.296875 
L 12.90625 0.296875 
L 12.90625 6.984375 
C 16.90625 0.890625 22.203125 -2 29.5 -2 
C 43.296875 -2 52.296875 9.28125 52.296875 26.59375 
C 52.296875 43.5 43.703125 54 29.90625 54 
C 22.703125 54 17.59375 51.296875 13.703125 45.390625 
L 13.703125 73 
z
M 28.296875 46.1875 
C 37.59375 46.1875 43.59375 38.125 43.59375 25.6875 
C 43.59375 13.859375 37.40625 5.796875 28.296875 5.796875 
C 19.5 5.796875 13.703125 13.75 13.703125 25.984375 
C 13.703125 38.234375 19.5 46.1875 28.296875 46.1875 
z
" id="Nimbus_Sans_L_Regular-98"/>
        <path d="M 48.203125 0.296875 
L 48.203125 52 
L 39.90625 52 
L 39.90625 22.71875 
C 39.90625 12.1875 34.296875 5.296875 25.59375 5.296875 
C 19 5.296875 14.796875 9.234375 14.796875 15.4375 
L 14.796875 52 
L 6.5 52 
L 6.5 12.1875 
C 6.5 3.59375 13 -2 23.203125 -2 
C 30.90625 -2 35.796875 0.6875 40.703125 7.5625 
L 40.703125 0.296875 
z
" id="Nimbus_Sans_L_Regular-117"/>
        <path d="M 49.5 73 
L 41.203125 73 
L 41.203125 45.890625 
C 37.703125 51.1875 32.09375 54 25.09375 54 
C 11.5 54 2.59375 43.109375 2.59375 26.484375 
C 2.59375 8.875 11.296875 -2 25.40625 -2 
C 32.59375 -2 37.59375 0.6875 42.09375 7.1875 
L 42.09375 0.296875 
L 49.5 0.296875 
z
M 26.5 46.1875 
C 35.5 46.1875 41.203125 38.234375 41.203125 25.796875 
C 41.203125 13.75 35.40625 5.796875 26.59375 5.796875 
C 17.40625 5.796875 11.296875 13.859375 11.296875 25.984375 
C 11.296875 38.125 17.40625 46.1875 26.5 46.1875 
z
" id="Nimbus_Sans_L_Regular-100"/>
       </defs>
       <use transform="scale(0.996264)" xlink:href="#Nimbus_Sans_L_Regular-66"/>
       <use transform="translate(66.450031 0)scale(0.996264)" xlink:href="#Nimbus_Sans_L_Regular-105"/>
       <use transform="translate(88.566815 0)scale(0.996264)" xlink:href="#Nimbus_Sans_L_Regular-110"/>
       <use transform="translate(143.958492 0)scale(0.996264)" xlink:href="#Nimbus_Sans_L_Regular-97"/>
       <use transform="translate(199.350169 0)scale(0.996264)" xlink:href="#Nimbus_Sans_L_Regular-114"/>
       <use transform="translate(235.513492 0)scale(0.996264)" xlink:href="#Nimbus_Sans_L_Regular-121"/>
       <use transform="translate(313.021862 0)scale(0.996264)" xlink:href="#Nimbus_Sans_L_Regular-98"/>
       <use transform="translate(366.421528 0)scale(0.996264)" xlink:href="#Nimbus_Sans_L_Regular-117"/>
       <use transform="translate(421.813205 0)scale(0.996264)" xlink:href="#Nimbus_Sans_L_Regular-100"/>
       <use transform="translate(477.204882 0)scale(0.996264)" xlink:href="#Nimbus_Sans_L_Regular-100"/>
       <use transform="translate(532.596559 0)scale(0.996264)" xlink:href="#Nimbus_Sans_L_Regular-121"/>
      </g>
     </g>
    </g>
    <g id="xtick_2">
     <g id="line2d_3">
      <g>
       <use style="stroke:#000000;stroke-width:0.5;" x="210.568759" xlink:href="#md50e3f868c" y="324.283454"/>
      </g>
     </g>
     <g id="line2d_4">
      <g>
       <use style="stroke:#000000;stroke-width:0.5;" x="210.568759" xlink:href="#mf0f78f646c" y="15.12"/>
      </g>
     </g>
     <g id="text_2">
      <!-- Mimalloc -->
      <g transform="translate(175.205644 341.060431)scale(0.18 -0.18)">
       <defs>
        <path d="M 46.796875 0 
L 67.296875 61.171875 
L 67.296875 0 
L 76.09375 0 
L 76.09375 73 
L 63.203125 73 
L 42 9.40625 
L 20.40625 73 
L 7.5 73 
L 7.5 0 
L 16.296875 0 
L 16.296875 61.171875 
L 37 0 
z
" id="Nimbus_Sans_L_Regular-77"/>
        <path d="M 7 52 
L 7 0 
L 15.40625 0 
L 15.40625 32.640625 
C 15.40625 40.578125 20.90625 46.6875 27.703125 46.6875 
C 33.90625 46.6875 37.40625 42.875 37.40625 36.171875 
L 37.40625 0 
L 45.796875 0 
L 45.796875 32.953125 
C 45.796875 40.578125 51.296875 46.6875 58.09375 46.6875 
C 64.203125 46.6875 67.796875 42.78125 67.796875 36.171875 
L 67.796875 0 
L 76.203125 0 
L 76.203125 39.375 
C 76.203125 48.796875 70.796875 54 61 54 
C 54 54 49.796875 51.890625 44.90625 45.984375 
C 41.796875 51.59375 37.59375 54 30.796875 54 
C 23.796875 54 19.203125 51.390625 14.703125 45.09375 
L 14.703125 52 
z
" id="Nimbus_Sans_L_Regular-109"/>
        <path d="M 15.203125 73 
L 6.796875 73 
L 6.796875 0 
L 15.203125 0 
z
" id="Nimbus_Sans_L_Regular-108"/>
        <path d="M 27.203125 54 
C 12.5 54 3.59375 43.5 3.59375 25.984375 
C 3.59375 8.484375 12.40625 -2 27.296875 -2 
C 42 -2 51 8.484375 51 25.59375 
C 51 43.609375 42.296875 54 27.203125 54 
z
M 27.296875 46.296875 
C 36.703125 46.296875 42.296875 38.625 42.296875 25.6875 
C 42.296875 13.453125 36.5 5.6875 27.296875 5.6875 
C 18 5.6875 12.296875 13.359375 12.296875 25.984375 
C 12.296875 38.53125 18 46.296875 27.296875 46.296875 
z
" id="Nimbus_Sans_L_Regular-111"/>
        <path d="M 47.09375 34.953125 
C 46.703125 40.015625 45.59375 43.296875 43.59375 46.1875 
C 40 51.09375 33.703125 54 26.40625 54 
C 12.296875 54 3.09375 42.8125 3.09375 25.5 
C 3.09375 8.671875 12.09375 -2 26.296875 -2 
C 38.796875 -2 46.703125 5.5 47.703125 18.234375 
L 39.296875 18.234375 
C 37.90625 9.875 33.59375 5.6875 26.5 5.6875 
C 17.296875 5.6875 11.796875 13.15625 11.796875 25.5 
C 11.796875 38.53125 17.203125 46.296875 26.296875 46.296875 
C 33.296875 46.296875 37.703125 42.203125 38.703125 34.953125 
z
" id="Nimbus_Sans_L_Regular-99"/>
       </defs>
       <use transform="scale(0.996264)" xlink:href="#Nimbus_Sans_L_Regular-77"/>
       <use transform="translate(82.98843 0)scale(0.996264)" xlink:href="#Nimbus_Sans_L_Regular-105"/>
       <use transform="translate(105.105215 0)scale(0.996264)" xlink:href="#Nimbus_Sans_L_Regular-109"/>
       <use transform="translate(188.093645 0)scale(0.996264)" xlink:href="#Nimbus_Sans_L_Regular-97"/>
       <use transform="translate(243.485322 0)scale(0.996264)" xlink:href="#Nimbus_Sans_L_Regular-108"/>
       <use transform="translate(265.602106 0)scale(0.996264)" xlink:href="#Nimbus_Sans_L_Regular-108"/>
       <use transform="translate(287.71889 0)scale(0.996264)" xlink:href="#Nimbus_Sans_L_Regular-111"/>
       <use transform="translate(343.110567 0)scale(0.996264)" xlink:href="#Nimbus_Sans_L_Regular-99"/>
      </g>
     </g>
    </g>
    <g id="xtick_3">
     <g id="line2d_5">
      <g>
       <use style="stroke:#000000;stroke-width:0.5;" x="310.657685" xlink:href="#md50e3f868c" y="324.283454"/>
      </g>
     </g>
     <g id="line2d_6">
      <g>
       <use style="stroke:#000000;stroke-width:0.5;" x="310.657685" xlink:href="#mf0f78f646c" y="15.12"/>
      </g>
     </g>
     <g id="text_3">
      <!-- Bootalloc -->
      <g transform="translate(273.779423 341.060431)scale(0.18 -0.18)">
       <defs>
        <path d="M 25.40625 52 
L 16.796875 52 
L 16.796875 66.390625 
L 8.5 66.390625 
L 8.5 52 
L 1.40625 52 
L 1.40625 45.1875 
L 8.5 45.1875 
L 8.5 6.28125 
C 8.5 1 12.09375 -2 18.59375 -2 
C 20.59375 -2 22.59375 -1.8125 25.40625 -1.3125 
L 25.40625 5.6875 
C 24.296875 5.390625 23 5.296875 21.40625 5.296875 
C 17.796875 5.296875 16.796875 6.28125 16.796875 9.90625 
L 16.796875 45.1875 
L 25.40625 45.1875 
z
" id="Nimbus_Sans_L_Regular-116"/>
       </defs>
       <use transform="scale(0.996264)" xlink:href="#Nimbus_Sans_L_Regular-66"/>
       <use transform="translate(66.450031 0)scale(0.996264)" xlink:href="#Nimbus_Sans_L_Regular-111"/>
       <use transform="translate(121.841708 0)scale(0.996264)" xlink:href="#Nimbus_Sans_L_Regular-111"/>
       <use transform="translate(177.233385 0)scale(0.996264)" xlink:href="#Nimbus_Sans_L_Regular-116"/>
       <use transform="translate(204.928555 0)scale(0.996264)" xlink:href="#Nimbus_Sans_L_Regular-97"/>
       <use transform="translate(260.320232 0)scale(0.996264)" xlink:href="#Nimbus_Sans_L_Regular-108"/>
       <use transform="translate(282.437016 0)scale(0.996264)" xlink:href="#Nimbus_Sans_L_Regular-108"/>
       <use transform="translate(304.5538 0)scale(0.996264)" xlink:href="#Nimbus_Sans_L_Regular-111"/>
       <use transform="translate(359.945477 0)scale(0.996264)" xlink:href="#Nimbus_Sans_L_Regular-99"/>
      </g>
     </g>
    </g>
    <g id="xtick_4">
     <g id="line2d_7">
      <g>
       <use style="stroke:#000000;stroke-width:0.5;" x="410.746611" xlink:href="#md50e3f868c" y="324.283454"/>
      </g>
     </g>
     <g id="line2d_8">
      <g>
       <use style="stroke:#000000;stroke-width:0.5;" x="410.746611" xlink:href="#mf0f78f646c" y="15.12"/>
      </g>
     </g>
     <g id="text_4">
      <!-- tinyalloc -->
      <g transform="translate(378.674096 341.060431)scale(0.18 -0.18)">
       <use transform="scale(0.996264)" xlink:href="#Nimbus_Sans_L_Regular-116"/>
       <use transform="translate(27.69517 0)scale(0.996264)" xlink:href="#Nimbus_Sans_L_Regular-105"/>
       <use transform="translate(49.811954 0)scale(0.996264)" xlink:href="#Nimbus_Sans_L_Regular-110"/>
       <use transform="translate(103.710238 0)scale(0.996264)" xlink:href="#Nimbus_Sans_L_Regular-121"/>
       <use transform="translate(151.531428 0)scale(0.996264)" xlink:href="#Nimbus_Sans_L_Regular-97"/>
       <use transform="translate(206.923105 0)scale(0.996264)" xlink:href="#Nimbus_Sans_L_Regular-108"/>
       <use transform="translate(229.039889 0)scale(0.996264)" xlink:href="#Nimbus_Sans_L_Regular-108"/>
       <use transform="translate(251.156673 0)scale(0.996264)" xlink:href="#Nimbus_Sans_L_Regular-111"/>
       <use transform="translate(306.54835 0)scale(0.996264)" xlink:href="#Nimbus_Sans_L_Regular-99"/>
      </g>
     </g>
    </g>
    <g id="xtick_5">
     <g id="line2d_9">
      <g>
       <use style="stroke:#000000;stroke-width:0.5;" x="510.835537" xlink:href="#md50e3f868c" y="324.283454"/>
      </g>
     </g>
     <g id="line2d_10">
      <g>
       <use style="stroke:#000000;stroke-width:0.5;" x="510.835537" xlink:href="#mf0f78f646c" y="15.12"/>
      </g>
     </g>
     <g id="text_5">
      <!-- TLSF -->
      <g transform="translate(488.912902 341.060431)scale(0.18 -0.18)">
       <defs>
        <path d="M 35.40625 64.796875 
L 59.296875 64.796875 
L 59.296875 73 
L 2.09375 73 
L 2.09375 64.796875 
L 26.09375 64.796875 
L 26.09375 0 
L 35.40625 0 
z
" id="Nimbus_Sans_L_Regular-84"/>
        <path d="M 17.296875 73 
L 8 73 
L 8 0 
L 53.296875 0 
L 53.296875 8.1875 
L 17.296875 8.1875 
z
" id="Nimbus_Sans_L_Regular-76"/>
        <path d="M 59.59375 51.484375 
C 59.5 65.6875 49.703125 74 32.90625 74 
C 16.90625 74 7 65.796875 7 52.6875 
C 7 43.84375 11.703125 38.28125 21.296875 35.796875 
L 39.40625 31.03125 
C 48.59375 28.640625 52.796875 24.96875 52.796875 19.3125 
C 52.796875 15.4375 50.703125 11.453125 47.59375 9.265625 
C 44.703125 7.28125 40.09375 6.1875 34.203125 6.1875 
C 26.296875 6.1875 20.90625 8.078125 17.40625 12.25 
C 14.703125 15.4375 13.5 18.90625 13.59375 23.375 
L 4.796875 23.375 
C 4.90625 16.71875 6.203125 12.34375 9.09375 8.375 
C 14.09375 1.59375 22.5 -2 33.59375 -2 
C 42.296875 -2 49.40625 0 54.09375 3.59375 
C 59 7.484375 62.09375 13.9375 62.09375 20.203125 
C 62.09375 29.140625 56.5 35.6875 46.59375 38.375 
L 28.296875 43.25 
C 19.5 45.625 16.296875 48.40625 16.296875 53.96875 
C 16.296875 61.328125 22.796875 66.1875 32.59375 66.1875 
C 44.203125 66.1875 50.703125 60.921875 50.796875 51.484375 
z
" id="Nimbus_Sans_L_Regular-83"/>
        <path d="M 18.296875 33 
L 53.09375 33 
L 53.09375 41.1875 
L 18.296875 41.1875 
L 18.296875 64.796875 
L 57.90625 64.796875 
L 57.90625 73 
L 9 73 
L 9 0 
L 18.296875 0 
z
" id="Nimbus_Sans_L_Regular-70"/>
       </defs>
       <use transform="scale(0.996264)" xlink:href="#Nimbus_Sans_L_Regular-84"/>
       <use transform="translate(60.871631 0)scale(0.996264)" xlink:href="#Nimbus_Sans_L_Regular-76"/>
       <use transform="translate(116.263308 0)scale(0.996264)" xlink:href="#Nimbus_Sans_L_Regular-83"/>
       <use transform="translate(182.713339 0)scale(0.996264)" xlink:href="#Nimbus_Sans_L_Regular-70"/>
      </g>
     </g>
    </g>
   </g>
   <g id="matplotlib.axis_2">
    <g id="ytick_1">
     <g id="line2d_11">
      <path clip-path="url(#pb7d0a48045)" d="M 60.435371 324.283454 
L 560.88 324.283454 
" style="fill:none;stroke:#000000;stroke-dasharray:1,3;stroke-dashoffset:0;stroke-opacity:0.5;stroke-width:0.5;"/>
     </g>
     <g id="line2d_12">
      <defs>
       <path d="M 0 0 
L 4 0 
" id="mcbd85e4eac" style="stroke:#000000;stroke-width:0.5;"/>
      </defs>
      <g>
       <use style="stroke:#000000;stroke-width:0.5;" x="60.435371" xlink:href="#mcbd85e4eac" y="324.283454"/>
      </g>
     </g>
     <g id="line2d_13">
      <defs>
       <path d="M 0 0 
L -4 0 
" id="m2997e5edad" style="stroke:#000000;stroke-width:0.5;"/>
      </defs>
      <g>
       <use style="stroke:#000000;stroke-width:0.5;" x="560.88" xlink:href="#m2997e5edad" y="324.283454"/>
      </g>
     </g>
     <g id="text_6">
      <!-- 0.0 -->
      <g transform="translate(37.048401 327.766889)scale(0.14 -0.14)">
       <defs>
        <path d="M 27.5 71 
C 20.90625 71 14.90625 68.09375 11.203125 63.1875 
C 6.59375 57.015625 4.296875 47.546875 4.296875 34.484375 
C 4.296875 10.671875 12.296875 -2 27.5 -2 
C 42.5 -2 50.703125 10.671875 50.703125 33.890625 
C 50.703125 47.640625 48.5 56.8125 43.796875 63.1875 
C 40.09375 68.1875 34.203125 71 27.5 71 
z
M 27.5 63.1875 
C 37 63.1875 41.703125 53.625 41.703125 34.6875 
C 41.703125 14.65625 37.09375 5.296875 27.296875 5.296875 
C 18 5.296875 13.296875 15.0625 13.296875 34.390625 
C 13.296875 53.71875 18 63.1875 27.5 63.1875 
z
" id="Nimbus_Sans_L_Regular-48"/>
        <path d="M 19.09375 10.390625 
L 8.703125 10.390625 
L 8.703125 0 
L 19.09375 0 
z
" id="Nimbus_Sans_L_Regular-46"/>
       </defs>
       <use transform="scale(0.996264)" xlink:href="#Nimbus_Sans_L_Regular-48"/>
       <use transform="translate(55.391677 0)scale(0.996264)" xlink:href="#Nimbus_Sans_L_Regular-46"/>
       <use transform="translate(83.086847 0)scale(0.996264)" xlink:href="#Nimbus_Sans_L_Regular-48"/>
      </g>
     </g>
    </g>
    <g id="ytick_2">
     <g id="line2d_14">
      <path clip-path="url(#pb7d0a48045)" d="M 60.435371 284.879496 
L 560.88 284.879496 
" style="fill:none;stroke:#000000;stroke-dasharray:1,3;stroke-dashoffset:0;stroke-opacity:0.5;stroke-width:0.5;"/>
     </g>
     <g id="line2d_15">
      <g>
       <use style="stroke:#000000;stroke-width:0.5;" x="60.435371" xlink:href="#mcbd85e4eac" y="284.879496"/>
      </g>
     </g>
     <g id="line2d_16">
      <g>
       <use style="stroke:#000000;stroke-width:0.5;" x="560.88" xlink:href="#m2997e5edad" y="284.879496"/>
      </g>
     </g>
     <g id="text_7">
      <!-- 0.5 -->
      <g transform="translate(37.048401 288.362931)scale(0.14 -0.14)">
       <defs>
        <path d="M 47.59375 71 
L 11 71 
L 5.703125 32.4375 
L 13.796875 32.4375 
C 17.90625 37.296875 21.296875 39 26.796875 39 
C 36.296875 39 42.296875 32.53125 42.296875 22.09375 
C 42.296875 11.953125 36.40625 5.796875 26.796875 5.796875 
C 19.09375 5.796875 14.40625 9.671875 12.296875 17.625 
L 3.5 17.625 
C 4.703125 11.859375 5.703125 9.078125 7.796875 6.484375 
C 11.796875 1.09375 19 -2 27 -2 
C 41.296875 -2 51.296875 8.375 51.296875 23.28125 
C 51.296875 37.203125 42 46.796875 28.40625 46.796875 
C 23.40625 46.796875 19.40625 45.5 15.296875 42.5 
L 18.09375 62.296875 
L 47.59375 62.296875 
z
" id="Nimbus_Sans_L_Regular-53"/>
       </defs>
       <use transform="scale(0.996264)" xlink:href="#Nimbus_Sans_L_Regular-48"/>
       <use transform="translate(55.391677 0)scale(0.996264)" xlink:href="#Nimbus_Sans_L_Regular-46"/>
       <use transform="translate(83.086847 0)scale(0.996264)" xlink:href="#Nimbus_Sans_L_Regular-53"/>
      </g>
     </g>
    </g>
    <g id="ytick_3">
     <g id="line2d_17">
      <path clip-path="url(#pb7d0a48045)" d="M 60.435371 245.475538 
L 560.88 245.475538 
" style="fill:none;stroke:#000000;stroke-dasharray:1,3;stroke-dashoffset:0;stroke-opacity:0.5;stroke-width:0.5;"/>
     </g>
     <g id="line2d_18">
      <g>
       <use style="stroke:#000000;stroke-width:0.5;" x="60.435371" xlink:href="#mcbd85e4eac" y="245.475538"/>
      </g>
     </g>
     <g id="line2d_19">
      <g>
       <use style="stroke:#000000;stroke-width:0.5;" x="560.88" xlink:href="#m2997e5edad" y="245.475538"/>
      </g>
     </g>
     <g id="text_8">
      <!-- 1.0 -->
      <g transform="translate(37.048401 248.958973)scale(0.14 -0.14)">
       <defs>
        <path d="M 25.90625 50.5 
L 25.90625 0 
L 34.703125 0 
L 34.703125 70.890625 
L 28.90625 70.890625 
C 25.796875 60 23.796875 58.5 10.203125 56.796875 
L 10.203125 50.5 
z
" id="Nimbus_Sans_L_Regular-49"/>
       </defs>
       <use transform="scale(0.996264)" xlink:href="#Nimbus_Sans_L_Regular-49"/>
       <use transform="translate(55.391677 0)scale(0.996264)" xlink:href="#Nimbus_Sans_L_Regular-46"/>
       <use transform="translate(83.086847 0)scale(0.996264)" xlink:href="#Nimbus_Sans_L_Regular-48"/>
      </g>
     </g>
    </g>
    <g id="ytick_4">
     <g id="line2d_20">
      <path clip-path="url(#pb7d0a48045)" d="M 60.435371 206.07158 
L 560.88 206.07158 
" style="fill:none;stroke:#000000;stroke-dasharray:1,3;stroke-dashoffset:0;stroke-opacity:0.5;stroke-width:0.5;"/>
     </g>
     <g id="line2d_21">
      <g>
       <use style="stroke:#000000;stroke-width:0.5;" x="60.435371" xlink:href="#mcbd85e4eac" y="206.07158"/>
      </g>
     </g>
     <g id="line2d_22">
      <g>
       <use style="stroke:#000000;stroke-width:0.5;" x="560.88" xlink:href="#m2997e5edad" y="206.07158"/>
      </g>
     </g>
     <g id="text_9">
      <!-- 1.5 -->
      <g transform="translate(37.048401 209.555015)scale(0.14 -0.14)">
       <use transform="scale(0.996264)" xlink:href="#Nimbus_Sans_L_Regular-49"/>
       <use transform="translate(55.391677 0)scale(0.996264)" xlink:href="#Nimbus_Sans_L_Regular-46"/>
       <use transform="translate(83.086847 0)scale(0.996264)" xlink:href="#Nimbus_Sans_L_Regular-53"/>
      </g>
     </g>
    </g>
    <g id="ytick_5">
     <g id="line2d_23">
      <path clip-path="url(#pb7d0a48045)" d="M 60.435371 166.667622 
L 560.88 166.667622 
" style="fill:none;stroke:#000000;stroke-dasharray:1,3;stroke-dashoffset:0;stroke-opacity:0.5;stroke-width:0.5;"/>
     </g>
     <g id="line2d_24">
      <g>
       <use style="stroke:#000000;stroke-width:0.5;" x="60.435371" xlink:href="#mcbd85e4eac" y="166.667622"/>
      </g>
     </g>
     <g id="line2d_25">
      <g>
       <use style="stroke:#000000;stroke-width:0.5;" x="560.88" xlink:href="#m2997e5edad" y="166.667622"/>
      </g>
     </g>
     <g id="text_10">
      <!-- 2.0 -->
      <g transform="translate(37.048401 170.151058)scale(0.14 -0.14)">
       <defs>
        <path d="M 50.59375 8.6875 
L 13.296875 8.6875 
C 14.203125 14.5 17.40625 18.203125 26.09375 23.328125 
L 36.09375 28.734375 
C 46 34.140625 51.09375 41.453125 51.09375 50.171875 
C 51.09375 56.078125 48.703125 61.59375 44.5 65.390625 
C 40.296875 69.1875 35.09375 71 28.40625 71 
C 19.40625 71 12.703125 67.796875 8.796875 61.796875 
C 6.296875 57.984375 5.203125 53.578125 5 46.359375 
L 13.796875 46.359375 
C 14.09375 51.171875 14.703125 54.078125 15.90625 56.375 
C 18.203125 60.6875 22.796875 63.296875 28.09375 63.296875 
C 36.09375 63.296875 42.09375 57.578125 42.09375 49.96875 
C 42.09375 44.359375 38.796875 39.546875 32.5 35.9375 
L 23.296875 30.734375 
C 8.5 22.3125 4.203125 15.609375 3.40625 0 
L 50.59375 0 
z
" id="Nimbus_Sans_L_Regular-50"/>
       </defs>
       <use transform="scale(0.996264)" xlink:href="#Nimbus_Sans_L_Regular-50"/>
       <use transform="translate(55.391677 0)scale(0.996264)" xlink:href="#Nimbus_Sans_L_Regular-46"/>
       <use transform="translate(83.086847 0)scale(0.996264)" xlink:href="#Nimbus_Sans_L_Regular-48"/>
      </g>
     </g>
    </g>
    <g id="ytick_6">
     <g id="line2d_26">
      <path clip-path="url(#pb7d0a48045)" d="M 60.435371 127.263664 
L 560.88 127.263664 
" style="fill:none;stroke:#000000;stroke-dasharray:1,3;stroke-dashoffset:0;stroke-opacity:0.5;stroke-width:0.5;"/>
     </g>
     <g id="line2d_27">
      <g>
       <use style="stroke:#000000;stroke-width:0.5;" x="60.435371" xlink:href="#mcbd85e4eac" y="127.263664"/>
      </g>
     </g>
     <g id="line2d_28">
      <g>
       <use style="stroke:#000000;stroke-width:0.5;" x="560.88" xlink:href="#m2997e5edad" y="127.263664"/>
      </g>
     </g>
     <g id="text_11">
      <!-- 2.5 -->
      <g transform="translate(37.048401 130.7471)scale(0.14 -0.14)">
       <use transform="scale(0.996264)" xlink:href="#Nimbus_Sans_L_Regular-50"/>
       <use transform="translate(55.391677 0)scale(0.996264)" xlink:href="#Nimbus_Sans_L_Regular-46"/>
       <use transform="translate(83.086847 0)scale(0.996264)" xlink:href="#Nimbus_Sans_L_Regular-53"/>
      </g>
     </g>
    </g>
    <g id="ytick_7">
     <g id="line2d_29">
      <path clip-path="url(#pb7d0a48045)" d="M 60.435371 87.859706 
L 560.88 87.859706 
" style="fill:none;stroke:#000000;stroke-dasharray:1,3;stroke-dashoffset:0;stroke-opacity:0.5;stroke-width:0.5;"/>
     </g>
     <g id="line2d_30">
      <g>
       <use style="stroke:#000000;stroke-width:0.5;" x="60.435371" xlink:href="#mcbd85e4eac" y="87.859706"/>
      </g>
     </g>
     <g id="line2d_31">
      <g>
       <use style="stroke:#000000;stroke-width:0.5;" x="560.88" xlink:href="#m2997e5edad" y="87.859706"/>
      </g>
     </g>
     <g id="text_12">
      <!-- 3.0 -->
      <g transform="translate(37.048401 91.343142)scale(0.14 -0.14)">
       <defs>
        <path d="M 22.09375 32.703125 
L 23.203125 32.703125 
L 26.90625 32.796875 
C 36.59375 32.796875 41.59375 28.421875 41.59375 19.9375 
C 41.59375 11.078125 36.09375 5.796875 26.90625 5.796875 
C 17.296875 5.796875 12.59375 10.578125 12 20.84375 
L 3.203125 20.84375 
C 3.59375 15.15625 4.59375 11.46875 6.296875 8.28125 
C 9.90625 1.5 16.90625 -2 26.59375 -2 
C 41.203125 -2 50.59375 6.6875 50.59375 20.046875 
C 50.59375 29.015625 47.09375 34 38.59375 36.890625 
C 45.203125 39.46875 48.5 44.453125 48.5 51.53125 
C 48.5 63.6875 40.40625 71 26.90625 71 
C 12.59375 71 5 63.1875 4.703125 48.140625 
L 13.5 48.140625 
C 13.59375 52.4375 14 54.828125 15.09375 57.015625 
C 17.09375 60.90625 21.5 63.296875 27 63.296875 
C 34.796875 63.296875 39.5 58.703125 39.5 51.234375 
C 39.5 46.25 37.703125 43.265625 33.796875 41.671875 
C 31.40625 40.671875 28.296875 40.265625 22.09375 40.171875 
z
" id="Nimbus_Sans_L_Regular-51"/>
       </defs>
       <use transform="scale(0.996264)" xlink:href="#Nimbus_Sans_L_Regular-51"/>
       <use transform="translate(55.391677 0)scale(0.996264)" xlink:href="#Nimbus_Sans_L_Regular-46"/>
       <use transform="translate(83.086847 0)scale(0.996264)" xlink:href="#Nimbus_Sans_L_Regular-48"/>
      </g>
     </g>
    </g>
    <g id="ytick_8">
     <g id="line2d_32">
      <path clip-path="url(#pb7d0a48045)" d="M 60.435371 48.455748 
L 560.88 48.455748 
" style="fill:none;stroke:#000000;stroke-dasharray:1,3;stroke-dashoffset:0;stroke-opacity:0.5;stroke-width:0.5;"/>
     </g>
     <g id="line2d_33">
      <g>
       <use style="stroke:#000000;stroke-width:0.5;" x="60.435371" xlink:href="#mcbd85e4eac" y="48.455748"/>
      </g>
     </g>
     <g id="line2d_34">
      <g>
       <use style="stroke:#000000;stroke-width:0.5;" x="560.88" xlink:href="#m2997e5edad" y="48.455748"/>
      </g>
     </g>
     <g id="text_13">
      <!-- 3.5 -->
      <g transform="translate(37.048401 51.939184)scale(0.14 -0.14)">
       <use transform="scale(0.996264)" xlink:href="#Nimbus_Sans_L_Regular-51"/>
       <use transform="translate(55.391677 0)scale(0.996264)" xlink:href="#Nimbus_Sans_L_Regular-46"/>
       <use transform="translate(83.086847 0)scale(0.996264)" xlink:href="#Nimbus_Sans_L_Regular-53"/>
      </g>
     </g>
    </g>
    <g id="text_14">
     <!-- Total Boot Time (ms) -->
     <g transform="translate(28.228831 252.325885)rotate(-90)scale(0.18 -0.18)">
      <defs>
       <path d="M 51.296875 23.1875 
C 51.296875 31.21875 50.703125 36.109375 49.203125 40.078125 
C 45.796875 48.796875 37.796875 54 28 54 
C 13.40625 54 4 42.71875 4 25.296875 
C 4 8.515625 13.09375 -2 27.796875 -2 
C 39.796875 -2 48.09375 4.796875 50.203125 15.90625 
L 41.796875 15.90625 
C 39.5 9.1875 34.796875 5.6875 28.09375 5.6875 
C 22.796875 5.6875 18.296875 8.03125 15.5 12.296875 
C 13.5 15.21875 12.796875 18.140625 12.703125 23.1875 
z
M 12.90625 30 
C 13.59375 39.875 19.5 46.296875 27.90625 46.296875 
C 36.09375 46.296875 42.40625 39.359375 42.40625 30.609375 
C 42.40625 30.40625 42.40625 30.203125 42.296875 30 
z
" id="Nimbus_Sans_L_Regular-101"/>
       <path d="M 23.59375 73 
C 13.59375 59.890625 7.296875 41.6875 7.296875 25.984375 
C 7.296875 10.1875 13.59375 -8.015625 23.59375 -21.109375 
L 29.09375 -21.109375 
C 20.296875 -6.8125 15.40625 9.984375 15.40625 25.984375 
C 15.40625 41.890625 20.296875 58.796875 29.09375 73 
z
" id="Nimbus_Sans_L_Regular-40"/>
       <path d="M 43.796875 37.9375 
C 43.703125 48.1875 36.90625 54 24.796875 54 
C 12.59375 54 4.703125 47.6875 4.703125 38.03125 
C 4.703125 29.875 8.90625 25.984375 21.296875 23 
L 29.09375 21.109375 
C 34.90625 19.71875 37.203125 17.640625 37.203125 13.859375 
C 37.203125 8.96875 32.296875 5.6875 25 5.6875 
C 20.5 5.6875 16.703125 6.984375 14.59375 9.171875 
C 13.296875 10.671875 12.703125 12.15625 12.203125 15.84375 
L 3.40625 15.84375 
C 3.796875 3.796875 10.59375 -2 24.296875 -2 
C 37.5 -2 45.90625 4.5 45.90625 14.546875 
C 45.90625 22.3125 41.5 26.59375 31.09375 29.078125 
L 23.09375 30.96875 
C 16.296875 32.5625 13.40625 34.75 13.40625 38.421875 
C 13.40625 43.203125 17.703125 46.296875 24.5 46.296875 
C 31.203125 46.296875 34.796875 43.40625 35 37.9375 
z
" id="Nimbus_Sans_L_Regular-115"/>
       <path d="M 9.296875 -21.109375 
C 19.296875 -8.015625 25.59375 10.1875 25.59375 25.890625 
C 25.59375 41.6875 19.296875 59.890625 9.296875 73 
L 3.796875 73 
C 12.59375 58.6875 17.5 41.890625 17.5 25.890625 
C 17.5 9.984375 12.59375 -6.90625 3.796875 -21.109375 
z
" id="Nimbus_Sans_L_Regular-41"/>
      </defs>
      <use transform="scale(0.996264)" xlink:href="#Nimbus_Sans_L_Regular-84"/>
      <use transform="translate(48.916949 0)scale(0.996264)" xlink:href="#Nimbus_Sans_L_Regular-111"/>
      <use transform="translate(104.308626 0)scale(0.996264)" xlink:href="#Nimbus_Sans_L_Regular-116"/>
      <use transform="translate(132.003796 0)scale(0.996264)" xlink:href="#Nimbus_Sans_L_Regular-97"/>
      <use transform="translate(187.395473 0)scale(0.996264)" xlink:href="#Nimbus_Sans_L_Regular-108"/>
      <use transform="translate(237.207426 0)scale(0.996264)" xlink:href="#Nimbus_Sans_L_Regular-66"/>
      <use transform="translate(303.657458 0)scale(0.996264)" xlink:href="#Nimbus_Sans_L_Regular-111"/>
      <use transform="translate(359.049135 0)scale(0.996264)" xlink:href="#Nimbus_Sans_L_Regular-111"/>
      <use transform="translate(414.440812 0)scale(0.996264)" xlink:href="#Nimbus_Sans_L_Regular-116"/>
      <use transform="translate(469.831151 0)scale(0.996264)" xlink:href="#Nimbus_Sans_L_Regular-84"/>
      <use transform="translate(530.702781 0)scale(0.996264)" xlink:href="#Nimbus_Sans_L_Regular-105"/>
      <use transform="translate(552.819566 0)scale(0.996264)" xlink:href="#Nimbus_Sans_L_Regular-109"/>
      <use transform="translate(635.807996 0)scale(0.996264)" xlink:href="#Nimbus_Sans_L_Regular-101"/>
      <use transform="translate(718.894843 0)scale(0.996264)" xlink:href="#Nimbus_Sans_L_Regular-40"/>
      <use transform="translate(752.070072 0)scale(0.996264)" xlink:href="#Nimbus_Sans_L_Regular-109"/>
      <use transform="translate(835.058503 0)scale(0.996264)" xlink:href="#Nimbus_Sans_L_Regular-115"/>
      <use transform="translate(884.871703 0)scale(0.996264)" xlink:href="#Nimbus_Sans_L_Regular-41"/>
     </g>
    </g>
   </g>
   <g id="text_15">
    <g id="patch_7">
     <path d="M 118.238107 74.255718 
L 118.238107 40.439099 
L 102.721561 40.439099 
L 102.721561 74.255718 
z
" style="fill:#ffffff;"/>
    </g>
    <!-- 3.07 -->
    <g transform="translate(114.958537 74.795718)rotate(-90)scale(0.18 -0.18)">
     <defs>
      <path d="M 52 71 
L 4.59375 71 
L 4.59375 62.296875 
L 42.90625 62.296875 
C 26 38.15625 19.09375 23.328125 13.796875 0 
L 23.203125 0 
C 27.09375 22.71875 36 42.25 52 63.59375 
z
" id="Nimbus_Sans_L_Regular-55"/>
     </defs>
     <use transform="scale(0.996264)" xlink:href="#Nimbus_Sans_L_Regular-51"/>
     <use transform="translate(55.391677 0)scale(0.996264)" xlink:href="#Nimbus_Sans_L_Regular-46"/>
     <use transform="translate(83.086847 0)scale(0.996264)" xlink:href="#Nimbus_Sans_L_Regular-48"/>
     <use transform="translate(138.478524 0)scale(0.996264)" xlink:href="#Nimbus_Sans_L_Regular-55"/>
    </g>
   </g>
   <g id="text_16">
    <g id="patch_8">
     <path d="M 218.327032 241.729632 
L 218.327032 207.913013 
L 202.810487 207.913013 
L 202.810487 241.729632 
z
" style="fill:#ffffff;"/>
    </g>
    <!-- 0.94 -->
    <g transform="translate(215.047463 242.269632)rotate(-90)scale(0.18 -0.18)">
     <defs>
      <path d="M 5.296875 16.609375 
C 7 4.890625 14.59375 -2 25.40625 -2 
C 33.203125 -2 40.296875 1.796875 44.40625 8.109375 
C 48.90625 15.09375 50.90625 23.875 50.90625 36.734375 
C 50.90625 48.484375 49.09375 55.984375 44.90625 62.203125 
C 41 67.890625 34.796875 71 27 71 
C 13.5 71 3.796875 61.03125 3.796875 47.296875 
C 3.796875 34.265625 12.796875 25 25.59375 25 
C 32.296875 25 37.203125 27.390625 41.796875 32.890625 
C 41.703125 15.5 36.09375 5.796875 26 5.796875 
C 19.796875 5.796875 15.5 9.734375 14.09375 16.609375 
z
M 26.90625 63.296875 
C 35.09375 63.296875 41.296875 56.578125 41.296875 47.5 
C 41.296875 38.90625 35.203125 32.796875 26.59375 32.796875 
C 18.09375 32.796875 12.796875 38.609375 12.796875 48 
C 12.796875 56.875 18.796875 63.296875 26.90625 63.296875 
z
" id="Nimbus_Sans_L_Regular-57"/>
      <path d="M 32.703125 17 
L 32.703125 0 
L 41.5 0 
L 41.5 17 
L 52 17 
L 52 24.890625 
L 41.5 24.890625 
L 41.5 70.890625 
L 35 70.890625 
L 2.796875 26.296875 
L 2.796875 17 
z
M 32.703125 24.890625 
L 10.5 24.890625 
L 32.703125 55.890625 
z
" id="Nimbus_Sans_L_Regular-52"/>
     </defs>
     <use transform="scale(0.996264)" xlink:href="#Nimbus_Sans_L_Regular-48"/>
     <use transform="translate(55.391677 0)scale(0.996264)" xlink:href="#Nimbus_Sans_L_Regular-46"/>
     <use transform="translate(83.086847 0)scale(0.996264)" xlink:href="#Nimbus_Sans_L_Regular-57"/>
     <use transform="translate(138.478524 0)scale(0.996264)" xlink:href="#Nimbus_Sans_L_Regular-52"/>
    </g>
   </g>
   <g id="text_17">
    <g id="patch_9">
     <path d="M 318.415958 277.422525 
L 318.415958 243.605907 
L 302.899412 243.605907 
L 302.899412 277.422525 
z
" style="fill:#ffffff;"/>
    </g>
    <!-- 0.49 -->
    <g transform="translate(315.136389 277.962525)rotate(-90)scale(0.18 -0.18)">
     <use transform="scale(0.996264)" xlink:href="#Nimbus_Sans_L_Regular-48"/>
     <use transform="translate(55.391677 0)scale(0.996264)" xlink:href="#Nimbus_Sans_L_Regular-46"/>
     <use transform="translate(83.086847 0)scale(0.996264)" xlink:href="#Nimbus_Sans_L_Regular-52"/>
     <use transform="translate(138.478524 0)scale(0.996264)" xlink:href="#Nimbus_Sans_L_Regular-57"/>
    </g>
   </g>
   <g id="text_18">
    <g id="patch_10">
     <path d="M 418.504884 247.0271 
L 418.504884 213.210482 
L 402.988338 213.210482 
L 402.988338 247.0271 
z
" style="fill:#ffffff;"/>
    </g>
    <!-- 0.87 -->
    <g transform="translate(415.225315 247.5671)rotate(-90)scale(0.18 -0.18)">
     <defs>
      <path d="M 39.09375 37.484375 
C 46.40625 41.890625 48.796875 45.46875 48.796875 52.140625 
C 48.796875 63.1875 40.09375 71 27.5 71 
C 15 71 6.203125 63.1875 6.203125 52.140625 
C 6.203125 45.578125 8.59375 41.984375 15.796875 37.484375 
C 7.703125 33.59375 3.703125 27.71875 3.703125 19.9375 
C 3.703125 6.984375 13.5 -2 27.5 -2 
C 41.5 -2 51.296875 6.984375 51.296875 19.84375 
C 51.296875 27.71875 47.296875 33.59375 39.09375 37.484375 
z
M 27.5 63.1875 
C 35 63.1875 39.796875 58.8125 39.796875 51.9375 
C 39.796875 45.375 34.90625 41 27.5 41 
C 20.09375 41 15.203125 45.375 15.203125 52.046875 
C 15.203125 58.8125 20.09375 63.1875 27.5 63.1875 
z
M 27.5 33.59375 
C 36.296875 33.59375 42.296875 28.015625 42.296875 19.75 
C 42.296875 11.375 36.296875 5.796875 27.296875 5.796875 
C 18.703125 5.796875 12.703125 11.46875 12.703125 19.75 
C 12.703125 28.015625 18.703125 33.59375 27.5 33.59375 
z
" id="Nimbus_Sans_L_Regular-56"/>
     </defs>
     <use transform="scale(0.996264)" xlink:href="#Nimbus_Sans_L_Regular-48"/>
     <use transform="translate(55.391677 0)scale(0.996264)" xlink:href="#Nimbus_Sans_L_Regular-46"/>
     <use transform="translate(83.086847 0)scale(0.996264)" xlink:href="#Nimbus_Sans_L_Regular-56"/>
     <use transform="translate(138.478524 0)scale(0.996264)" xlink:href="#Nimbus_Sans_L_Regular-55"/>
    </g>
   </g>
   <g id="text_19">
    <g id="patch_11">
     <path d="M 518.59381 275.865281 
L 518.59381 242.048662 
L 503.077264 242.048662 
L 503.077264 275.865281 
z
" style="fill:#ffffff;"/>
    </g>
    <!-- 0.51 -->
    <g transform="translate(515.314241 276.405281)rotate(-90)scale(0.18 -0.18)">
     <use transform="scale(0.996264)" xlink:href="#Nimbus_Sans_L_Regular-48"/>
     <use transform="translate(55.391677 0)scale(0.996264)" xlink:href="#Nimbus_Sans_L_Regular-46"/>
     <use transform="translate(83.086847 0)scale(0.996264)" xlink:href="#Nimbus_Sans_L_Regular-53"/>
     <use transform="translate(138.478524 0)scale(0.996264)" xlink:href="#Nimbus_Sans_L_Regular-49"/>
    </g>
   </g>
   <g id="legend_1">
    <g id="patch_12">
     <path d="M 193.038292 109.010271 
L 551.88 109.010271 
L 551.88 24.12 
L 193.038292 24.12 
z
" style="fill:#ffffff;"/>
    </g>
    <g id="patch_13">
     <path d="M 200.238292 44.997187 
L 236.238292 44.997187 
L 236.238292 32.397187 
L 200.238292 32.397187 
z
" style="fill:#ddcae3;stroke:#000000;stroke-linejoin:miter;stroke-width:0.5;"/>
    </g>
    <g id="text_20">
     <!-- virtio -->
     <g transform="translate(250.638292 44.997187)scale(0.18 -0.18)">
      <defs>
       <path d="M 28.5 0 
L 48.59375 52 
L 39.203125 52 
L 24.40625 9.828125 
L 10.40625 52 
L 1 52 
L 19.40625 0 
z
" id="Nimbus_Sans_L_Regular-118"/>
      </defs>
      <use transform="scale(0.996264)" xlink:href="#Nimbus_Sans_L_Regular-118"/>
      <use transform="translate(49.8132 0)scale(0.996264)" xlink:href="#Nimbus_Sans_L_Regular-105"/>
      <use transform="translate(71.929985 0)scale(0.996264)" xlink:href="#Nimbus_Sans_L_Regular-114"/>
      <use transform="translate(109.089313 0)scale(0.996264)" xlink:href="#Nimbus_Sans_L_Regular-116"/>
      <use transform="translate(136.784483 0)scale(0.996264)" xlink:href="#Nimbus_Sans_L_Regular-105"/>
      <use transform="translate(158.901267 0)scale(0.996264)" xlink:href="#Nimbus_Sans_L_Regular-111"/>
     </g>
    </g>
    <g id="patch_14">
     <path d="M 200.238292 71.493944 
L 236.238292 71.493944 
L 236.238292 58.893944 
L 200.238292 58.893944 
z
" style="fill:#a2d9d1;stroke:#000000;stroke-linejoin:miter;stroke-width:0.5;"/>
    </g>
    <g id="text_21">
     <!-- vfscore -->
     <g transform="translate(250.638292 71.493944)scale(0.18 -0.18)">
      <defs>
       <path d="M 25.796875 52 
L 17.09375 52 
L 17.09375 60.3125 
C 17.09375 63.859375 19.09375 65.6875 22.90625 65.6875 
C 23.59375 65.6875 23.90625 65.6875 25.796875 65.59375 
L 25.796875 72.484375 
C 23.90625 72.890625 22.796875 73 21.09375 73 
C 13.40625 73 8.796875 68.59375 8.796875 61.015625 
L 8.796875 52 
L 1.796875 52 
L 1.796875 45.1875 
L 8.796875 45.1875 
L 8.796875 0 
L 17.09375 0 
L 17.09375 45.1875 
L 25.796875 45.1875 
z
" id="Nimbus_Sans_L_Regular-102"/>
      </defs>
      <use transform="scale(0.996264)" xlink:href="#Nimbus_Sans_L_Regular-118"/>
      <use transform="translate(49.8132 0)scale(0.996264)" xlink:href="#Nimbus_Sans_L_Regular-102"/>
      <use transform="translate(77.50837 0)scale(0.996264)" xlink:href="#Nimbus_Sans_L_Regular-115"/>
      <use transform="translate(127.321571 0)scale(0.996264)" xlink:href="#Nimbus_Sans_L_Regular-99"/>
      <use transform="translate(177.134771 0)scale(0.996264)" xlink:href="#Nimbus_Sans_L_Regular-111"/>
      <use transform="translate(232.526448 0)scale(0.996264)" xlink:href="#Nimbus_Sans_L_Regular-114"/>
      <use transform="translate(265.701678 0)scale(0.996264)" xlink:href="#Nimbus_Sans_L_Regular-101"/>
     </g>
    </g>
    <g id="patch_15">
     <path d="M 200.238292 97.990701 
L 236.238292 97.990701 
L 236.238292 85.390701 
L 200.238292 85.390701 
z
" style="fill:#fff3cd;stroke:#000000;stroke-linejoin:miter;stroke-width:0.5;"/>
    </g>
    <g id="text_22">
     <!-- ukbus -->
     <g transform="translate(250.638292 97.990701)scale(0.18 -0.18)">
      <defs>
       <path d="M 14.09375 73 
L 5.796875 73 
L 5.796875 0 
L 14.09375 0 
L 14.09375 20.421875 
L 22.203125 28.4375 
L 39.90625 0 
L 50.203125 0 
L 28.796875 34.34375 
L 47 52.46875 
L 36.296875 52.46875 
L 14.09375 30.234375 
z
" id="Nimbus_Sans_L_Regular-107"/>
      </defs>
      <use transform="scale(0.996264)" xlink:href="#Nimbus_Sans_L_Regular-117"/>
      <use transform="translate(55.391677 0)scale(0.996264)" xlink:href="#Nimbus_Sans_L_Regular-107"/>
      <use transform="translate(105.204877 0)scale(0.996264)" xlink:href="#Nimbus_Sans_L_Regular-98"/>
      <use transform="translate(158.604543 0)scale(0.996264)" xlink:href="#Nimbus_Sans_L_Regular-117"/>
      <use transform="translate(213.99622 0)scale(0.996264)" xlink:href="#Nimbus_Sans_L_Regular-115"/>
     </g>
    </g>
    <g id="patch_16">
     <path d="M 322.835073 44.997187 
L 358.835073 44.997187 
L 358.835073 32.397187 
L 322.835073 32.397187 
z
" style="fill:#49687c;stroke:#000000;stroke-linejoin:miter;stroke-width:0.5;"/>
    </g>
    <g id="text_23">
     <!-- rootfs -->
     <g transform="translate(373.235073 44.997187)scale(0.18 -0.18)">
      <use transform="scale(0.996264)" xlink:href="#Nimbus_Sans_L_Regular-114"/>
      <use transform="translate(33.17523 0)scale(0.996264)" xlink:href="#Nimbus_Sans_L_Regular-111"/>
      <use transform="translate(88.566907 0)scale(0.996264)" xlink:href="#Nimbus_Sans_L_Regular-111"/>
      <use transform="translate(143.958584 0)scale(0.996264)" xlink:href="#Nimbus_Sans_L_Regular-116"/>
      <use transform="translate(171.653753 0)scale(0.996264)" xlink:href="#Nimbus_Sans_L_Regular-102"/>
      <use transform="translate(199.348923 0)scale(0.996264)" xlink:href="#Nimbus_Sans_L_Regular-115"/>
     </g>
    </g>
    <g id="patch_17">
     <path d="M 322.835073 71.493944 
L 358.835073 71.493944 
L 358.835073 58.893944 
L 322.835073 58.893944 
z
" style="fill:#91c6e7;stroke:#000000;stroke-linejoin:miter;stroke-width:0.5;"/>
    </g>
    <g id="text_24">
     <!-- pthreads -->
     <g transform="translate(373.235073 71.493944)scale(0.18 -0.18)">
      <defs>
       <path d="M 5.40625 -22 
L 13.796875 -22 
L 13.796875 5.796875 
C 18.203125 0.390625 23.09375 -2 29.90625 -2 
C 43.40625 -2 52.296875 8.875 52.296875 25.5 
C 52.296875 43 43.703125 54 29.796875 54 
C 22.703125 54 17 50.796875 13.09375 44.59375 
L 13.09375 52.484375 
L 5.40625 52.484375 
z
M 28.40625 46.1875 
C 37.59375 46.1875 43.59375 38.125 43.59375 25.6875 
C 43.59375 13.859375 37.5 5.796875 28.40625 5.796875 
C 19.59375 5.796875 13.796875 13.75 13.796875 25.984375 
C 13.796875 38.234375 19.59375 46.1875 28.40625 46.1875 
z
" id="Nimbus_Sans_L_Regular-112"/>
       <path d="M 7 73 
L 7 0 
L 15.296875 0 
L 15.296875 28.953125 
C 15.296875 39.671875 20.90625 46.6875 29.5 46.6875 
C 32.203125 46.6875 34.90625 45.78125 36.90625 44.28125 
C 39.296875 42.578125 40.296875 40.078125 40.296875 36.375 
L 40.296875 0 
L 48.59375 0 
L 48.59375 39.671875 
C 48.59375 48.484375 42.296875 54 32.09375 54 
C 24.703125 54 20.203125 51.6875 15.296875 45.28125 
L 15.296875 73 
z
" id="Nimbus_Sans_L_Regular-104"/>
      </defs>
      <use transform="scale(0.996264)" xlink:href="#Nimbus_Sans_L_Regular-112"/>
      <use transform="translate(55.391677 0)scale(0.996264)" xlink:href="#Nimbus_Sans_L_Regular-116"/>
      <use transform="translate(83.086847 0)scale(0.996264)" xlink:href="#Nimbus_Sans_L_Regular-104"/>
      <use transform="translate(138.478524 0)scale(0.996264)" xlink:href="#Nimbus_Sans_L_Regular-114"/>
      <use transform="translate(171.653753 0)scale(0.996264)" xlink:href="#Nimbus_Sans_L_Regular-101"/>
      <use transform="translate(227.04543 0)scale(0.996264)" xlink:href="#Nimbus_Sans_L_Regular-97"/>
      <use transform="translate(282.437107 0)scale(0.996264)" xlink:href="#Nimbus_Sans_L_Regular-100"/>
      <use transform="translate(337.828784 0)scale(0.996264)" xlink:href="#Nimbus_Sans_L_Regular-115"/>
     </g>
    </g>
    <g id="patch_18">
     <path d="M 322.835073 97.990701 
L 358.835073 97.990701 
L 358.835073 85.390701 
L 322.835073 85.390701 
z
" style="fill:#d18282;stroke:#000000;stroke-linejoin:miter;stroke-width:0.5;"/>
    </g>
    <g id="text_25">
     <!-- plat -->
     <g transform="translate(373.235073 97.990701)scale(0.18 -0.18)">
      <use transform="scale(0.996264)" xlink:href="#Nimbus_Sans_L_Regular-112"/>
      <use transform="translate(55.391677 0)scale(0.996264)" xlink:href="#Nimbus_Sans_L_Regular-108"/>
      <use transform="translate(77.508461 0)scale(0.996264)" xlink:href="#Nimbus_Sans_L_Regular-97"/>
      <use transform="translate(132.900138 0)scale(0.996264)" xlink:href="#Nimbus_Sans_L_Regular-116"/>
     </g>
    </g>
    <g id="patch_19">
     <path d="M 457.4106 44.997187 
L 493.4106 44.997187 
L 493.4106 32.397187 
L 457.4106 32.397187 
z
" style="fill:#7c4f4f;stroke:#000000;stroke-linejoin:miter;stroke-width:0.5;"/>
    </g>
    <g id="text_26">
     <!-- misc -->
     <g transform="translate(507.8106 44.997187)scale(0.18 -0.18)">
      <use transform="scale(0.996264)" xlink:href="#Nimbus_Sans_L_Regular-109"/>
      <use transform="translate(82.98843 0)scale(0.996264)" xlink:href="#Nimbus_Sans_L_Regular-105"/>
      <use transform="translate(105.105215 0)scale(0.996264)" xlink:href="#Nimbus_Sans_L_Regular-115"/>
      <use transform="translate(154.918415 0)scale(0.996264)" xlink:href="#Nimbus_Sans_L_Regular-99"/>
     </g>
    </g>
    <g id="patch_20">
     <path d="M 457.4106 71.493944 
L 493.4106 71.493944 
L 493.4106 58.893944 
L 457.4106 58.893944 
z
" style="fill:#618c84;stroke:#000000;stroke-linejoin:miter;stroke-width:0.5;"/>
    </g>
    <g id="text_27">
     <!-- lwip -->
     <g transform="translate(507.8106 71.493944)scale(0.18 -0.18)">
      <defs>
       <path d="M 55.40625 0 
L 70.796875 52 
L 61.40625 52 
L 51 11.515625 
L 40.703125 52 
L 30.5 52 
L 20.5 11.515625 
L 9.796875 52 
L 0.59375 52 
L 15.796875 0 
L 25.203125 0 
L 35.296875 40.765625 
L 45.90625 0 
z
" id="Nimbus_Sans_L_Regular-119"/>
      </defs>
      <use transform="scale(0.996264)" xlink:href="#Nimbus_Sans_L_Regular-108"/>
      <use transform="translate(22.116784 0)scale(0.996264)" xlink:href="#Nimbus_Sans_L_Regular-119"/>
      <use transform="translate(94.046769 0)scale(0.996264)" xlink:href="#Nimbus_Sans_L_Regular-105"/>
      <use transform="translate(116.163554 0)scale(0.996264)" xlink:href="#Nimbus_Sans_L_Regular-112"/>
     </g>
    </g>
    <g id="patch_21">
     <path d="M 457.4106 97.990701 
L 493.4106 97.990701 
L 493.4106 85.390701 
L 457.4106 85.390701 
z
" style="fill:#ededed;stroke:#000000;stroke-linejoin:miter;stroke-width:0.5;"/>
    </g>
    <g id="text_28">
     <!-- alloc -->
     <g transform="translate(507.8106 97.990701)scale(0.18 -0.18)">
      <use transform="scale(0.996264)" xlink:href="#Nimbus_Sans_L_Regular-97"/>
      <use transform="translate(55.391677 0)scale(0.996264)" xlink:href="#Nimbus_Sans_L_Regular-108"/>
      <use transform="translate(77.508461 0)scale(0.996264)" xlink:href="#Nimbus_Sans_L_Regular-108"/>
      <use transform="translate(99.625246 0)scale(0.996264)" xlink:href="#Nimbus_Sans_L_Regular-111"/>
      <use transform="translate(155.016923 0)scale(0.996264)" xlink:href="#Nimbus_Sans_L_Regular-99"/>
     </g>
    </g>
   </g>
   <g id="patch_22">
    <path clip-path="url(#pb7d0a48045)" d="M 80.453156 324.283454 
L 140.506511 324.283454 
L 140.506511 133.331874 
L 80.453156 133.331874 
z
" style="fill:#ededed;stroke:#000000;stroke-linejoin:miter;stroke-width:0.5;"/>
   </g>
   <g id="patch_23">
    <path clip-path="url(#pb7d0a48045)" d="M 80.453156 133.331874 
L 140.506511 133.331874 
L 140.506511 119.725687 
L 80.453156 119.725687 
z
" style="fill:#618c84;stroke:#000000;stroke-linejoin:miter;stroke-width:0.5;"/>
   </g>
   <g id="patch_24">
    <path clip-path="url(#pb7d0a48045)" d="M 80.453156 119.725687 
L 140.506511 119.725687 
L 140.506511 115.938179 
L 80.453156 115.938179 
z
" style="fill:#7c4f4f;stroke:#000000;stroke-linejoin:miter;stroke-width:0.5;"/>
   </g>
   <g id="patch_25">
    <path clip-path="url(#pb7d0a48045)" d="M 80.453156 115.938179 
L 140.506511 115.938179 
L 140.506511 114.383299 
L 80.453156 114.383299 
z
" style="fill:#d18282;stroke:#000000;stroke-linejoin:miter;stroke-width:0.5;"/>
   </g>
   <g id="patch_26">
    <path clip-path="url(#pb7d0a48045)" d="M 80.453156 114.383299 
L 140.506511 114.383299 
L 140.506511 113.037259 
L 80.453156 113.037259 
z
" style="fill:#91c6e7;stroke:#000000;stroke-linejoin:miter;stroke-width:0.5;"/>
   </g>
   <g id="patch_27">
    <path clip-path="url(#pb7d0a48045)" d="M 80.453156 113.037259 
L 140.506511 113.037259 
L 140.506511 104.232839 
L 80.453156 104.232839 
z
" style="fill:#49687c;stroke:#000000;stroke-linejoin:miter;stroke-width:0.5;"/>
   </g>
   <g id="patch_28">
    <path clip-path="url(#pb7d0a48045)" d="M 80.453156 104.232839 
L 140.506511 104.232839 
L 140.506511 83.500052 
L 80.453156 83.500052 
z
" style="fill:#fff3cd;stroke:#000000;stroke-linejoin:miter;stroke-width:0.5;"/>
   </g>
   <g id="patch_29">
    <path clip-path="url(#pb7d0a48045)" d="M 80.453156 83.500052 
L 140.506511 83.500052 
L 140.506511 82.902688 
L 80.453156 82.902688 
z
" style="fill:#a2d9d1;stroke:#000000;stroke-linejoin:miter;stroke-width:0.5;"/>
   </g>
   <g id="patch_30">
    <path clip-path="url(#pb7d0a48045)" d="M 80.453156 82.902688 
L 140.506511 82.902688 
L 140.506511 82.67651 
L 80.453156 82.67651 
z
" style="fill:#ddcae3;stroke:#000000;stroke-linejoin:miter;stroke-width:0.5;"/>
   </g>
   <g id="patch_31">
    <path clip-path="url(#pb7d0a48045)" d="M 180.542082 324.283454 
L 240.595437 324.283454 
L 240.595437 324.081706 
L 180.542082 324.081706 
z
" style="fill:#ededed;stroke:#000000;stroke-linejoin:miter;stroke-width:0.5;"/>
   </g>
   <g id="patch_32">
    <path clip-path="url(#pb7d0a48045)" d="M 180.542082 324.081706 
L 240.595437 324.081706 
L 240.595437 291.050156 
L 180.542082 291.050156 
z
" style="fill:#618c84;stroke:#000000;stroke-linejoin:miter;stroke-width:0.5;"/>
   </g>
   <g id="patch_33">
    <path clip-path="url(#pb7d0a48045)" d="M 180.542082 291.050156 
L 240.595437 291.050156 
L 240.595437 288.979872 
L 180.542082 288.979872 
z
" style="fill:#7c4f4f;stroke:#000000;stroke-linejoin:miter;stroke-width:0.5;"/>
   </g>
   <g id="patch_34">
    <path clip-path="url(#pb7d0a48045)" d="M 180.542082 288.979872 
L 240.595437 288.979872 
L 240.595437 287.44233 
L 180.542082 287.44233 
z
" style="fill:#d18282;stroke:#000000;stroke-linejoin:miter;stroke-width:0.5;"/>
   </g>
   <g id="patch_35">
    <path clip-path="url(#pb7d0a48045)" d="M 180.542082 287.44233 
L 240.595437 287.44233 
L 240.595437 277.388016 
L 180.542082 277.388016 
z
" style="fill:#91c6e7;stroke:#000000;stroke-linejoin:miter;stroke-width:0.5;"/>
   </g>
   <g id="patch_36">
    <path clip-path="url(#pb7d0a48045)" d="M 180.542082 277.388016 
L 240.595437 277.388016 
L 240.595437 270.628661 
L 180.542082 270.628661 
z
" style="fill:#49687c;stroke:#000000;stroke-linejoin:miter;stroke-width:0.5;"/>
   </g>
   <g id="patch_37">
    <path clip-path="url(#pb7d0a48045)" d="M 180.542082 270.628661 
L 240.595437 270.628661 
L 240.595437 250.851026 
L 180.542082 250.851026 
z
" style="fill:#fff3cd;stroke:#000000;stroke-linejoin:miter;stroke-width:0.5;"/>
   </g>
   <g id="patch_38">
    <path clip-path="url(#pb7d0a48045)" d="M 180.542082 250.851026 
L 240.595437 250.851026 
L 240.595437 250.383695 
L 180.542082 250.383695 
z
" style="fill:#a2d9d1;stroke:#000000;stroke-linejoin:miter;stroke-width:0.5;"/>
   </g>
   <g id="patch_39">
    <path clip-path="url(#pb7d0a48045)" d="M 180.542082 250.383695 
L 240.595437 250.383695 
L 240.595437 250.150424 
L 180.542082 250.150424 
z
" style="fill:#ddcae3;stroke:#000000;stroke-linejoin:miter;stroke-width:0.5;"/>
   </g>
   <g id="patch_40">
    <path clip-path="url(#pb7d0a48045)" d="M 280.631008 324.283454 
L 340.684363 324.283454 
L 340.684363 324.221196 
L 280.631008 324.221196 
z
" style="fill:#ededed;stroke:#000000;stroke-linejoin:miter;stroke-width:0.5;"/>
   </g>
   <g id="patch_41">
    <path clip-path="url(#pb7d0a48045)" d="M 280.631008 324.221196 
L 340.684363 324.221196 
L 340.684363 316.238742 
L 280.631008 316.238742 
z
" style="fill:#618c84;stroke:#000000;stroke-linejoin:miter;stroke-width:0.5;"/>
   </g>
   <g id="patch_42">
    <path clip-path="url(#pb7d0a48045)" d="M 280.631008 316.238742 
L 340.684363 316.238742 
L 340.684363 313.923365 
L 280.631008 313.923365 
z
" style="fill:#7c4f4f;stroke:#000000;stroke-linejoin:miter;stroke-width:0.5;"/>
   </g>
   <g id="patch_43">
    <path clip-path="url(#pb7d0a48045)" d="M 280.631008 313.923365 
L 340.684363 313.923365 
L 340.684363 312.366121 
L 280.631008 312.366121 
z
" style="fill:#d18282;stroke:#000000;stroke-linejoin:miter;stroke-width:0.5;"/>
   </g>
   <g id="patch_44">
    <path clip-path="url(#pb7d0a48045)" d="M 280.631008 312.366121 
L 340.684363 312.366121 
L 340.684363 312.006757 
L 280.631008 312.006757 
z
" style="fill:#91c6e7;stroke:#000000;stroke-linejoin:miter;stroke-width:0.5;"/>
   </g>
   <g id="patch_45">
    <path clip-path="url(#pb7d0a48045)" d="M 280.631008 312.006757 
L 340.684363 312.006757 
L 340.684363 305.68715 
L 280.631008 305.68715 
z
" style="fill:#49687c;stroke:#000000;stroke-linejoin:miter;stroke-width:0.5;"/>
   </g>
   <g id="patch_46">
    <path clip-path="url(#pb7d0a48045)" d="M 280.631008 305.68715 
L 340.684363 305.68715 
L 340.684363 286.51082 
L 280.631008 286.51082 
z
" style="fill:#fff3cd;stroke:#000000;stroke-linejoin:miter;stroke-width:0.5;"/>
   </g>
   <g id="patch_47">
    <path clip-path="url(#pb7d0a48045)" d="M 280.631008 286.51082 
L 340.684363 286.51082 
L 340.684363 286.057674 
L 280.631008 286.057674 
z
" style="fill:#a2d9d1;stroke:#000000;stroke-linejoin:miter;stroke-width:0.5;"/>
   </g>
   <g id="patch_48">
    <path clip-path="url(#pb7d0a48045)" d="M 280.631008 286.057674 
L 340.684363 286.057674 
L 340.684363 285.843317 
L 280.631008 285.843317 
z
" style="fill:#ddcae3;stroke:#000000;stroke-linejoin:miter;stroke-width:0.5;"/>
   </g>
   <g id="patch_49">
    <path clip-path="url(#pb7d0a48045)" d="M 380.719933 324.283454 
L 440.773289 324.283454 
L 440.773289 297.235789 
L 380.719933 297.235789 
z
" style="fill:#ededed;stroke:#000000;stroke-linejoin:miter;stroke-width:0.5;"/>
   </g>
   <g id="patch_50">
    <path clip-path="url(#pb7d0a48045)" d="M 380.719933 297.235789 
L 440.773289 297.235789 
L 440.773289 288.460528 
L 380.719933 288.460528 
z
" style="fill:#618c84;stroke:#000000;stroke-linejoin:miter;stroke-width:0.5;"/>
   </g>
   <g id="patch_51">
    <path clip-path="url(#pb7d0a48045)" d="M 380.719933 288.460528 
L 440.773289 288.460528 
L 440.773289 285.933946 
L 380.719933 285.933946 
z
" style="fill:#7c4f4f;stroke:#000000;stroke-linejoin:miter;stroke-width:0.5;"/>
   </g>
   <g id="patch_52">
    <path clip-path="url(#pb7d0a48045)" d="M 380.719933 285.933946 
L 440.773289 285.933946 
L 440.773289 284.392463 
L 380.719933 284.392463 
z
" style="fill:#d18282;stroke:#000000;stroke-linejoin:miter;stroke-width:0.5;"/>
   </g>
   <g id="patch_53">
    <path clip-path="url(#pb7d0a48045)" d="M 380.719933 284.392463 
L 440.773289 284.392463 
L 440.773289 284.011821 
L 380.719933 284.011821 
z
" style="fill:#91c6e7;stroke:#000000;stroke-linejoin:miter;stroke-width:0.5;"/>
   </g>
   <g id="patch_54">
    <path clip-path="url(#pb7d0a48045)" d="M 380.719933 284.011821 
L 440.773289 284.011821 
L 440.773289 275.566765 
L 380.719933 275.566765 
z
" style="fill:#49687c;stroke:#000000;stroke-linejoin:miter;stroke-width:0.5;"/>
   </g>
   <g id="patch_55">
    <path clip-path="url(#pb7d0a48045)" d="M 380.719933 275.566765 
L 440.773289 275.566765 
L 440.773289 256.126428 
L 380.719933 256.126428 
z
" style="fill:#fff3cd;stroke:#000000;stroke-linejoin:miter;stroke-width:0.5;"/>
   </g>
   <g id="patch_56">
    <path clip-path="url(#pb7d0a48045)" d="M 380.719933 256.126428 
L 440.773289 256.126428 
L 440.773289 255.668554 
L 380.719933 255.668554 
z
" style="fill:#a2d9d1;stroke:#000000;stroke-linejoin:miter;stroke-width:0.5;"/>
   </g>
   <g id="patch_57">
    <path clip-path="url(#pb7d0a48045)" d="M 380.719933 255.668554 
L 440.773289 255.668554 
L 440.773289 255.447892 
L 380.719933 255.447892 
z
" style="fill:#ddcae3;stroke:#000000;stroke-linejoin:miter;stroke-width:0.5;"/>
   </g>
   <g id="patch_58">
    <path clip-path="url(#pb7d0a48045)" d="M 480.808859 324.283454 
L 540.862215 324.283454 
L 540.862215 322.418859 
L 480.808859 322.418859 
z
" style="fill:#ededed;stroke:#000000;stroke-linejoin:miter;stroke-width:0.5;"/>
   </g>
   <g id="patch_59">
    <path clip-path="url(#pb7d0a48045)" d="M 480.808859 322.418859 
L 540.862215 322.418859 
L 540.862215 314.4632 
L 480.808859 314.4632 
z
" style="fill:#618c84;stroke:#000000;stroke-linejoin:miter;stroke-width:0.5;"/>
   </g>
   <g id="patch_60">
    <path clip-path="url(#pb7d0a48045)" d="M 480.808859 314.4632 
L 540.862215 314.4632 
L 540.862215 312.911472 
L 480.808859 312.911472 
z
" style="fill:#7c4f4f;stroke:#000000;stroke-linejoin:miter;stroke-width:0.5;"/>
   </g>
   <g id="patch_61">
    <path clip-path="url(#pb7d0a48045)" d="M 480.808859 312.911472 
L 540.862215 312.911472 
L 540.862215 311.377082 
L 480.808859 311.377082 
z
" style="fill:#d18282;stroke:#000000;stroke-linejoin:miter;stroke-width:0.5;"/>
   </g>
   <g id="patch_62">
    <path clip-path="url(#pb7d0a48045)" d="M 480.808859 311.377082 
L 540.862215 311.377082 
L 540.862215 311.284088 
L 480.808859 311.284088 
z
" style="fill:#91c6e7;stroke:#000000;stroke-linejoin:miter;stroke-width:0.5;"/>
   </g>
   <g id="patch_63">
    <path clip-path="url(#pb7d0a48045)" d="M 480.808859 311.284088 
L 540.862215 311.284088 
L 540.862215 304.194528 
L 480.808859 304.194528 
z
" style="fill:#49687c;stroke:#000000;stroke-linejoin:miter;stroke-width:0.5;"/>
   </g>
   <g id="patch_64">
    <path clip-path="url(#pb7d0a48045)" d="M 480.808859 304.194528 
L 540.862215 304.194528 
L 540.862215 284.954364 
L 480.808859 284.954364 
z
" style="fill:#fff3cd;stroke:#000000;stroke-linejoin:miter;stroke-width:0.5;"/>
   </g>
   <g id="patch_65">
    <path clip-path="url(#pb7d0a48045)" d="M 480.808859 284.954364 
L 540.862215 284.954364 
L 540.862215 284.503582 
L 480.808859 284.503582 
z
" style="fill:#a2d9d1;stroke:#000000;stroke-linejoin:miter;stroke-width:0.5;"/>
   </g>
   <g id="patch_66">
    <path clip-path="url(#pb7d0a48045)" d="M 480.808859 284.503582 
L 540.862215 284.503582 
L 540.862215 284.286073 
L 480.808859 284.286073 
z
" style="fill:#ddcae3;stroke:#000000;stroke-linejoin:miter;stroke-width:0.5;"/>
   </g>
  </g>
 </g>
 <defs>
  <clipPath id="pb7d0a48045">
   <rect height="309.163454" width="500.444629" x="60.435371" y="15.12"/>
  </clipPath>
 </defs>
</svg>
