<?xml version="1.0" encoding="UTF-8" standalone="no"?>
<!DOCTYPE svg PUBLIC "-//W3C//DTD SVG 1.1//EN"
 "http://www.w3.org/Graphics/SVG/1.1/DTD/svg11.dtd">
<!-- Generated by graphviz version 2.40.1 (20161225.0304)
 -->
<!-- Title: %3 Pages: 1 -->
<svg width="2365pt" height="1423pt"
 viewBox="0.00 0.00 2365.00 1423.00" xmlns="http://www.w3.org/2000/svg" xmlns:xlink="http://www.w3.org/1999/xlink">
<g id="graph0" class="graph" transform="scale(1 1) rotate(0) translate(4 1419)">
<title>%3</title>
<polygon fill="#ffffff" stroke="transparent" points="-4,4 -4,-1419 2361,-1419 2361,4 -4,4"/>
<!-- fs -->
<g id="node1" class="node">
<title>fs</title>
<polygon fill="none" stroke="#000000" points="79,-875 0,-875 0,-779 79,-779 79,-875"/>
<text text-anchor="middle" x="39.5" y="-807" font-family="Helvetica,sans-Serif" font-size="80.00" fill="#000000">fs</text>
</g>
<!-- mm -->
<g id="node2" class="node">
<title>mm</title>
<polygon fill="none" stroke="#000000" points="2357,-702 2207,-702 2207,-606 2357,-606 2357,-702"/>
<text text-anchor="middle" x="2282" y="-634" font-family="Helvetica,sans-Serif" font-size="80.00" fill="#000000">mm</text>
</g>
<!-- fs&#45;&gt;mm -->
<g id="edge1" class="edge">
<title>fs&#45;&gt;mm</title>
<path fill="none" stroke="#000000" d="M785.5,-1391C798.0179,-1390.5945 1674.0015,-1353.1946 1686.5,-1354"/>
<text text-anchor="middle" x="1152.5" y="-1387" font-family="Helvetica,sans-Serif" font-size="35.00" fill="#0000ff">293</text>
</g>
<!-- sched -->
<g id="node3" class="node">
<title>sched</title>
<polygon fill="none" stroke="#000000" points="383,-786 154,-786 154,-690 383,-690 383,-786"/>
<text text-anchor="middle" x="268.5" y="-718" font-family="Helvetica,sans-Serif" font-size="80.00" fill="#000000">sched</text>
</g>
<!-- fs&#45;&gt;sched -->
<g id="edge2" class="edge">
<title>fs&#45;&gt;sched</title>
<path fill="none" stroke="#000000" d="M79.1681,-804.661C81.7957,-803.376 84.4219,-802.1435 87,-801 98.8436,-795.7471 120.2136,-787.8805 144.2374,-779.4704"/>
<polygon fill="#000000" stroke="#000000" points="145.6349,-782.69 153.9287,-776.0973 143.3339,-776.079 145.6349,-782.69"/>
<text text-anchor="middle" x="116.5" y="-812" font-family="Helvetica,sans-Serif" font-size="35.00" fill="#0000ff">106</text>
</g>
<!-- time -->
<g id="node4" class="node">
<title>time</title>
<polygon fill="none" stroke="#000000" points="2151,-702 1983,-702 1983,-606 2151,-606 2151,-702"/>
<text text-anchor="middle" x="2067" y="-634" font-family="Helvetica,sans-Serif" font-size="80.00" fill="#000000">time</text>
</g>
<!-- fs&#45;&gt;time -->
<g id="edge3" class="edge">
<title>fs&#45;&gt;time</title>
<path fill="none" stroke="#000000" d="M592,-1382C676.7449,-1366.8244 699.4984,-1394.9646 785.5,-1391"/>
<path fill="none" stroke="#000000" d="M785.5,-1391C814.3181,-1389.5302 797.7357,-1351.9412 823,-1338 917.694,-1285.7465 1201.2938,-1321.8362 1309,-1312 1460.7398,-1298.1425 1498.5344,-1292.0225 1649,-1268 1794.6414,-1244.7477 1871.9069,-1311.4699 1975,-1206 2042.7888,-1136.6484 2060.7986,-839.7678 2065.4429,-712.404"/>
<polygon fill="#000000" stroke="#000000" points="2068.9524,-712.1893 2065.8037,-702.0732 2061.9567,-711.9449 2068.9524,-712.1893"/>
<text text-anchor="middle" x="969" y="-1349" font-family="Helvetica,sans-Serif" font-size="35.00" fill="#0000ff">102</text>
</g>
<!-- locking -->
<g id="node5" class="node">
<title>locking</title>
<polygon fill="none" stroke="#000000" points="1649,-1002 1384,-1002 1384,-906 1649,-906 1649,-1002"/>
<text text-anchor="middle" x="1516.5" y="-934" font-family="Helvetica,sans-Serif" font-size="80.00" fill="#000000">locking</text>
</g>
<!-- fs&#45;&gt;locking -->
<g id="edge4" class="edge">
<title>fs&#45;&gt;locking</title>
<path fill="none" stroke="#000000" d="M42.7091,-875.1869C47.5423,-929.2531 59.2875,-1018.8329 87,-1091 107.2494,-1143.7321 111.003,-1162.367 154,-1199 314.5919,-1335.8227 384.2333,-1418.65 592,-1382"/>
<path fill="none" stroke="#000000" d="M592,-1382C618.0467,-1376.4055 598.2245,-1344.3478 620,-1329 723.1361,-1256.3076 1057.3006,-1267.2688 1182,-1248 1268.3624,-1234.6551 1313.3115,-1276.8827 1376,-1216 1389.3185,-1203.0652 1377.3488,-1192.3336 1384,-1175 1406.8378,-1115.4831 1445.3057,-1053.7487 1474.9267,-1010.7067"/>
<polygon fill="#000000" stroke="#000000" points="1477.8979,-1012.5642 1480.7257,-1002.3537 1472.1477,-1008.5722 1477.8979,-1012.5642"/>
<text text-anchor="middle" x="684" y="-1340" font-family="Helvetica,sans-Serif" font-size="35.00" fill="#0000ff">13</text>
</g>
<!-- net -->
<g id="node6" class="node">
<title>net</title>
<polygon fill="none" stroke="#000000" points="748,-804 620,-804 620,-708 748,-708 748,-804"/>
<text text-anchor="middle" x="684" y="-736" font-family="Helvetica,sans-Serif" font-size="80.00" fill="#000000">net</text>
</g>
<!-- fs&#45;&gt;net -->
<g id="edge5" class="edge">
<title>fs&#45;&gt;net</title>
<path fill="none" stroke="#000000" d="M45.6582,-875.0742C52.8907,-923.2725 66.5581,-992.7443 87,-1010 210.5982,-1114.3334 288.7651,-1048.8563 450,-1036 522.6907,-1030.2039 561.9252,-1063.0099 612,-1010 623.9652,-997.3335 616.1042,-948.9832 620,-932 629.3025,-891.4467 645.297,-847.4583 658.9686,-813.6024"/>
<polygon fill="#000000" stroke="#000000" points="662.2134,-814.9142 662.7556,-804.3333 655.7334,-812.2667 662.2134,-814.9142"/>
<text text-anchor="middle" x="420.5" y="-1053" font-family="Helvetica,sans-Serif" font-size="35.00" fill="#0000ff">313</text>
</g>
<!-- block -->
<g id="node7" class="node">
<title>block</title>
<polygon fill="none" stroke="#000000" points="1927,-435 1724,-435 1724,-339 1927,-339 1927,-435"/>
<text text-anchor="middle" x="1825.5" y="-367" font-family="Helvetica,sans-Serif" font-size="80.00" fill="#000000">block</text>
</g>
<!-- fs&#45;&gt;block -->
<g id="edge6" class="edge">
<title>fs&#45;&gt;block</title>
<path fill="none" stroke="#000000" d="M41.9454,-778.8287C47.737,-671.7405 63.584,-416.8486 87,-334 120.4608,-215.6115 145.4738,-125 268.5,-125 268.5,-125 268.5,-125 592,-125 621.5857,-125 1624.6165,-239.244 1649,-256 1655.227,-260.2791 1651.9475,-265.3823 1657,-271 1678.1854,-294.5549 1689.8755,-293.079 1716,-311 1726.3142,-318.0754 1737.1543,-325.5509 1747.8384,-332.9423"/>
<polygon fill="#000000" stroke="#000000" points="1746.1464,-336.0279 1756.3605,-338.8428 1750.1312,-330.2727 1746.1464,-336.0279"/>
<text text-anchor="middle" x="785.5" y="-158" font-family="Helvetica,sans-Serif" font-size="35.00" fill="#0000ff">100</text>
</g>
<!-- security -->
<g id="node8" class="node">
<title>security</title>
<polygon fill="none" stroke="#000000" points="1115,-531 823,-531 823,-435 1115,-435 1115,-531"/>
<text text-anchor="middle" x="969" y="-463" font-family="Helvetica,sans-Serif" font-size="80.00" fill="#000000">security</text>
</g>
<!-- fs&#45;&gt;security -->
<g id="edge7" class="edge">
<title>fs&#45;&gt;security</title>
<path fill="none" stroke="#000000" d="M55.6138,-778.6252C98.3423,-660.2722 227.3418,-361.2433 458,-299 617.1997,-256.0398 665.7027,-329.9968 815,-400 834.6737,-409.2247 855.3787,-419.7758 875.002,-430.1915"/>
<polygon fill="#000000" stroke="#000000" points="873.4648,-433.3383 883.9345,-434.9623 876.7626,-427.1638 873.4648,-433.3383"/>
<text text-anchor="middle" x="511" y="-310" font-family="Helvetica,sans-Serif" font-size="35.00" fill="#0000ff">13</text>
</g>
<!-- irq -->
<g id="node9" class="node">
<title>irq</title>
<polygon fill="none" stroke="#000000" points="564,-858 458,-858 458,-762 564,-762 564,-858"/>
<text text-anchor="middle" x="511" y="-790" font-family="Helvetica,sans-Serif" font-size="80.00" fill="#000000">irq</text>
</g>
<!-- fs&#45;&gt;irq -->
<g id="edge8" class="edge">
<title>fs&#45;&gt;irq</title>
<path fill="none" stroke="#000000" d="M79.2709,-862.7785C81.8293,-864.6222 84.4161,-866.379 87,-868 114.4864,-885.2435 122.2269,-890.4188 154,-897 253.6623,-917.6433 283.3377,-917.6433 383,-897 414.7731,-890.4188 422.9363,-885.8997 450,-868 451.6912,-866.8815 453.3782,-865.7138 455.0566,-864.5057"/>
<polygon fill="#000000" stroke="#000000" points="457.5329,-867.0184 463.3555,-858.167 453.2839,-861.4555 457.5329,-867.0184"/>
<text text-anchor="middle" x="268.5" y="-923" font-family="Helvetica,sans-Serif" font-size="35.00" fill="#0000ff">24</text>
</g>
<!-- sched&#45;&gt;fs -->
<g id="edge42" class="edge">
<title>sched&#45;&gt;fs</title>
<path fill="none" stroke="#000000" d="M153.968,-718.0784C130.5214,-718.9819 106.9425,-723.9137 87,-736 74.2453,-743.73 64.7536,-756.131 57.7546,-769.3228"/>
<polygon fill="#000000" stroke="#000000" points="54.5025,-768.0082 53.2978,-778.5343 60.8038,-771.0569 54.5025,-768.0082"/>
<text text-anchor="middle" x="116.5" y="-747" font-family="Helvetica,sans-Serif" font-size="35.00" fill="#0000ff">194</text>
</g>
<!-- sched&#45;&gt;mm -->
<g id="edge44" class="edge">
<title>sched&#45;&gt;mm</title>
<path fill="none" stroke="#000000" d="M343.885,-786.1502C359.5359,-799.9284 373.9915,-816.3497 383,-835 395.0878,-860.0256 373.8198,-1063.1543 391,-1085 443.0248,-1151.1528 673.876,-1167.604 756,-1186 1149.008,-1274.0349 1260.2105,-1234.8897 1649,-1340 1666.1737,-1344.643 1668.8172,-1352.0478 1686.5,-1354"/>
<path fill="none" stroke="#000000" d="M1686.5,-1354C1748.1499,-1357.9725 1764.6919,-1343.0973 1825.5,-1354"/>
<text text-anchor="middle" x="1249.5" y="-1280" font-family="Helvetica,sans-Serif" font-size="35.00" fill="#0000ff">34</text>
</g>
<!-- sched&#45;&gt;time -->
<g id="edge40" class="edge">
<title>sched&#45;&gt;time</title>
<path fill="none" stroke="#000000" d="M270.7253,-689.7172C278.3044,-581.8404 311.6365,-319.2669 458,-173 498.7959,-132.231 516.4975,-126.6809 572,-111 807.9901,-44.3266 877.8569,-88.4467 1123,-82 1481.5612,-72.5707 1656.729,83.8147 1927,-152 1975.9308,-194.6927 1956.3594,-227.7954 1975,-290 2007.0769,-397.0423 2037.4503,-523.9583 2054.0164,-596.1257"/>
<polygon fill="#000000" stroke="#000000" points="2050.6191,-596.9701 2056.2611,-605.9377 2057.4428,-595.409 2050.6191,-596.9701"/>
<text text-anchor="middle" x="1152.5" y="-93" font-family="Helvetica,sans-Serif" font-size="35.00" fill="#0000ff">98</text>
</g>
<!-- sched&#45;&gt;locking -->
<g id="edge41" class="edge">
<title>sched&#45;&gt;locking</title>
<path fill="none" stroke="#000000" d="M342.5317,-786.0133C358.4302,-799.8869 373.3377,-816.3859 383,-835 392.1486,-852.6245 379.6459,-907.7087 391,-924 407.596,-947.8126 426.6786,-934.7205 450,-952 514.7138,-999.9483 502.9672,-1044.5105 572,-1086 644.3431,-1129.479 672.9166,-1118.1307 756,-1133 998.3136,-1176.3665 1082.8958,-1199.3315 1309,-1102 1362.3114,-1079.0509 1415.4674,-1040.764 1454.631,-1008.8818"/>
<polygon fill="#000000" stroke="#000000" points="1457.273,-1011.2404 1462.7707,-1002.1835 1452.825,-1005.8352 1457.273,-1011.2404"/>
<text text-anchor="middle" x="785.5" y="-1154" font-family="Helvetica,sans-Serif" font-size="35.00" fill="#0000ff">2</text>
</g>
<!-- sched&#45;&gt;net -->
<g id="edge45" class="edge">
<title>sched&#45;&gt;net</title>
<path fill="none" stroke="#000000" d="M383.0928,-715.4853C438.0903,-708.0387 504.757,-703.9319 564,-714 579.2621,-716.5937 595.1687,-720.9188 610.2211,-725.8318"/>
<polygon fill="#000000" stroke="#000000" points="609.3796,-729.242 619.9739,-729.133 611.624,-722.6115 609.3796,-729.242"/>
<text text-anchor="middle" x="511" y="-725" font-family="Helvetica,sans-Serif" font-size="35.00" fill="#0000ff">16</text>
</g>
<!-- sched&#45;&gt;block -->
<g id="edge46" class="edge">
<title>sched&#45;&gt;block</title>
<path fill="none" stroke="#000000" d="M284.711,-689.6946C303.9533,-637.5952 339.988,-554.2949 391,-496 451.5228,-426.8364 484.7457,-424.8669 572,-396 1051.5973,-237.3317 1206.733,-339.4058 1713.6632,-376.8382"/>
<polygon fill="#000000" stroke="#000000" points="1713.5738,-380.3409 1723.8011,-377.5747 1714.0811,-373.3593 1713.5738,-380.3409"/>
<text text-anchor="middle" x="969" y="-341" font-family="Helvetica,sans-Serif" font-size="35.00" fill="#0000ff">6</text>
</g>
<!-- sched&#45;&gt;irq -->
<g id="edge43" class="edge">
<title>sched&#45;&gt;irq</title>
<path fill="none" stroke="#000000" d="M383.2026,-775.6656C385.8241,-776.458 388.426,-777.2372 391,-778 409.4871,-783.4787 429.7016,-789.0347 448.1808,-793.9453"/>
<polygon fill="#000000" stroke="#000000" points="447.3937,-797.3574 457.9559,-796.5262 449.1807,-790.5893 447.3937,-797.3574"/>
<text text-anchor="middle" x="420.5" y="-805" font-family="Helvetica,sans-Serif" font-size="35.00" fill="#0000ff">82</text>
</g>
<!-- time&#45;&gt;fs -->
<g id="edge49" class="edge">
<title>time&#45;&gt;fs</title>
<path fill="none" stroke="#000000" d="M2052.1001,-605.869C2032.4793,-540.1878 1998.6418,-418.463 1983,-312 1972.8438,-242.8738 1989.7612,-223.2912 1975,-155 1962.6896,-98.0473 1969.429,-72.9367 1927,-33 1892.459,-.4879 1872.9355,0 1825.5,0 969,0 969,0 969,0 844.9737,0 813.0457,-24.6442 694.2305,-32.3879"/>
<polygon fill="#000000" stroke="#000000" points="693.7731,-28.9089 684,-33 694.1912,-35.8964 693.7731,-28.9089"/>
<path fill="none" stroke="#000000" d="M684,-33C470.5835,-43.4877 193.586,35.8013 87,-181 60.8437,-234.2032 45.5486,-638.0878 40.9692,-778.8198"/>
<text text-anchor="middle" x="969" y="-25" font-family="Helvetica,sans-Serif" font-size="35.00" fill="#0000ff">68</text>
</g>
<!-- time&#45;&gt;mm -->
<g id="edge48" class="edge">
<title>time&#45;&gt;mm</title>
<path fill="none" stroke="#000000" d="M2151.0483,-654C2165.9764,-654 2181.5388,-654 2196.5065,-654"/>
<polygon fill="#000000" stroke="#000000" points="2196.7586,-657.5001 2206.7586,-654 2196.7586,-650.5001 2196.7586,-657.5001"/>
<text text-anchor="middle" x="2179" y="-665" font-family="Helvetica,sans-Serif" font-size="35.00" fill="#0000ff">37</text>
</g>
<!-- time&#45;&gt;sched -->
<g id="edge50" class="edge">
<title>time&#45;&gt;sched</title>
<path fill="none" stroke="#000000" d="M2053.8872,-605.678C2038.6243,-552.9681 2010.8636,-466.9157 1975,-398 1894.8786,-244.0383 1815.5673,-231.775 1649,-183 1458.472,-127.2087 951.4856,-122.3737 756,-157 671.3026,-172.0024 645.3168,-172.0182 572,-217 567.714,-219.6295 568.3591,-222.4936 564,-225 546.3442,-235.1519 534.3739,-227.3658 519.8844,-233.5227"/>
<polygon fill="#000000" stroke="#000000" points="517.6755,-230.7727 511,-239 521.3491,-236.7313 517.6755,-230.7727"/>
<path fill="none" stroke="#000000" d="M511,-239C485.7305,-255.7795 476.267,-257.784 458,-282 359.5193,-412.5524 302.5876,-601.7222 279.9636,-689.673"/>
<text text-anchor="middle" x="1152.5" y="-146" font-family="Helvetica,sans-Serif" font-size="35.00" fill="#0000ff">133</text>
</g>
<!-- time&#45;&gt;locking -->
<g id="edge53" class="edge">
<title>time&#45;&gt;locking</title>
<path fill="none" stroke="#000000" d="M2049.3828,-702.0431C2034.4815,-736.3969 2009.9327,-781.2838 1975,-809 1884.0281,-881.1789 1756.5524,-917.7292 1659.0993,-936.0592"/>
<polygon fill="#000000" stroke="#000000" points="1658.3705,-932.6345 1649.1676,-937.884 1659.6355,-939.5192 1658.3705,-932.6345"/>
<text text-anchor="middle" x="1825.5" y="-931" font-family="Helvetica,sans-Serif" font-size="35.00" fill="#0000ff">4</text>
</g>
<!-- time&#45;&gt;block -->
<g id="edge52" class="edge">
<title>time&#45;&gt;block</title>
<path fill="none" stroke="#000000" d="M2036.8142,-605.74C2019.904,-580.141 1997.6949,-548.7481 1975,-523 1949.8714,-494.4908 1919.2456,-465.7614 1892.272,-442.1011"/>
<polygon fill="#000000" stroke="#000000" points="1894.2402,-439.1741 1884.3997,-435.2477 1889.6439,-444.4537 1894.2402,-439.1741"/>
<text text-anchor="middle" x="1955" y="-534" font-family="Helvetica,sans-Serif" font-size="35.00" fill="#0000ff">2</text>
</g>
<!-- time&#45;&gt;irq -->
<g id="edge47" class="edge">
<title>time&#45;&gt;irq</title>
<path fill="none" stroke="#000000" d="M2066.1274,-702.3266C2062.8692,-820.5414 2047.4838,-1119.0936 1975,-1180 1889.593,-1251.7655 1835.1216,-1189.8297 1724,-1180 1537.375,-1163.4913 1494.7357,-1130.5699 1309,-1106 1064.4287,-1073.6471 987.2766,-1143.866 756,-1058 689.085,-1033.1565 599.0027,-955.4597 572,-924 557.5489,-907.1636 545.1631,-886.3331 535.4023,-867.1028"/>
<polygon fill="#000000" stroke="#000000" points="538.5282,-865.528 530.9645,-858.1089 532.2507,-868.6254 538.5282,-865.528"/>
<text text-anchor="middle" x="1249.5" y="-1117" font-family="Helvetica,sans-Serif" font-size="35.00" fill="#0000ff">88</text>
</g>
<!-- ipc -->
<g id="node10" class="node">
<title>ipc</title>
<polygon fill="none" stroke="#000000" points="1309,-755 1190,-755 1190,-659 1309,-659 1309,-755"/>
<text text-anchor="middle" x="1249.5" y="-687" font-family="Helvetica,sans-Serif" font-size="80.00" fill="#000000">ipc</text>
</g>
<!-- time&#45;&gt;ipc -->
<g id="edge51" class="edge">
<title>time&#45;&gt;ipc</title>
<path fill="none" stroke="#000000" d="M1982.7114,-671.6033C1911.8993,-685.447 1807.8423,-703.5912 1716,-711 1575.6893,-722.3186 1410.8756,-716.4248 1319.5021,-711.4731"/>
<polygon fill="#000000" stroke="#000000" points="1319.4489,-707.9648 1309.2704,-710.9058 1319.0613,-714.9541 1319.4489,-707.9648"/>
<text text-anchor="middle" x="1686.5" y="-725" font-family="Helvetica,sans-Serif" font-size="35.00" fill="#0000ff">3</text>
</g>
<!-- locking&#45;&gt;fs -->
<g id="edge59" class="edge">
<title>locking&#45;&gt;fs</title>
<path fill="none" stroke="#000000" d="M1478.233,-1002.242C1440.414,-1045.9618 1378.2958,-1107.8661 1309,-1137 1255.3409,-1159.5598 1239.0889,-1157.6377 1182,-1169 1020.3041,-1201.182 979.0275,-1206.3805 815,-1223 683.7855,-1236.2948 645.6375,-1214.7035 520.9264,-1238.08"/>
<polygon fill="#000000" stroke="#000000" points="520.1533,-1234.6646 511,-1240 521.4827,-1241.5372 520.1533,-1234.6646"/>
<text text-anchor="middle" x="684" y="-1238" font-family="Helvetica,sans-Serif" font-size="35.00" fill="#0000ff">153</text>
</g>
<!-- locking&#45;&gt;mm -->
<g id="edge61" class="edge">
<title>locking&#45;&gt;mm</title>
<path fill="none" stroke="#000000" d="M1686.5,-1047C1704.6676,-1052.17 1706.1767,-1060.7453 1724,-1067 1810.611,-1097.3945 1852.392,-1051.531 1927,-1105 2030.1949,-1178.9563 1950.7167,-1303.0401 2067,-1354"/>
<path fill="none" stroke="#000000" d="M2067,-1354C2193.55,-1400.8139 2258.0561,-888.709 2276.4008,-712.3932"/>
<polygon fill="#000000" stroke="#000000" points="2279.9011,-712.5687 2277.4423,-702.2632 2272.9378,-711.8528 2279.9011,-712.5687"/>
<text text-anchor="middle" x="1955" y="-1173" font-family="Helvetica,sans-Serif" font-size="35.00" fill="#0000ff">23</text>
</g>
<!-- locking&#45;&gt;sched -->
<g id="edge65" class="edge">
<title>locking&#45;&gt;sched</title>
<path fill="none" stroke="#000000" d="M1152.5,-1043C1079.6058,-1050.0958 884.4176,-1075.8972 823,-1036 815.9974,-1031.4511 821.3196,-1024.4581 815,-1019 746.4735,-959.8153 703.6316,-994.7055 620,-960 513.2932,-915.7188 487.2357,-900.9206 391,-837 367.9946,-821.7196 344.0742,-803.0866 323.5416,-786.1248"/>
<text text-anchor="middle" x="785.5" y="-1030" font-family="Helvetica,sans-Serif" font-size="35.00" fill="#0000ff">96</text>
</g>
<!-- locking&#45;&gt;time -->
<g id="edge60" class="edge">
<title>locking&#45;&gt;time</title>
<path fill="none" stroke="#000000" d="M1585.9807,-1002.223C1615.5615,-1019.9695 1651.3154,-1037.9375 1686.5,-1047"/>
<path fill="none" stroke="#000000" d="M1686.5,-1047C1704.5933,-1051.6603 1706.715,-1035.0934 1724,-1028 1811.6415,-992.0335 1856.2571,-1026.0084 1927,-963 2002.0338,-896.1698 2039.2366,-781.1755 2055.7068,-711.8967"/>
<polygon fill="#000000" stroke="#000000" points="2059.1481,-712.5493 2057.9884,-702.0181 2052.3277,-710.9739 2059.1481,-712.5493"/>
<text text-anchor="middle" x="1825.5" y="-1039" font-family="Helvetica,sans-Serif" font-size="35.00" fill="#0000ff">23</text>
</g>
<!-- locking&#45;&gt;net -->
<g id="edge63" class="edge">
<title>locking&#45;&gt;net</title>
<path fill="none" stroke="#000000" d="M1383.9844,-995.691C1344.7029,-1004.9473 1301.1035,-1012.2641 1259.6945,-1012.9644"/>
<polygon fill="#000000" stroke="#000000" points="1259.4877,-1009.465 1249.5,-1013 1259.5122,-1016.4649 1259.4877,-1009.465"/>
<path fill="none" stroke="#000000" d="M1249.5,-1013C1177.9099,-1006.0546 1179.6016,-954.6231 1115,-923 992.1751,-862.8761 950.1455,-876.3474 823,-826 798.0042,-816.1021 771.4406,-803.3237 748.3039,-791.3991"/>
<text text-anchor="middle" x="1152.5" y="-990" font-family="Helvetica,sans-Serif" font-size="35.00" fill="#0000ff">8</text>
</g>
<!-- locking&#45;&gt;block -->
<g id="edge64" class="edge">
<title>locking&#45;&gt;block</title>
<path fill="none" stroke="#000000" d="M1528.8022,-905.7592C1546.9588,-843.7037 1586.6241,-736.2774 1657,-672 1677.781,-653.0198 1695.86,-668.6591 1716,-649 1772.9434,-593.4164 1801.6111,-503.7672 1815.0218,-445.1076"/>
<polygon fill="#000000" stroke="#000000" points="1818.4597,-445.7703 1817.1986,-435.2508 1811.6244,-444.2607 1818.4597,-445.7703"/>
<text text-anchor="middle" x="1686.5" y="-683" font-family="Helvetica,sans-Serif" font-size="35.00" fill="#0000ff">9</text>
</g>
<!-- locking&#45;&gt;irq -->
<g id="edge62" class="edge">
<title>locking&#45;&gt;irq</title>
<path fill="none" stroke="#000000" d="M1249.5,-1013C1204.4222,-1015.0819 1197.4136,-1038.6279 1152.5,-1043"/>
<path fill="none" stroke="#000000" d="M1152.5,-1043C1136.4127,-1043.4578 1132.4937,-1034.9955 1123,-1022 1116.1182,-1012.5798 1124.0016,-1004.4209 1115,-997 966.1638,-874.3008 876.5586,-957.336 684,-946"/>
<text text-anchor="middle" x="969" y="-1008" font-family="Helvetica,sans-Serif" font-size="35.00" fill="#0000ff">120</text>
</g>
<!-- net&#45;&gt;fs -->
<g id="edge16" class="edge">
<title>net&#45;&gt;fs</title>
<path fill="none" stroke="#000000" d="M650.7636,-804.2196C639.5629,-818.2182 626.2549,-832.7481 612,-844 523.2209,-914.0768 493.236,-929.6916 383,-955 283.8029,-977.774 249.0669,-991.3455 154,-955 119.5489,-941.8288 91.657,-911.4991 72.0295,-883.6687"/>
<polygon fill="#000000" stroke="#000000" points="74.733,-881.4211 66.2054,-875.1337 68.9509,-885.3667 74.733,-881.4211"/>
<text text-anchor="middle" x="420.5" y="-963" font-family="Helvetica,sans-Serif" font-size="35.00" fill="#0000ff">552</text>
</g>
<!-- net&#45;&gt;mm -->
<g id="edge17" class="edge">
<title>net&#45;&gt;mm</title>
<path fill="none" stroke="#000000" d="M705.8024,-804.2113C720.4574,-838.9771 738.7288,-887.4359 748,-932 750.9476,-946.1684 746.4138,-1051.1586 756,-1062 789.4059,-1099.7798 1602.5799,-1205.2911 1649,-1225 1738.4357,-1262.9723 1729.7551,-1337.4606 1825.5,-1354"/>
<path fill="none" stroke="#000000" d="M1825.5,-1354C1882.1522,-1364.1575 1897.7373,-1348.2012 1955,-1354"/>
<text text-anchor="middle" x="1516.5" y="-1236" font-family="Helvetica,sans-Serif" font-size="35.00" fill="#0000ff">464</text>
</g>
<!-- net&#45;&gt;sched -->
<g id="edge18" class="edge">
<title>net&#45;&gt;sched</title>
<path fill="none" stroke="#000000" d="M640.6443,-707.9891C632.3455,-696.3062 624.7679,-683.3167 620,-670 613.738,-652.5104 625.4464,-515.8177 612,-503 583.4041,-475.7411 472.9631,-483.9136 429.3939,-504.8786"/>
<polygon fill="#000000" stroke="#000000" points="427.4194,-501.9768 420.5,-510 430.9125,-508.0429 427.4194,-501.9768"/>
<text text-anchor="middle" x="511" y="-505" font-family="Helvetica,sans-Serif" font-size="35.00" fill="#0000ff">67</text>
</g>
<!-- net&#45;&gt;time -->
<g id="edge19" class="edge">
<title>net&#45;&gt;time</title>
<path fill="none" stroke="#000000" d="M1152.5,-610C1190.8971,-596.7452 1475.927,-574.0356 1516.5,-576"/>
<text text-anchor="middle" x="1346.5" y="-599" font-family="Helvetica,sans-Serif" font-size="35.00" fill="#0000ff">107</text>
</g>
<!-- net&#45;&gt;locking -->
<g id="edge22" class="edge">
<title>net&#45;&gt;locking</title>
<path fill="none" stroke="#000000" d="M748.081,-773.0064C771.5434,-778.8801 798.374,-785.1875 823,-790 984.8065,-821.621 1026.2725,-824.6472 1190,-844 1224.6753,-848.0986 1314.2103,-844.713 1346.5,-858"/>
<text text-anchor="middle" x="1152.5" y="-853" font-family="Helvetica,sans-Serif" font-size="35.00" fill="#0000ff">7</text>
</g>
<!-- net&#45;&gt;block -->
<g id="edge21" class="edge">
<title>net&#45;&gt;block</title>
<path fill="none" stroke="#000000" d="M740.4505,-707.9934C754.4818,-697.8847 769.9707,-688.135 785.5,-681"/>
<path fill="none" stroke="#000000" d="M785.5,-681C798.6873,-674.941 805.1519,-677.6598 815,-667 821.7775,-659.6639 815.0965,-652.1064 823,-646 939.5749,-555.9319 1010.9442,-650.7914 1152.5,-610"/>
<path fill="none" stroke="#000000" d="M1152.5,-610C1166.0991,-604.9323 1173.819,-607.987 1182,-596 1196.3159,-575.024 1171.4247,-499.3175 1190,-482 1228.6849,-445.9346 1257.8246,-468.6465 1309,-482 1345.9664,-491.6458 1347.0336,-514.3542 1384,-524 1497.962,-553.7367 1541.7878,-572.7561 1649,-524 1672.0829,-513.5028 1662.2657,-488.4641 1686.5,-481"/>
<text text-anchor="middle" x="1249.5" y="-493" font-family="Helvetica,sans-Serif" font-size="35.00" fill="#0000ff">11</text>
</g>
<!-- net&#45;&gt;security -->
<g id="edge24" class="edge">
<title>net&#45;&gt;security</title>
<path fill="none" stroke="#000000" d="M725.6576,-707.9041C734.1482,-696.1279 742.2352,-683.12 748,-670 755.6441,-652.603 745.5757,-643.8878 756,-628 780.8205,-590.1706 819.2762,-559.5995 856.7186,-536.4563"/>
<polygon fill="#000000" stroke="#000000" points="858.9465,-539.1997 865.6967,-531.0335 855.3273,-533.2078 858.9465,-539.1997"/>
<text text-anchor="middle" x="785.5" y="-639" font-family="Helvetica,sans-Serif" font-size="35.00" fill="#0000ff">6</text>
</g>
<!-- net&#45;&gt;irq -->
<g id="edge23" class="edge">
<title>net&#45;&gt;irq</title>
<path fill="none" stroke="#000000" d="M619.9684,-745.619C603.8659,-745.3292 586.9278,-747.111 572,-753 569.434,-754.0123 566.9125,-755.1891 564.4428,-756.5003"/>
<polygon fill="#000000" stroke="#000000" points="562.4735,-753.6013 555.7416,-761.7826 566.1061,-759.585 562.4735,-753.6013"/>
<text text-anchor="middle" x="592" y="-764" font-family="Helvetica,sans-Serif" font-size="35.00" fill="#0000ff">25</text>
</g>
<!-- net&#45;&gt;ipc -->
<g id="edge20" class="edge">
<title>net&#45;&gt;ipc</title>
<path fill="none" stroke="#000000" d="M785.5,-681C918.5709,-619.86 969.2225,-667.0392 1115,-681 1136.261,-683.0361 1159.1569,-686.8433 1179.9243,-690.9283"/>
<polygon fill="#000000" stroke="#000000" points="1179.4367,-694.4004 1189.9317,-692.9495 1180.8225,-687.539 1179.4367,-694.4004"/>
<text text-anchor="middle" x="969" y="-692" font-family="Helvetica,sans-Serif" font-size="35.00" fill="#0000ff">750</text>
</g>
<!-- block&#45;&gt;fs -->
<g id="edge34" class="edge">
<title>block&#45;&gt;fs</title>
<path fill="none" stroke="#000000" d="M1793.5188,-338.9399C1773.4404,-311.0907 1745.7689,-276.589 1716,-251 1689.8713,-228.54 1680.9908,-224.7965 1649,-212 1504.7705,-154.3075 1461.405,-161.0547 1309,-131 1242.7292,-117.9312 791.395,-34.2613 694.0649,-32.7649"/>
<polygon fill="#000000" stroke="#000000" points="693.9155,-29.2673 684,-33 694.079,-36.2654 693.9155,-29.2673"/>
<text text-anchor="middle" x="785.5" y="-57" font-family="Helvetica,sans-Serif" font-size="35.00" fill="#0000ff">69</text>
</g>
<!-- block&#45;&gt;mm -->
<g id="edge35" class="edge">
<title>block&#45;&gt;mm</title>
<path fill="none" stroke="#000000" d="M1881.6226,-338.7945C1958.279,-278.9017 2095.6899,-193.6094 2179,-272"/>
<text text-anchor="middle" x="2067" y="-280" font-family="Helvetica,sans-Serif" font-size="35.00" fill="#0000ff">35</text>
</g>
<!-- block&#45;&gt;sched -->
<g id="edge38" class="edge">
<title>block&#45;&gt;sched</title>
<path fill="none" stroke="#000000" d="M1726.8351,-338.9332C1723.2011,-337.5504 1719.5817,-336.2334 1716,-335 1569.5968,-284.5857 1529.2291,-281.2791 1376,-259 1283.7437,-245.5862 634.3342,-192.5673 520.1006,-234.7654"/>
<polygon fill="#000000" stroke="#000000" points="518.59,-231.6079 511,-239 521.5431,-237.9545 518.59,-231.6079"/>
<text text-anchor="middle" x="969" y="-246" font-family="Helvetica,sans-Serif" font-size="35.00" fill="#0000ff">23</text>
</g>
<!-- block&#45;&gt;time -->
<g id="edge37" class="edge">
<title>block&#45;&gt;time</title>
<path fill="none" stroke="#000000" d="M1927.1729,-399.1056C1944.5726,-404.828 1961.3962,-413.0962 1975,-425 2025.0285,-468.7765 2048.2091,-543.6079 2058.7086,-595.7703"/>
<polygon fill="#000000" stroke="#000000" points="2055.3268,-596.7205 2060.6436,-605.8846 2062.2021,-595.4051 2055.3268,-596.7205"/>
<text text-anchor="middle" x="1955" y="-436" font-family="Helvetica,sans-Serif" font-size="35.00" fill="#0000ff">46</text>
</g>
<!-- block&#45;&gt;locking -->
<g id="edge39" class="edge">
<title>block&#45;&gt;locking</title>
<path fill="none" stroke="#000000" d="M1783.0925,-435.341C1746.3913,-478.8623 1693.6031,-545.6865 1657,-610 1602.6761,-705.4499 1558.4696,-826.0796 1534.9482,-896.1878"/>
<polygon fill="#000000" stroke="#000000" points="1531.607,-895.1436 1531.7676,-905.7372 1538.2484,-897.3556 1531.607,-895.1436"/>
<text text-anchor="middle" x="1686.5" y="-621" font-family="Helvetica,sans-Serif" font-size="35.00" fill="#0000ff">2</text>
</g>
<!-- block&#45;&gt;irq -->
<g id="edge36" class="edge">
<title>block&#45;&gt;irq</title>
<path fill="none" stroke="#000000" d="M1723.8722,-383.4771C1587.148,-379.6088 1336.47,-375.5807 1123,-389 988.9211,-397.4286 955.3972,-403.2144 823,-426 731.9265,-441.6738 695.9633,-418.3728 620,-471 604.3292,-481.8567 605.5898,-492.448 597.8168,-505.7981"/>
<polygon fill="#000000" stroke="#000000" points="594.93,-503.8183 592,-514 600.6398,-507.8678 594.93,-503.8183"/>
<path fill="none" stroke="#000000" d="M592,-514C580.9179,-527.0886 576.9282,-530.5733 572,-547 558.5801,-591.7308 582.6897,-714.2024 564,-757 563.2709,-758.6695 562.4631,-760.315 561.5873,-761.9339"/>
<text text-anchor="middle" x="1152.5" y="-400" font-family="Helvetica,sans-Serif" font-size="35.00" fill="#0000ff">13</text>
</g>
<!-- security&#45;&gt;fs -->
<g id="edge26" class="edge">
<title>security&#45;&gt;fs</title>
<path fill="none" stroke="#000000" d="M882.4916,-434.8509C861.1933,-420.1769 839.7249,-402.6542 823,-383 817.5884,-376.6405 819.7021,-372.9006 815,-366 790.5686,-330.1451 781.884,-322.0988 748,-295 673.7696,-235.634 655.6718,-211.1148 564,-186 518.5632,-173.5519 504.0185,-175.9128 458,-186 312.6996,-217.8498 249.7195,-212.1387 154,-326 97.7112,-392.9572 60.4767,-651.2662 46.1305,-768.5149"/>
<polygon fill="#000000" stroke="#000000" points="42.6204,-768.3884 44.8942,-778.7364 49.5697,-769.229 42.6204,-768.3884"/>
<text text-anchor="middle" x="511" y="-197" font-family="Helvetica,sans-Serif" font-size="35.00" fill="#0000ff">229</text>
</g>
<!-- security&#45;&gt;mm -->
<g id="edge25" class="edge">
<title>security&#45;&gt;mm</title>
<path fill="none" stroke="#000000" d="M1115.1209,-445.5484C1158.1183,-436.0732 1205.4442,-427.1357 1249.5,-422"/>
<path fill="none" stroke="#000000" d="M1249.5,-422C1316.6876,-414.5099 1757.9538,-223.2106 1825.5,-226"/>
<path fill="none" stroke="#000000" d="M2179,-272C2225.5343,-316.3521 2259.0845,-500.0675 2273.76,-595.6384"/>
<polygon fill="#000000" stroke="#000000" points="2270.3294,-596.3609 2275.2887,-605.7233 2277.2504,-595.3117 2270.3294,-596.3609"/>
<text text-anchor="middle" x="1686.5" y="-284" font-family="Helvetica,sans-Serif" font-size="35.00" fill="#0000ff">125</text>
</g>
<!-- security&#45;&gt;sched -->
<g id="edge30" class="edge">
<title>security&#45;&gt;sched</title>
<path fill="none" stroke="#000000" d="M865.5764,-434.8717C783.8492,-403.7471 667.9619,-375.1348 572,-411 541.7748,-422.2965 543.3685,-444.8932 519.9739,-459.4134"/>
<polygon fill="#000000" stroke="#000000" points="518.3115,-456.3323 511,-464 521.4973,-462.5654 518.3115,-456.3323"/>
<path fill="none" stroke="#000000" d="M511,-464C488.1768,-473.5421 479.8925,-469.4818 458,-481 439.3542,-490.81 437.1907,-497.1422 420.5,-510"/>
<path fill="none" stroke="#000000" d="M420.5,-510C358.5047,-557.7587 313.4212,-638.2827 289.1135,-689.7436"/>
<text text-anchor="middle" x="592" y="-422" font-family="Helvetica,sans-Serif" font-size="35.00" fill="#0000ff">20</text>
</g>
<!-- security&#45;&gt;time -->
<g id="edge32" class="edge">
<title>security&#45;&gt;time</title>
<path fill="none" stroke="#000000" d="M1249.5,-422C1277.8501,-418.9409 1286.5209,-428.4564 1309,-446 1313.7656,-449.7192 1311.9078,-453.7424 1317,-457 1443.7296,-538.0722 1522.801,-441.1044 1649,-523 1673.2055,-538.7079 1657.9675,-571.6946 1686.5,-576"/>
<path fill="none" stroke="#000000" d="M1686.5,-576C1785.4265,-583.6642 1896.3375,-608.2869 1972.7736,-627.8413"/>
<polygon fill="#000000" stroke="#000000" points="1972.2991,-631.3334 1982.8564,-630.4425 1974.0478,-624.5553 1972.2991,-631.3334"/>
<text text-anchor="middle" x="1516.5" y="-534" font-family="Helvetica,sans-Serif" font-size="35.00" fill="#0000ff">3</text>
</g>
<!-- security&#45;&gt;locking -->
<g id="edge31" class="edge">
<title>security&#45;&gt;locking</title>
<path fill="none" stroke="#000000" d="M1015.9267,-531.126C1045.6989,-562.6636 1084.26,-605.4213 1115,-646 1152.5233,-695.5331 1141.2233,-725.4985 1190,-764 1233.9092,-798.6593 1272.0863,-762.9683 1309,-805 1320.6761,-818.2949 1306.0815,-830.0762 1317,-844 1325.9553,-855.4202 1333.2683,-852.0386 1346.5,-858"/>
<path fill="none" stroke="#000000" d="M1346.5,-858C1375.2244,-869.8199 1405.1682,-885.4792 1431.7775,-900.7145"/>
<polygon fill="#000000" stroke="#000000" points="1430.2588,-903.8794 1440.6671,-905.8588 1433.7649,-897.8208 1430.2588,-903.8794"/>
<text text-anchor="middle" x="1249.5" y="-816" font-family="Helvetica,sans-Serif" font-size="35.00" fill="#0000ff">4</text>
</g>
<!-- security&#45;&gt;net -->
<g id="edge28" class="edge">
<title>security&#45;&gt;net</title>
<path fill="none" stroke="#000000" d="M822.7942,-484.9556C797.2868,-491.992 773.3978,-504.0709 756,-524 745.3156,-536.239 753.529,-654.7232 748,-670 744.3146,-680.183 738.998,-690.1799 732.9823,-699.5493"/>
<polygon fill="#000000" stroke="#000000" points="729.9934,-697.7212 727.2879,-707.9647 735.7909,-701.6441 729.9934,-697.7212"/>
<text text-anchor="middle" x="785.5" y="-535" font-family="Helvetica,sans-Serif" font-size="35.00" fill="#0000ff">111</text>
</g>
<!-- security&#45;&gt;block -->
<g id="edge29" class="edge">
<title>security&#45;&gt;block</title>
<path fill="none" stroke="#000000" d="M1249.5,-422C1426.65,-405.034 1485.2614,-379.2888 1649,-449 1669.1591,-457.5827 1665.5607,-487.4493 1686.5,-481"/>
<path fill="none" stroke="#000000" d="M1686.5,-481C1713.5279,-472.6755 1740.0456,-457.1471 1762.5534,-441.0756"/>
<polygon fill="#000000" stroke="#000000" points="1764.6566,-443.8736 1770.6579,-435.1423 1760.5215,-438.2254 1764.6566,-443.8736"/>
<text text-anchor="middle" x="1346.5" y="-425" font-family="Helvetica,sans-Serif" font-size="35.00" fill="#0000ff">6</text>
</g>
<!-- security&#45;&gt;irq -->
<g id="edge33" class="edge">
<title>security&#45;&gt;irq</title>
<path fill="none" stroke="#000000" d="M822.9204,-474.6335C736.3825,-473.0887 636.5636,-478.3047 599.339,-507.0636"/>
<polygon fill="#000000" stroke="#000000" points="596.8635,-504.5874 592,-514 601.6718,-509.6747 596.8635,-504.5874"/>
<text text-anchor="middle" x="684" y="-506" font-family="Helvetica,sans-Serif" font-size="35.00" fill="#0000ff">9</text>
</g>
<!-- security&#45;&gt;ipc -->
<g id="edge27" class="edge">
<title>security&#45;&gt;ipc</title>
<path fill="none" stroke="#000000" d="M1115.1791,-512.5627C1140.0673,-523.1403 1163.7334,-537.5017 1182,-557 1191.141,-566.7574 1185.2513,-573.5014 1190,-586 1198.0747,-607.2527 1208.5861,-629.7947 1218.5234,-649.5891"/>
<polygon fill="#000000" stroke="#000000" points="1215.5388,-651.4417 1223.1895,-658.7708 1221.7792,-648.2703 1215.5388,-651.4417"/>
<text text-anchor="middle" x="1152.5" y="-568" font-family="Helvetica,sans-Serif" font-size="35.00" fill="#0000ff">17</text>
</g>
<!-- irq&#45;&gt;fs -->
<g id="edge54" class="edge">
<title>irq&#45;&gt;fs</title>
<path fill="none" stroke="#000000" d="M457.8584,-834.9841C455.2313,-835.7557 452.6033,-836.4362 450,-837 317.944,-865.6006 281.116,-839.3333 146,-840 122.6461,-840.1152 114.7063,-842.7952 89.4157,-840"/>
<polygon fill="#000000" stroke="#000000" points="89.614,-836.4971 79.2523,-838.7076 88.7309,-843.4412 89.614,-836.4971"/>
<text text-anchor="middle" x="268.5" y="-861" font-family="Helvetica,sans-Serif" font-size="35.00" fill="#0000ff">37</text>
</g>
<!-- irq&#45;&gt;mm -->
<g id="edge57" class="edge">
<title>irq&#45;&gt;mm</title>
<path fill="none" stroke="#000000" d="M561.6229,-761.9494C562.4882,-760.3258 563.2842,-758.6753 564,-757 571.8817,-738.5527 560.216,-412.2345 572,-396 641.4413,-300.3327 707.3695,-332.5745 823,-308 877.6597,-296.3834 1769.6521,-227.9062 1825.5,-226"/>
<path fill="none" stroke="#000000" d="M1825.5,-226C1969.5858,-211.6321 2020.4563,-177.3462 2151,-240 2168.0374,-248.177 2165.3202,-258.9617 2179,-272"/>
<text text-anchor="middle" x="1346.5" y="-274" font-family="Helvetica,sans-Serif" font-size="35.00" fill="#0000ff">7</text>
</g>
<!-- irq&#45;&gt;sched -->
<g id="edge56" class="edge">
<title>irq&#45;&gt;sched</title>
<path fill="none" stroke="#000000" d="M468.5995,-761.8468C464.9212,-757.2402 461.3347,-752.5787 458,-748 454.006,-742.5161 455.9223,-738.3093 450,-735 432.8197,-725.3997 413.2207,-720.6618 393.4054,-718.9852"/>
<polygon fill="#000000" stroke="#000000" points="393.5439,-715.4874 383.3542,-718.3889 393.1293,-722.4751 393.5439,-715.4874"/>
<text text-anchor="middle" x="420.5" y="-746" font-family="Helvetica,sans-Serif" font-size="35.00" fill="#0000ff">31</text>
</g>
<!-- irq&#45;&gt;time -->
<g id="edge55" class="edge">
<title>irq&#45;&gt;time</title>
<path fill="none" stroke="#000000" d="M560.7986,-761.9705C561.9224,-760.3304 562.9932,-758.6722 564,-757 585.8267,-720.7479 586.6116,-600.9968 620,-575 680.4582,-527.9262 1232.574,-540.5038 1309,-546 1401.9411,-552.6839 1423.3632,-573.1265 1516.5,-576"/>
<path fill="none" stroke="#000000" d="M1516.5,-576C1592.0396,-577.5546 1611.8189,-564.538 1686.5,-576"/>
<text text-anchor="middle" x="1249.5" y="-557" font-family="Helvetica,sans-Serif" font-size="35.00" fill="#0000ff">11</text>
</g>
<!-- irq&#45;&gt;net -->
<g id="edge58" class="edge">
<title>irq&#45;&gt;net</title>
<path fill="none" stroke="#000000" d="M564.1338,-803.4707C577.4604,-801.1661 591.7666,-798.1251 609.8168,-792.4838"/>
<polygon fill="#000000" stroke="#000000" points="611.1913,-795.7169 619.6118,-789.2868 609.0193,-789.0624 611.1913,-795.7169"/>
<text text-anchor="middle" x="592" y="-812" font-family="Helvetica,sans-Serif" font-size="35.00" fill="#0000ff">1</text>
</g>
<!-- ipc&#45;&gt;fs -->
<g id="edge9" class="edge">
<title>ipc&#45;&gt;fs</title>
<path fill="none" stroke="#000000" d="M1192.508,-755.2024C1191.6026,-756.772 1190.7633,-758.3717 1190,-760 1178.7693,-783.9577 1198.0543,-976.9677 1182,-998 1160.4734,-1026.2013 602.9998,-1169.7455 572,-1187 543.9285,-1202.6246 545.436,-1227.0111 520.8685,-1237.0753"/>
<polygon fill="#000000" stroke="#000000" points="519.5932,-1233.8027 511,-1240 521.5824,-1240.5141 519.5932,-1233.8027"/>
<path fill="none" stroke="#000000" d="M511,-1240C305.8917,-1273.2845 217.0357,-1205.0741 87,-1043 66.576,-1017.5439 52.3311,-930.6452 45.0653,-875.133"/>
<text text-anchor="middle" x="592" y="-1198" font-family="Helvetica,sans-Serif" font-size="35.00" fill="#0000ff">47</text>
</g>
<!-- ipc&#45;&gt;mm -->
<g id="edge11" class="edge">
<title>ipc&#45;&gt;mm</title>
<path fill="none" stroke="#000000" d="M1306.4094,-755.242C1307.3394,-756.7999 1308.2061,-758.3863 1309,-760 1320.0151,-782.3894 1310.5797,-847.8878 1317,-872 1334.6459,-938.2709 1336.409,-961.6208 1384,-1011 1476.4366,-1106.9098 1531.4961,-1088.2621 1649,-1151 1772.8466,-1217.1244 1828.1627,-1201.2924 1927,-1301 1945.7551,-1319.9202 1930.0654,-1344.6195 1955,-1354"/>
<path fill="none" stroke="#000000" d="M1955,-1354C2004.5245,-1359.0152 2017.3641,-1357.755 2067,-1354"/>
<text text-anchor="middle" x="1825.5" y="-1312" font-family="Helvetica,sans-Serif" font-size="35.00" fill="#0000ff">12</text>
</g>
<!-- ipc&#45;&gt;sched -->
<g id="edge10" class="edge">
<title>ipc&#45;&gt;sched</title>
<path fill="none" stroke="#000000" d="M1189.8106,-675.7819C1167.0162,-665.3397 1140.395,-654.8718 1115,-649 1037.1858,-631.0079 831.6594,-657.5817 756,-632 686.3938,-608.465 658.815,-600.3884 620,-538 607.1834,-517.3996 628.7355,-501.566 612,-484 582.9011,-453.4571 557.5398,-447.3294 520.6394,-460.2954"/>
<polygon fill="#000000" stroke="#000000" points="519.0788,-457.1455 511,-464 521.59,-463.6796 519.0788,-457.1455"/>
<text text-anchor="middle" x="684" y="-639" font-family="Helvetica,sans-Serif" font-size="35.00" fill="#0000ff">17</text>
</g>
<!-- ipc&#45;&gt;time -->
<g id="edge12" class="edge">
<title>ipc&#45;&gt;time</title>
<path fill="none" stroke="#000000" d="M1309.2044,-744.2157C1311.7978,-745.2444 1314.4019,-746.1802 1317,-747 1595.8911,-834.9972 1711.0903,-872.9978 1975,-747 1993.3256,-738.2508 2010.0732,-724.2681 2024.1095,-709.7751"/>
<polygon fill="#000000" stroke="#000000" points="2026.9366,-711.8754 2031.1964,-702.1746 2021.8169,-707.1016 2026.9366,-711.8754"/>
<text text-anchor="middle" x="1686.5" y="-838" font-family="Helvetica,sans-Serif" font-size="35.00" fill="#0000ff">6</text>
</g>
<!-- ipc&#45;&gt;locking -->
<g id="edge15" class="edge">
<title>ipc&#45;&gt;locking</title>
<path fill="none" stroke="#000000" d="M1297.6059,-755.2003C1301.5851,-759.7581 1305.4408,-764.3973 1309,-769 1313.15,-774.3667 1311.7913,-777.6533 1317,-782 1338.6086,-800.0324 1352.6645,-789.2662 1376,-805 1413.345,-830.1796 1448.1343,-866.9249 1473.7527,-897.6237"/>
<polygon fill="#000000" stroke="#000000" points="1471.3391,-900.1988 1480.3961,-905.6962 1476.7441,-895.7506 1471.3391,-900.1988"/>
<text text-anchor="middle" x="1346.5" y="-816" font-family="Helvetica,sans-Serif" font-size="35.00" fill="#0000ff">2</text>
</g>
<!-- ipc&#45;&gt;net -->
<g id="edge13" class="edge">
<title>ipc&#45;&gt;net</title>
<path fill="none" stroke="#000000" d="M1189.9849,-715.1933C1166.6352,-718.2319 1139.59,-721.5348 1115,-724 990.1693,-736.5146 844.5422,-746.3325 758.5359,-751.6378"/>
<polygon fill="#000000" stroke="#000000" points="758.1153,-748.1569 748.3482,-752.2623 758.5437,-755.1438 758.1153,-748.1569"/>
<text text-anchor="middle" x="969" y="-758" font-family="Helvetica,sans-Serif" font-size="35.00" fill="#0000ff">5</text>
</g>
<!-- ipc&#45;&gt;irq -->
<g id="edge14" class="edge">
<title>ipc&#45;&gt;irq</title>
<path fill="none" stroke="#000000" d="M1192.584,-755.2388C1191.6559,-756.7976 1190.7914,-758.3851 1190,-760 1178.5311,-783.4014 1200.7086,-858.8576 1182,-877 1113.9921,-942.9496 845.4346,-861.7609 756,-893 722.0044,-904.8745 723.0748,-940.5976 694.047,-945.5213"/>
<polygon fill="#000000" stroke="#000000" points="693.8221,-942.0279 684,-946 694.1553,-949.02 693.8221,-942.0279"/>
<path fill="none" stroke="#000000" d="M684,-946C624.3359,-953.8 572.6038,-900.5245 541.6273,-858.3726"/>
<text text-anchor="middle" x="785.5" y="-904" font-family="Helvetica,sans-Serif" font-size="35.00" fill="#0000ff">2</text>
</g>
</g>
</svg>
