<?xml version="1.0" encoding="UTF-8" standalone="no"?>
<!DOCTYPE svg PUBLIC "-//W3C//DTD SVG 1.1//EN"
 "http://www.w3.org/Graphics/SVG/1.1/DTD/svg11.dtd">
<!-- Generated by graphviz version 2.40.1 (20161225.0304)
 -->
<!-- Title: %3 Pages: 1 -->
<svg width="1598pt" height="571pt"
 viewBox="0.00 0.00 1598.00 571.00" xmlns="http://www.w3.org/2000/svg" xmlns:xlink="http://www.w3.org/1999/xlink">
<g id="graph0" class="graph" transform="scale(1 1) rotate(0) translate(4 567)">
<title>%3</title>
<polygon fill="#ffffff" stroke="transparent" points="-4,4 -4,-567 1594,-567 1594,4 -4,4"/>
<!-- fs -->
<g id="node1" class="node">
<title>fs</title>
<polygon fill="none" stroke="#000000" points="573.5,-323 494.5,-323 494.5,-227 573.5,-227 573.5,-323"/>
<text text-anchor="middle" x="534" y="-255" font-family="Helvetica,sans-Serif" font-size="80.00" fill="#000000">fs</text>
</g>
<!-- posix&#45;layer -->
<g id="node2" class="node">
<title>posix&#45;layer</title>
<polygon fill="none" stroke="#000000" points="1139,-221 736,-221 736,-125 1139,-125 1139,-221"/>
<text text-anchor="middle" x="937.5" y="-153" font-family="Helvetica,sans-Serif" font-size="80.00" fill="#000000">posix&#45;layer</text>
</g>
<!-- fs&#45;&gt;posix&#45;layer -->
<g id="edge1" class="edge">
<title>fs&#45;&gt;posix&#45;layer</title>
<path fill="none" stroke="#000000" d="M573.8156,-260.3736C604.6815,-249.3873 648.6782,-234.4906 688,-224 700.3397,-220.7079 713.0714,-217.5094 725.9495,-214.4253"/>
<polygon fill="#000000" stroke="#000000" points="726.8964,-217.798 735.8219,-212.0895 725.2847,-210.986 726.8964,-217.798"/>
<text text-anchor="middle" x="708" y="-235" font-family="Helvetica,sans-Serif" font-size="35.00" fill="#0000ff">18</text>
</g>
<!-- locking -->
<g id="node3" class="node">
<title>locking</title>
<polygon fill="none" stroke="#000000" points="1070,-432 805,-432 805,-336 1070,-336 1070,-432"/>
<text text-anchor="middle" x="937.5" y="-364" font-family="Helvetica,sans-Serif" font-size="80.00" fill="#000000">locking</text>
</g>
<!-- fs&#45;&gt;locking -->
<g id="edge2" class="edge">
<title>fs&#45;&gt;locking</title>
<path fill="none" stroke="#000000" d="M573.7934,-285.7496C624.8923,-299.5533 716.3351,-324.2553 794.7435,-345.4363"/>
<polygon fill="#000000" stroke="#000000" points="794.1617,-348.9045 804.7284,-348.1336 795.9872,-342.1467 794.1617,-348.9045"/>
<text text-anchor="middle" x="708" y="-337" font-family="Helvetica,sans-Serif" font-size="35.00" fill="#0000ff">1</text>
</g>
<!-- sched -->
<g id="node4" class="node">
<title>sched</title>
<polygon fill="none" stroke="#000000" points="1404,-416 1175,-416 1175,-320 1404,-320 1404,-416"/>
<text text-anchor="middle" x="1289.5" y="-348" font-family="Helvetica,sans-Serif" font-size="80.00" fill="#000000">sched</text>
</g>
<!-- fs&#45;&gt;sched -->
<g id="edge3" class="edge">
<title>fs&#45;&gt;sched</title>
<path fill="none" stroke="#000000" d="M573.5677,-273.4719C690.2955,-269.3384 1031.7478,-260.0385 1139,-288 1161.9246,-293.9766 1185.2304,-304.0396 1206.4367,-315.0485"/>
<polygon fill="#000000" stroke="#000000" points="1204.9176,-318.2049 1215.3894,-319.8154 1208.2075,-312.0261 1204.9176,-318.2049"/>
<text text-anchor="middle" x="937.5" y="-299" font-family="Helvetica,sans-Serif" font-size="35.00" fill="#0000ff">1</text>
</g>
<!-- mm -->
<g id="node5" class="node">
<title>mm</title>
<polygon fill="none" stroke="#000000" points="1590,-296 1440,-296 1440,-200 1590,-200 1590,-296"/>
<text text-anchor="middle" x="1515" y="-228" font-family="Helvetica,sans-Serif" font-size="80.00" fill="#000000">mm</text>
</g>
<!-- posix&#45;layer&#45;&gt;mm -->
<g id="edge13" class="edge">
<title>posix&#45;layer&#45;&gt;mm</title>
<path fill="none" stroke="#000000" d="M1139.0933,-147.4214C1222.7104,-143.3286 1319.6859,-147.1856 1404,-173 1419.5617,-177.7645 1434.9096,-185.5282 1448.9979,-194.2953"/>
<polygon fill="#000000" stroke="#000000" points="1447.3019,-197.3668 1457.5978,-199.866 1451.1076,-191.4917 1447.3019,-197.3668"/>
<text text-anchor="middle" x="1289.5" y="-184" font-family="Helvetica,sans-Serif" font-size="35.00" fill="#0000ff">6</text>
</g>
<!-- locking&#45;&gt;sched -->
<g id="edge5" class="edge">
<title>locking&#45;&gt;sched</title>
<path fill="none" stroke="#000000" d="M1070.0745,-377.9739C1101.0659,-376.5652 1133.9733,-375.0694 1164.617,-373.6765"/>
<polygon fill="#000000" stroke="#000000" points="1165.0857,-377.1589 1174.9164,-373.2083 1164.7677,-370.1661 1165.0857,-377.1589"/>
<text text-anchor="middle" x="1157" y="-385" font-family="Helvetica,sans-Serif" font-size="35.00" fill="#0000ff">1</text>
</g>
<!-- sched&#45;&gt;mm -->
<g id="edge14" class="edge">
<title>sched&#45;&gt;mm</title>
<path fill="none" stroke="#000000" d="M1379.9202,-319.8828C1396.6686,-310.9701 1414.1018,-301.693 1430.6605,-292.8813"/>
<polygon fill="#000000" stroke="#000000" points="1432.5763,-295.8266 1439.7599,-288.0391 1429.2878,-289.6471 1432.5763,-295.8266"/>
<text text-anchor="middle" x="1422" y="-311" font-family="Helvetica,sans-Serif" font-size="35.00" fill="#0000ff">2</text>
</g>
<!-- mm&#45;&gt;posix&#45;layer -->
<g id="edge4" class="edge">
<title>mm&#45;&gt;posix&#45;layer</title>
<path fill="none" stroke="#000000" d="M1439.836,-242.7751C1370.7999,-237.5379 1265.7492,-228.4626 1175,-216 1166.4792,-214.8298 1157.798,-213.5709 1149.037,-212.2449"/>
<polygon fill="#000000" stroke="#000000" points="1149.5313,-208.7799 1139.1158,-210.7206 1148.4682,-215.6987 1149.5313,-208.7799"/>
<text text-anchor="middle" x="1289.5" y="-250" font-family="Helvetica,sans-Serif" font-size="35.00" fill="#0000ff">1</text>
</g>
<!-- ipc -->
<g id="node6" class="node">
<title>ipc</title>
<polygon fill="none" stroke="#000000" points="593.5,-437 474.5,-437 474.5,-341 593.5,-341 593.5,-437"/>
<text text-anchor="middle" x="534" y="-369" font-family="Helvetica,sans-Serif" font-size="80.00" fill="#000000">ipc</text>
</g>
<!-- ipc&#45;&gt;locking -->
<g id="edge6" class="edge">
<title>ipc&#45;&gt;locking</title>
<path fill="none" stroke="#000000" d="M593.5378,-388.2622C646.296,-387.6085 725.453,-386.6276 794.5348,-385.7716"/>
<polygon fill="#000000" stroke="#000000" points="794.6939,-389.27 804.6498,-385.6462 794.6071,-382.2705 794.6939,-389.27"/>
<text text-anchor="middle" x="708" y="-397" font-family="Helvetica,sans-Serif" font-size="35.00" fill="#0000ff">1</text>
</g>
<!-- net -->
<g id="node7" class="node">
<title>net</title>
<polygon fill="none" stroke="#000000" points="352,-268 224,-268 224,-172 352,-172 352,-268"/>
<text text-anchor="middle" x="288" y="-200" font-family="Helvetica,sans-Serif" font-size="80.00" fill="#000000">net</text>
</g>
<!-- net&#45;&gt;fs -->
<g id="edge7" class="edge">
<title>net&#45;&gt;fs</title>
<path fill="none" stroke="#000000" d="M352.3123,-234.3788C393.6074,-243.6114 446.43,-255.4213 484.4629,-263.9246"/>
<polygon fill="#000000" stroke="#000000" points="483.7631,-267.3545 494.2858,-266.1208 485.2904,-260.5232 483.7631,-267.3545"/>
<text text-anchor="middle" x="370" y="-250" font-family="Helvetica,sans-Serif" font-size="35.00" fill="#0000ff">9</text>
</g>
<!-- net&#45;&gt;posix&#45;layer -->
<g id="edge8" class="edge">
<title>net&#45;&gt;posix&#45;layer</title>
<path fill="none" stroke="#000000" d="M352.0073,-189.8054C363.7484,-185.4122 376.068,-181.5258 388,-179 527.1939,-149.5345 566.0927,-159.7298 708,-170"/>
<text text-anchor="middle" x="534" y="-190" font-family="Helvetica,sans-Serif" font-size="35.00" fill="#0000ff">12</text>
</g>
<!-- net&#45;&gt;locking -->
<g id="edge10" class="edge">
<title>net&#45;&gt;locking</title>
<path fill="none" stroke="#000000" d="M294.7679,-268.0427C306.2454,-341.7646 332.0406,-477.3038 370,-506"/>
<path fill="none" stroke="#000000" d="M370,-506C379.2791,-513.0147 377.6607,-492.3298 388,-487 504.485,-426.9537 551.2556,-470.4784 680,-446 717.4245,-438.8844 757.5943,-429.8811 794.8131,-420.957"/>
<polygon fill="#000000" stroke="#000000" points="795.8158,-424.3156 804.7161,-418.5679 794.1741,-417.5108 795.8158,-424.3156"/>
<text text-anchor="middle" x="534" y="-498" font-family="Helvetica,sans-Serif" font-size="35.00" fill="#0000ff">2</text>
</g>
<!-- net&#45;&gt;sched -->
<g id="edge11" class="edge">
<title>net&#45;&gt;sched</title>
<path fill="none" stroke="#000000" d="M370,-506C379.3837,-513.4134 377.0757,-521.1347 388,-526 506.552,-578.7986 550.7658,-537.8653 680,-526 886.5995,-507.0317 941.8922,-505.7432 1139,-441 1156.2263,-435.3417 1174.0023,-428.1011 1191.0352,-420.3865"/>
<polygon fill="#000000" stroke="#000000" points="1192.7999,-423.427 1200.4132,-416.0589 1189.8668,-417.071 1192.7999,-423.427"/>
<text text-anchor="middle" x="708" y="-535" font-family="Helvetica,sans-Serif" font-size="35.00" fill="#0000ff">3</text>
</g>
<!-- net&#45;&gt;ipc -->
<g id="edge9" class="edge">
<title>net&#45;&gt;ipc</title>
<path fill="none" stroke="#000000" d="M322.5014,-268.0939C340.1075,-289.9247 363.058,-314.6759 388,-332 411.0866,-348.0354 439.3148,-360.4109 464.7757,-369.4691"/>
<polygon fill="#000000" stroke="#000000" points="463.7872,-372.8304 474.3819,-372.7791 466.0676,-366.2123 463.7872,-372.8304"/>
<text text-anchor="middle" x="370" y="-335" font-family="Helvetica,sans-Serif" font-size="35.00" fill="#0000ff">7</text>
</g>
<!-- security -->
<g id="node8" class="node">
<title>security</title>
<polygon fill="none" stroke="#000000" points="680,-96 388,-96 388,0 680,0 680,-96"/>
<text text-anchor="middle" x="534" y="-28" font-family="Helvetica,sans-Serif" font-size="80.00" fill="#000000">security</text>
</g>
<!-- security&#45;&gt;posix&#45;layer -->
<g id="edge12" class="edge">
<title>security&#45;&gt;posix&#45;layer</title>
<path fill="none" stroke="#000000" d="M680.2433,-93.3046C710.1595,-102.5723 741.8414,-112.387 772.3661,-121.8433"/>
<polygon fill="#000000" stroke="#000000" points="771.6445,-125.2838 782.2324,-124.8998 773.716,-118.5973 771.6445,-125.2838"/>
<text text-anchor="middle" x="708" y="-117" font-family="Helvetica,sans-Serif" font-size="35.00" fill="#0000ff">1</text>
</g>
<!-- nginx -->
<g id="node9" class="node">
<title>nginx</title>
<polygon fill="#000000" stroke="#000000" points="207,-172 0,-172 0,-76 207,-76 207,-172"/>
<text text-anchor="middle" x="103.5" y="-104" font-family="Helvetica,sans-Serif" font-size="80.00" fill="#ffffff">nginx</text>
</g>
<!-- nginx&#45;&gt;posix&#45;layer -->
<g id="edge15" class="edge">
<title>nginx&#45;&gt;posix&#45;layer</title>
<path fill="none" stroke="#000000" d="M207.255,-121.8302C210.047,-122.4666 212.8002,-123.1873 215.5,-124"/>
<path fill="none" stroke="#000000" d="M215.5,-124C413.6212,-183.6415 481.1098,-97.9752 680,-155 693.5709,-158.891 693.9073,-169.1605 708,-170"/>
<path fill="none" stroke="#000000" d="M708,-170C713.8684,-170.1816 719.8216,-170.3523 725.8303,-170.5127"/>
<polygon fill="#000000" stroke="#000000" points="725.9034,-174.0156 735.9898,-170.7729 726.0827,-167.0179 725.9034,-174.0156"/>
</g>
<!-- nginx&#45;&gt;net -->
<g id="edge16" class="edge">
<title>nginx&#45;&gt;net</title>
<path fill="none" stroke="#000000" d="M215.5,-124C222.4703,-126.0983 219.8647,-132.0094 224,-138 229.8309,-146.4468 236.2273,-155.1848 242.6508,-163.6684"/>
<polygon fill="#000000" stroke="#000000" points="239.944,-165.8906 248.8,-171.7064 245.5037,-161.6373 239.944,-165.8906"/>
</g>
</g>
</svg>
