<?xml version="1.0" encoding="UTF-8" standalone="no"?>
<!DOCTYPE svg PUBLIC "-//W3C//DTD SVG 1.1//EN"
 "http://www.w3.org/Graphics/SVG/1.1/DTD/svg11.dtd">
<!-- Generated by graphviz version 2.40.1 (20161225.0304)
 -->
<!-- Title: %3 Pages: 1 -->
<svg width="358pt" height="220pt"
 viewBox="0.00 0.00 358.00 220.00" xmlns="http://www.w3.org/2000/svg" xmlns:xlink="http://www.w3.org/1999/xlink">
<g id="graph0" class="graph" transform="scale(1 1) rotate(0) translate(4 216)">
<title>%3</title>
<polygon fill="#ffffff" stroke="transparent" points="-4,4 -4,-216 354,-216 354,4 -4,4"/>
<g id="clust1" class="cluster">
<title>clusterposix&#45;layer</title>
<path fill="#d3d3d3" stroke="#d3d3d3" d="M133.7035,-141.3513C133.7035,-141.3513 179.7035,-141.3513 179.7035,-141.3513 185.7035,-141.3513 191.7035,-147.3513 191.7035,-153.3513 191.7035,-153.3513 191.7035,-200.3513 191.7035,-200.3513 191.7035,-206.3513 185.7035,-212.3513 179.7035,-212.3513 179.7035,-212.3513 133.7035,-212.3513 133.7035,-212.3513 127.7035,-212.3513 121.7035,-206.3513 121.7035,-200.3513 121.7035,-200.3513 121.7035,-153.3513 121.7035,-153.3513 121.7035,-147.3513 127.7035,-141.3513 133.7035,-141.3513"/>
<text text-anchor="middle" x="156.7035" y="-200.3513" font-family="Times,serif" font-size="10.00" fill="#000000">posix&#45;layer</text>
</g>
<g id="clust2" class="cluster">
<title>clustermm</title>
<path fill="#d3d3d3" stroke="#d3d3d3" d="M168.8823,.068C168.8823,.068 295.8823,.068 295.8823,.068 301.8823,.068 307.8823,-5.932 307.8823,-11.932 307.8823,-11.932 307.8823,-108.932 307.8823,-108.932 307.8823,-114.932 301.8823,-120.932 295.8823,-120.932 295.8823,-120.932 168.8823,-120.932 168.8823,-120.932 162.8823,-120.932 156.8823,-114.932 156.8823,-108.932 156.8823,-108.932 156.8823,-11.932 156.8823,-11.932 156.8823,-5.932 162.8823,.068 168.8823,.068"/>
<text text-anchor="middle" x="232.3823" y="-108.932" font-family="Times,serif" font-size="10.00" fill="#000000">mm</text>
</g>
<g id="clust3" class="cluster">
<title>clusterukboot1</title>
<path fill="#d3d3d3" stroke="#d3d3d3" d="M88.0291,-23.8817C88.0291,-23.8817 134.0291,-23.8817 134.0291,-23.8817 140.0291,-23.8817 146.0291,-29.8817 146.0291,-35.8817 146.0291,-35.8817 146.0291,-82.8817 146.0291,-82.8817 146.0291,-88.8817 140.0291,-94.8817 134.0291,-94.8817 134.0291,-94.8817 88.0291,-94.8817 88.0291,-94.8817 82.0291,-94.8817 76.0291,-88.8817 76.0291,-82.8817 76.0291,-82.8817 76.0291,-35.8817 76.0291,-35.8817 76.0291,-29.8817 82.0291,-23.8817 88.0291,-23.8817"/>
<text text-anchor="middle" x="111.0291" y="-82.8817" font-family="Times,serif" font-size="10.00" fill="#000000">ukboot1</text>
</g>
<g id="clust4" class="cluster">
<title>clusterukargparse1</title>
<path fill="#d3d3d3" stroke="#d3d3d3" d="M11.7092,-119.0612C11.7092,-119.0612 80.7092,-119.0612 80.7092,-119.0612 86.7092,-119.0612 92.7092,-125.0612 92.7092,-131.0612 92.7092,-131.0612 92.7092,-178.0612 92.7092,-178.0612 92.7092,-184.0612 86.7092,-190.0612 80.7092,-190.0612 80.7092,-190.0612 11.7092,-190.0612 11.7092,-190.0612 5.7092,-190.0612 -.2908,-184.0612 -.2908,-178.0612 -.2908,-178.0612 -.2908,-131.0612 -.2908,-131.0612 -.2908,-125.0612 5.7092,-119.0612 11.7092,-119.0612"/>
<text text-anchor="middle" x="46.2092" y="-178.0612" font-family="Times,serif" font-size="10.00" fill="#000000">ukargparse1</text>
</g>
<!-- nolibc -->
<g id="node1" class="node">
<title>nolibc</title>
<path fill="#ffffff" stroke="#ffffff" d="M171.9416,-184.9922C171.9416,-184.9922 141.9416,-184.9922 141.9416,-184.9922 135.9416,-184.9922 129.9416,-178.9922 129.9416,-172.9922 129.9416,-172.9922 129.9416,-160.9922 129.9416,-160.9922 129.9416,-154.9922 135.9416,-148.9922 141.9416,-148.9922 141.9416,-148.9922 171.9416,-148.9922 171.9416,-148.9922 177.9416,-148.9922 183.9416,-154.9922 183.9416,-160.9922 183.9416,-160.9922 183.9416,-172.9922 183.9416,-172.9922 183.9416,-178.9922 177.9416,-184.9922 171.9416,-184.9922"/>
<text text-anchor="middle" x="156.9416" y="-163.8922" font-family="Helvetica,sans-Serif" font-size="12.00" fill="#000000">nolibc</text>
</g>
<!-- ukalloc -->
<g id="node2" class="node">
<title>ukalloc</title>
<path fill="#ffffff" stroke="#ffffff" d="M287.6204,-93.5728C287.6204,-93.5728 256.6204,-93.5728 256.6204,-93.5728 250.6204,-93.5728 244.6204,-87.5728 244.6204,-81.5728 244.6204,-81.5728 244.6204,-69.5728 244.6204,-69.5728 244.6204,-63.5728 250.6204,-57.5728 256.6204,-57.5728 256.6204,-57.5728 287.6204,-57.5728 287.6204,-57.5728 293.6204,-57.5728 299.6204,-63.5728 299.6204,-69.5728 299.6204,-69.5728 299.6204,-81.5728 299.6204,-81.5728 299.6204,-87.5728 293.6204,-93.5728 287.6204,-93.5728"/>
<text text-anchor="middle" x="272.1204" y="-72.4728" font-family="Helvetica,sans-Serif" font-size="12.00" fill="#000000">ukalloc</text>
</g>
<!-- ukallocbbuddy -->
<g id="node3" class="node">
<title>ukallocbbuddy</title>
<path fill="#ffffff" stroke="#ffffff" d="M247.6204,-43.5728C247.6204,-43.5728 176.6204,-43.5728 176.6204,-43.5728 170.6204,-43.5728 164.6204,-37.5728 164.6204,-31.5728 164.6204,-31.5728 164.6204,-19.5728 164.6204,-19.5728 164.6204,-13.5728 170.6204,-7.5728 176.6204,-7.5728 176.6204,-7.5728 247.6204,-7.5728 247.6204,-7.5728 253.6204,-7.5728 259.6204,-13.5728 259.6204,-19.5728 259.6204,-19.5728 259.6204,-31.5728 259.6204,-31.5728 259.6204,-37.5728 253.6204,-43.5728 247.6204,-43.5728"/>
<text text-anchor="middle" x="212.1204" y="-22.4728" font-family="Helvetica,sans-Serif" font-size="12.00" fill="#000000">ukallocbbuddy</text>
</g>
<!-- ukboot -->
<g id="node4" class="node">
<title>ukboot</title>
<path fill="#ffffff" stroke="#ffffff" d="M126.2672,-67.5226C126.2672,-67.5226 96.2672,-67.5226 96.2672,-67.5226 90.2672,-67.5226 84.2672,-61.5226 84.2672,-55.5226 84.2672,-55.5226 84.2672,-43.5226 84.2672,-43.5226 84.2672,-37.5226 90.2672,-31.5226 96.2672,-31.5226 96.2672,-31.5226 126.2672,-31.5226 126.2672,-31.5226 132.2672,-31.5226 138.2672,-37.5226 138.2672,-43.5226 138.2672,-43.5226 138.2672,-55.5226 138.2672,-55.5226 138.2672,-61.5226 132.2672,-67.5226 126.2672,-67.5226"/>
<text text-anchor="middle" x="111.2672" y="-46.4226" font-family="Helvetica,sans-Serif" font-size="12.00" fill="#000000">ukboot</text>
</g>
<!-- ukargparse -->
<g id="node5" class="node">
<title>ukargparse</title>
<path fill="#ffffff" stroke="#ffffff" d="M72.4473,-162.7021C72.4473,-162.7021 19.4473,-162.7021 19.4473,-162.7021 13.4473,-162.7021 7.4473,-156.7021 7.4473,-150.7021 7.4473,-150.7021 7.4473,-138.7021 7.4473,-138.7021 7.4473,-132.7021 13.4473,-126.7021 19.4473,-126.7021 19.4473,-126.7021 72.4473,-126.7021 72.4473,-126.7021 78.4473,-126.7021 84.4473,-132.7021 84.4473,-138.7021 84.4473,-138.7021 84.4473,-150.7021 84.4473,-150.7021 84.4473,-156.7021 78.4473,-162.7021 72.4473,-162.7021"/>
<text text-anchor="middle" x="45.9473" y="-141.6021" font-family="Helvetica,sans-Serif" font-size="12.00" fill="#000000">ukargparse</text>
</g>
<!-- Hello World -->
<g id="node10" class="node">
<title>Hello World</title>
<polygon fill="#000000" stroke="#000000" points="349.6376,-206.1503 203.6376,-206.1503 203.6376,-170.1503 349.6376,-170.1503 349.6376,-206.1503"/>
<text text-anchor="middle" x="276.6376" y="-182.1503" font-family="Helvetica,sans-Serif" font-size="25.00" fill="#ffffff">Hello World</text>
</g>
<!-- __8:clusterposix&#45;layer -->
<!-- Hello World&#45;&gt;__8:clusterposix&#45;layer -->
<g id="edge12" class="edge">
<title>Hello World&#45;&gt;__8:clusterposix&#45;layer</title>
<path fill="none" stroke="#000000" d="M203.4166,-181.2521C202.9167,-181.205 202.4181,-181.1581 201.9209,-181.1112"/>
<polygon fill="#000000" stroke="#000000" points="202.0278,-177.6059 191.7436,-180.1524 201.3712,-184.575 202.0278,-177.6059"/>
</g>
<!-- __0:clustermm -->
<!-- __1:clusterposix&#45;layer -->
<!-- __0:clustermm&#45;&gt;__1:clusterposix&#45;layer -->
<g id="edge7" class="edge">
<title>__0:clustermm&#45;&gt;__1:clusterposix&#45;layer</title>
<path fill="none" stroke="#000000" d="M192.9913,-121.0285C190.4862,-124.8822 187.9902,-128.7219 185.5473,-132.4799"/>
<polygon fill="#000000" stroke="#000000" points="182.48,-130.7766 179.9642,-141.0685 188.349,-134.5918 182.48,-130.7766"/>
<text text-anchor="middle" x="193.7693" y="-131.7542" font-family="Helvetica,sans-Serif" font-size="15.00" fill="#0000ff">1</text>
</g>
<!-- __1:clusterposix&#45;layer&#45;&gt;__0:clustermm -->
<g id="edge8" class="edge">
<title>__1:clusterposix&#45;layer&#45;&gt;__0:clustermm</title>
</g>
<!-- __2:clusterukboot1 -->
<!-- __3:clustermm -->
<!-- __2:clusterukboot1&#45;&gt;__3:clustermm -->
<g id="edge9" class="edge">
<title>__2:clusterukboot1&#45;&gt;__3:clustermm</title>
<path fill="none" stroke="#000000" d="M146.1295,-59.6855C146.2345,-59.6864 146.3396,-59.6873 146.4448,-59.6882"/>
<polygon fill="#000000" stroke="#000000" points="146.5103,-63.1888 156.5402,-59.7756 146.5709,-56.1891 146.5103,-63.1888"/>
<text text-anchor="middle" x="150.7871" y="-64.6868" font-family="Helvetica,sans-Serif" font-size="15.00" fill="#0000ff">1</text>
</g>
<!-- __4:clusterukboot1 -->
<!-- __5:clusterposix&#45;layer -->
<!-- __4:clusterukboot1&#45;&gt;__5:clusterposix&#45;layer -->
<g id="edge10" class="edge">
<title>__4:clusterukboot1&#45;&gt;__5:clusterposix&#45;layer</title>
<path fill="none" stroke="#000000" d="M124.8569,-94.9452C129.3319,-106.4545 134.3566,-119.3775 139.0691,-131.4976"/>
<polygon fill="#000000" stroke="#000000" points="135.879,-132.9513 142.7651,-141.0032 142.4032,-130.4146 135.879,-132.9513"/>
<text text-anchor="middle" x="127.463" y="-118.2214" font-family="Helvetica,sans-Serif" font-size="15.00" fill="#0000ff">3</text>
</g>
<!-- __6:clusterukboot1 -->
<!-- __7:clusterukargparse1 -->
<!-- __6:clusterukboot1&#45;&gt;__7:clusterukargparse1 -->
<g id="edge11" class="edge">
<title>__6:clusterukboot1&#45;&gt;__7:clusterukargparse1</title>
<path fill="none" stroke="#000000" d="M86.7081,-95.0938C83.3021,-100.0951 79.7688,-105.2833 76.272,-110.4178"/>
<polygon fill="#000000" stroke="#000000" points="73.1869,-108.73 70.4508,-118.9655 78.9727,-112.6703 73.1869,-108.73"/>
<text text-anchor="middle" x="76.9901" y="-107.7558" font-family="Helvetica,sans-Serif" font-size="15.00" fill="#0000ff">1</text>
</g>
</g>
</svg>
