<?xml version="1.0" encoding="UTF-8" standalone="no"?>
<!DOCTYPE svg PUBLIC "-//W3C//DTD SVG 1.1//EN"
 "http://www.w3.org/Graphics/SVG/1.1/DTD/svg11.dtd">
<!-- Generated by graphviz version 2.40.1 (20161225.0304)
 -->
<!-- Title: %3 Pages: 1 -->
<svg width="412pt" height="220pt"
 viewBox="0.00 0.00 412.00 220.00" xmlns="http://www.w3.org/2000/svg" xmlns:xlink="http://www.w3.org/1999/xlink">
<g id="graph0" class="graph" transform="scale(1 1) rotate(0) translate(4 216)">
<title>%3</title>
<polygon fill="#ffffff" stroke="transparent" points="-4,4 -4,-216 408,-216 408,4 -4,4"/>
<g id="clust1" class="cluster">
<title>clusterposix&#45;layer</title>
<path fill="#d3d3d3" stroke="#d3d3d3" d="M157.4516,-130.3628C157.4516,-130.3628 237.4516,-130.3628 237.4516,-130.3628 243.4516,-130.3628 249.4516,-136.3628 249.4516,-142.3628 249.4516,-142.3628 249.4516,-200.3628 249.4516,-200.3628 249.4516,-206.3628 243.4516,-212.3628 237.4516,-212.3628 237.4516,-212.3628 157.4516,-212.3628 157.4516,-212.3628 151.4516,-212.3628 145.4516,-206.3628 145.4516,-200.3628 145.4516,-200.3628 145.4516,-142.3628 145.4516,-142.3628 145.4516,-136.3628 151.4516,-130.3628 157.4516,-130.3628"/>
<text text-anchor="middle" x="197.4516" y="-192.3628" font-family="Times,serif" font-size="20.00" fill="#000000">posix&#45;layer</text>
</g>
<g id="clust2" class="cluster">
<title>clustermm</title>
<path fill="#d3d3d3" stroke="#d3d3d3" d="M192.1788,-27.4058C192.1788,-27.4058 342.1788,-27.4058 342.1788,-27.4058 348.1788,-27.4058 354.1788,-33.4058 354.1788,-39.4058 354.1788,-39.4058 354.1788,-104.4058 354.1788,-104.4058 354.1788,-110.4058 348.1788,-116.4058 342.1788,-116.4058 342.1788,-116.4058 192.1788,-116.4058 192.1788,-116.4058 186.1788,-116.4058 180.1788,-110.4058 180.1788,-104.4058 180.1788,-104.4058 180.1788,-39.4058 180.1788,-39.4058 180.1788,-33.4058 186.1788,-27.4058 192.1788,-27.4058"/>
<text text-anchor="middle" x="267.1788" y="-96.4058" font-family="Times,serif" font-size="20.00" fill="#000000">mm</text>
</g>
<g id="clust3" class="cluster">
<title>clusterukboot1</title>
<path fill="#d3d3d3" stroke="#d3d3d3" d="M97.4154,-.367C97.4154,-.367 153.4154,-.367 153.4154,-.367 159.4154,-.367 165.4154,-6.367 165.4154,-12.367 165.4154,-12.367 165.4154,-70.367 165.4154,-70.367 165.4154,-76.367 159.4154,-82.367 153.4154,-82.367 153.4154,-82.367 97.4154,-82.367 97.4154,-82.367 91.4154,-82.367 85.4154,-76.367 85.4154,-70.367 85.4154,-70.367 85.4154,-12.367 85.4154,-12.367 85.4154,-6.367 91.4154,-.367 97.4154,-.367"/>
<text text-anchor="middle" x="125.4154" y="-62.367" font-family="Times,serif" font-size="20.00" fill="#000000">ukboot1</text>
</g>
<g id="clust4" class="cluster">
<title>clusterukargparse1</title>
<path fill="#d3d3d3" stroke="#d3d3d3" d="M12.1277,-112.071C12.1277,-112.071 101.1277,-112.071 101.1277,-112.071 107.1277,-112.071 113.1277,-118.071 113.1277,-124.071 113.1277,-124.071 113.1277,-182.071 113.1277,-182.071 113.1277,-188.071 107.1277,-194.071 101.1277,-194.071 101.1277,-194.071 12.1277,-194.071 12.1277,-194.071 6.1277,-194.071 .1277,-188.071 .1277,-182.071 .1277,-182.071 .1277,-124.071 .1277,-124.071 .1277,-118.071 6.1277,-112.071 12.1277,-112.071"/>
<text text-anchor="middle" x="56.6277" y="-174.071" font-family="Times,serif" font-size="20.00" fill="#000000">ukargparse1</text>
</g>
<!-- nolibc -->
<g id="node1" class="node">
<title>nolibc</title>
<path fill="#ffffff" stroke="#ffffff" d="M212.272,-174.7636C212.272,-174.7636 182.272,-174.7636 182.272,-174.7636 176.272,-174.7636 170.272,-168.7636 170.272,-162.7636 170.272,-162.7636 170.272,-150.7636 170.272,-150.7636 170.272,-144.7636 176.272,-138.7636 182.272,-138.7636 182.272,-138.7636 212.272,-138.7636 212.272,-138.7636 218.272,-138.7636 224.272,-144.7636 224.272,-150.7636 224.272,-150.7636 224.272,-162.7636 224.272,-162.7636 224.272,-168.7636 218.272,-174.7636 212.272,-174.7636"/>
<text text-anchor="middle" x="197.272" y="-153.6636" font-family="Helvetica,sans-Serif" font-size="12.00" fill="#000000">nolibc</text>
</g>
<!-- ukalloc -->
<g id="node2" class="node">
<title>ukalloc</title>
<path fill="#ffffff" stroke="#ffffff" d="M334.2901,-71.5928C334.2901,-71.5928 303.2901,-71.5928 303.2901,-71.5928 297.2901,-71.5928 291.2901,-65.5928 291.2901,-59.5928 291.2901,-59.5928 291.2901,-47.5928 291.2901,-47.5928 291.2901,-41.5928 297.2901,-35.5928 303.2901,-35.5928 303.2901,-35.5928 334.2901,-35.5928 334.2901,-35.5928 340.2901,-35.5928 346.2901,-41.5928 346.2901,-47.5928 346.2901,-47.5928 346.2901,-59.5928 346.2901,-59.5928 346.2901,-65.5928 340.2901,-71.5928 334.2901,-71.5928"/>
<text text-anchor="middle" x="318.7901" y="-50.4928" font-family="Helvetica,sans-Serif" font-size="12.00" fill="#000000">ukalloc</text>
</g>
<!-- nolibc&#45;&gt;ukalloc -->
<g id="edge7" class="edge">
<title>nolibc&#45;&gt;ukalloc</title>
<path fill="none" stroke="#000000" d="M218.7173,-138.5563C238.5,-121.7604 268.0272,-96.6914 289.8854,-78.1334"/>
<polygon fill="#000000" stroke="#000000" points="292.2013,-80.7585 297.5592,-71.6182 287.6708,-75.4223 292.2013,-80.7585"/>
<text text-anchor="middle" x="249.8013" y="-113.3448" font-family="Helvetica,sans-Serif" font-size="15.00" fill="#0000ff">6</text>
</g>
<!-- ukalloc&#45;&gt;nolibc -->
<g id="edge1" class="edge">
<title>ukalloc&#45;&gt;nolibc</title>
</g>
<!-- ukallocbbuddy -->
<g id="node3" class="node">
<title>ukallocbbuddy</title>
<path fill="#ffffff" stroke="#ffffff" d="M271.2818,-78.3716C271.2818,-78.3716 200.2818,-78.3716 200.2818,-78.3716 194.2818,-78.3716 188.2818,-72.3716 188.2818,-66.3716 188.2818,-66.3716 188.2818,-54.3716 188.2818,-54.3716 188.2818,-48.3716 194.2818,-42.3716 200.2818,-42.3716 200.2818,-42.3716 271.2818,-42.3716 271.2818,-42.3716 277.2818,-42.3716 283.2818,-48.3716 283.2818,-54.3716 283.2818,-54.3716 283.2818,-66.3716 283.2818,-66.3716 283.2818,-72.3716 277.2818,-78.3716 271.2818,-78.3716"/>
<text text-anchor="middle" x="235.7818" y="-57.2716" font-family="Helvetica,sans-Serif" font-size="12.00" fill="#000000">ukallocbbuddy</text>
</g>
<!-- ukallocbbuddy&#45;&gt;nolibc -->
<g id="edge2" class="edge">
<title>ukallocbbuddy&#45;&gt;nolibc</title>
<path fill="none" stroke="#000000" d="M228.5384,-78.5022C222.8368,-92.7736 214.7957,-112.9009 208.296,-129.17"/>
<polygon fill="#000000" stroke="#000000" points="204.9428,-128.1295 204.4829,-138.7143 211.4432,-130.7265 204.9428,-128.1295"/>
<text text-anchor="middle" x="213.9172" y="-108.8361" font-family="Helvetica,sans-Serif" font-size="15.00" fill="#0000ff">1</text>
</g>
<!-- ukallocbbuddy&#45;&gt;ukalloc -->
<g id="edge3" class="edge">
<title>ukallocbbuddy&#45;&gt;ukalloc</title>
<path fill="none" stroke="#000000" d="M283.5871,-56.4677C283.7493,-56.4544 283.9113,-56.4412 284.0732,-56.428"/>
<polygon fill="#000000" stroke="#000000" points="281.5469,-60.1461 291.2288,-55.8436 280.9771,-53.1693 281.5469,-60.1461"/>
<text text-anchor="middle" x="288.3302" y="-61.4478" font-family="Helvetica,sans-Serif" font-size="15.00" fill="#0000ff">3</text>
</g>
<!-- ukboot -->
<g id="node4" class="node">
<title>ukboot</title>
<path fill="#ffffff" stroke="#ffffff" d="M140.8361,-44.6354C140.8361,-44.6354 110.8361,-44.6354 110.8361,-44.6354 104.8361,-44.6354 98.8361,-38.6354 98.8361,-32.6354 98.8361,-32.6354 98.8361,-20.6354 98.8361,-20.6354 98.8361,-14.6354 104.8361,-8.6354 110.8361,-8.6354 110.8361,-8.6354 140.8361,-8.6354 140.8361,-8.6354 146.8361,-8.6354 152.8361,-14.6354 152.8361,-20.6354 152.8361,-20.6354 152.8361,-32.6354 152.8361,-32.6354 152.8361,-38.6354 146.8361,-44.6354 140.8361,-44.6354"/>
<text text-anchor="middle" x="125.8361" y="-23.5354" font-family="Helvetica,sans-Serif" font-size="12.00" fill="#000000">ukboot</text>
</g>
<!-- ukboot&#45;&gt;nolibc -->
<g id="edge4" class="edge">
<title>ukboot&#45;&gt;nolibc</title>
<path fill="none" stroke="#000000" d="M135.769,-44.7292C147.8559,-66.7469 168.3783,-104.1307 182.364,-129.6072"/>
<polygon fill="#000000" stroke="#000000" points="179.3128,-131.3223 187.1932,-138.404 185.449,-127.9537 179.3128,-131.3223"/>
<text text-anchor="middle" x="154.5665" y="-92.1682" font-family="Helvetica,sans-Serif" font-size="15.00" fill="#0000ff">3</text>
</g>
<!-- ukboot&#45;&gt;ukallocbbuddy -->
<g id="edge5" class="edge">
<title>ukboot&#45;&gt;ukallocbbuddy</title>
<path fill="none" stroke="#000000" d="M153.0137,-34.9747C160.7657,-37.3534 169.5184,-40.0391 178.3559,-42.7508"/>
<polygon fill="#000000" stroke="#000000" points="177.3485,-46.1027 187.9353,-45.6902 179.402,-39.4107 177.3485,-46.1027"/>
<text text-anchor="middle" x="161.1848" y="-43.8628" font-family="Helvetica,sans-Serif" font-size="15.00" fill="#0000ff">1</text>
</g>
<!-- ukargparse -->
<g id="node5" class="node">
<title>ukargparse</title>
<path fill="#ffffff" stroke="#ffffff" d="M82.8197,-156.1591C82.8197,-156.1591 29.8197,-156.1591 29.8197,-156.1591 23.8197,-156.1591 17.8197,-150.1591 17.8197,-144.1591 17.8197,-144.1591 17.8197,-132.1591 17.8197,-132.1591 17.8197,-126.1591 23.8197,-120.1591 29.8197,-120.1591 29.8197,-120.1591 82.8197,-120.1591 82.8197,-120.1591 88.8197,-120.1591 94.8197,-126.1591 94.8197,-132.1591 94.8197,-132.1591 94.8197,-144.1591 94.8197,-144.1591 94.8197,-150.1591 88.8197,-156.1591 82.8197,-156.1591"/>
<text text-anchor="middle" x="56.3197" y="-135.0591" font-family="Helvetica,sans-Serif" font-size="12.00" fill="#000000">ukargparse</text>
</g>
<!-- ukboot&#45;&gt;ukargparse -->
<g id="edge6" class="edge">
<title>ukboot&#45;&gt;ukargparse</title>
<path fill="none" stroke="#000000" d="M114.3569,-45.0513C103.0698,-63.1589 85.7214,-90.9906 72.9302,-111.5113"/>
<polygon fill="#000000" stroke="#000000" points="69.905,-109.7481 67.5854,-120.0859 75.8454,-113.451 69.905,-109.7481"/>
<text text-anchor="middle" x="89.1435" y="-83.2813" font-family="Helvetica,sans-Serif" font-size="15.00" fill="#0000ff">1</text>
</g>
<!-- Hello World -->
<g id="node6" class="node">
<title>Hello World</title>
<polygon fill="#000000" stroke="#000000" points="404.1343,-211.6963 258.1343,-211.6963 258.1343,-175.6963 404.1343,-175.6963 404.1343,-211.6963"/>
<text text-anchor="middle" x="331.1343" y="-187.6963" font-family="Helvetica,sans-Serif" font-size="25.00" fill="#ffffff">Hello World</text>
</g>
<!-- Hello World&#45;&gt;nolibc -->
<g id="edge8" class="edge">
<title>Hello World&#45;&gt;nolibc</title>
<path fill="none" stroke="#000000" d="M265.7717,-175.6627C254.9351,-172.6729 244.0437,-169.668 234.2345,-166.9616"/>
<polygon fill="#000000" stroke="#000000" points="235.0225,-163.5483 224.4517,-164.2625 233.1607,-170.2962 235.0225,-163.5483"/>
<text text-anchor="middle" x="245.5031" y="-176.3122" font-family="Helvetica,sans-Serif" font-size="15.00" fill="#0000ff">1</text>
</g>
</g>
</svg>
