<?xml version="1.0" encoding="utf-8" standalone="no"?>
<!DOCTYPE svg PUBLIC "-//W3C//DTD SVG 1.1//EN"
  "http://www.w3.org/Graphics/SVG/1.1/DTD/svg11.dtd">
<!-- Created with matplotlib (https://matplotlib.org/) -->
<svg height="360pt" version="1.1" viewBox="0 0 576 360" width="576pt" xmlns="http://www.w3.org/2000/svg" xmlns:xlink="http://www.w3.org/1999/xlink">
 <metadata>
  <rdf:RDF xmlns:cc="http://creativecommons.org/ns#" xmlns:dc="http://purl.org/dc/elements/1.1/" xmlns:rdf="http://www.w3.org/1999/02/22-rdf-syntax-ns#">
   <cc:Work>
    <dc:type rdf:resource="http://purl.org/dc/dcmitype/StillImage"/>
    <dc:date>2021-03-06T08:15:05.359239</dc:date>
    <dc:format>image/svg+xml</dc:format>
    <dc:creator>
     <cc:Agent>
      <dc:title>Matplotlib v3.3.4, https://matplotlib.org/</dc:title>
     </cc:Agent>
    </dc:creator>
   </cc:Work>
  </rdf:RDF>
 </metadata>
 <defs>
  <style type="text/css">*{stroke-linecap:butt;stroke-linejoin:round;}</style>
 </defs>
 <g id="figure_1">
  <g id="patch_1">
   <path d="M 0 360 
L 576 360 
L 576 0 
L 0 0 
z
" style="fill:#ffffff;"/>
  </g>
  <g id="axes_1">
   <g id="patch_2">
    <path d="M 67.37239 250.349266 
L 560.88 250.349266 
L 560.88 15.12 
L 67.37239 15.12 
z
" style="fill:#ffffff;"/>
   </g>
   <g id="patch_3">
    <path d="M 67.37239 250.349266 
L 67.37239 15.12 
" style="fill:none;stroke:#000000;stroke-linecap:square;stroke-linejoin:miter;"/>
   </g>
   <g id="patch_4">
    <path d="M 560.88 250.349266 
L 560.88 15.12 
" style="fill:none;stroke:#000000;stroke-linecap:square;stroke-linejoin:miter;"/>
   </g>
   <g id="patch_5">
    <path d="M 67.37239 250.349266 
L 560.88 250.349266 
" style="fill:none;stroke:#000000;stroke-linecap:square;stroke-linejoin:miter;"/>
   </g>
   <g id="patch_6">
    <path d="M 67.37239 15.12 
L 560.88 15.12 
" style="fill:none;stroke:#000000;stroke-linecap:square;stroke-linejoin:miter;"/>
   </g>
   <g id="matplotlib.axis_1">
    <g id="xtick_1">
     <g id="line2d_1"/>
     <g id="line2d_2"/>
     <g id="text_1">
      <!-- Mirage Solo5 -->
      <g transform="translate(26.744724 338.191)rotate(-45)scale(0.18 -0.18)">
       <defs>
        <path d="M 46.796875 0 
L 67.296875 61.171875 
L 67.296875 0 
L 76.09375 0 
L 76.09375 73 
L 63.203125 73 
L 42 9.40625 
L 20.40625 73 
L 7.5 73 
L 7.5 0 
L 16.296875 0 
L 16.296875 61.171875 
L 37 0 
z
" id="Nimbus_Sans_L_Regular-77"/>
        <path d="M 15 52.46875 
L 6.703125 52.46875 
L 6.703125 0 
L 15 0 
z
M 15 73 
L 6.59375 73 
L 6.59375 62.484375 
L 15 62.484375 
z
" id="Nimbus_Sans_L_Regular-105"/>
        <path d="M 6.90625 52 
L 6.90625 0 
L 15.296875 0 
L 15.296875 26.984375 
C 15.296875 34.421875 17.203125 39.28125 21.203125 42.15625 
C 23.796875 44.046875 26.296875 44.640625 32.09375 44.734375 
L 32.09375 53.1875 
C 30.703125 53.890625 30 54 28.90625 54 
C 23.5 54 19.40625 50.796875 14.59375 42.96875 
L 14.59375 52 
z
" id="Nimbus_Sans_L_Regular-114"/>
        <path d="M 53.5 5.1875 
C 52.59375 5 52.203125 5 51.703125 5 
C 48.796875 5 47.203125 6.484375 47.203125 9.078125 
L 47.203125 39.71875 
C 47.203125 48.984375 40.40625 54 27.5 54 
C 19.90625 54 13.59375 51.796875 10.09375 47.890625 
C 7.703125 45.203125 6.703125 42.21875 6.5 37.03125 
L 14.90625 37.03125 
C 15.59375 43.40625 19.40625 46.296875 27.203125 46.296875 
C 34.703125 46.296875 38.90625 43.5 38.90625 38.53125 
L 38.90625 36.34375 
C 38.90625 32.859375 36.796875 31.359375 30.203125 30.5625 
C 18.40625 29.078125 16.59375 28.671875 13.40625 27.390625 
C 7.296875 24.890625 4.203125 20.21875 4.203125 13.453125 
C 4.203125 4 10.796875 -2 21.40625 -2 
C 28 -2 33.296875 0.296875 39.203125 5.6875 
C 39.796875 0.390625 42.40625 -2 47.796875 -2 
C 49.5 -2 50.796875 -1.8125 53.5 -1.109375 
z
M 38.90625 16.734375 
C 38.90625 13.953125 38.09375 12.265625 35.59375 9.96875 
C 32.203125 6.890625 28.09375 5.296875 23.203125 5.296875 
C 16.703125 5.296875 12.90625 8.375 12.90625 13.65625 
C 12.90625 19.125 16.59375 21.90625 25.5 23.203125 
C 34.296875 24.40625 36.09375 24.796875 38.90625 26.09375 
z
" id="Nimbus_Sans_L_Regular-97"/>
        <path d="M 41.203125 52.484375 
L 41.203125 44.890625 
C 37 51.09375 31.90625 54 25.203125 54 
C 11.90625 54 2.90625 42.40625 2.90625 25.5 
C 2.90625 16.9375 5.203125 9.96875 9.5 5 
C 13.40625 0.59375 19 -2 24.5 -2 
C 31.09375 -2 35.703125 0.796875 40.40625 7.390625 
L 40.40625 4.6875 
C 40.40625 -2.421875 39.5 -6.890625 37.40625 -9.90625 
C 35.203125 -13.140625 30.90625 -15 25.796875 -15 
C 22 -15 18.59375 -13.96875 16.296875 -12.09375 
C 14.40625 -10.53125 13.59375 -9.078125 13.09375 -5.859375 
L 4.59375 -5.859375 
C 5.5 -16.109375 13.203125 -22 25.5 -22 
C 33.296875 -22 40 -19.5 43.40625 -15.3125 
C 47.40625 -10.328125 48.90625 -3.46875 48.90625 8.875 
L 48.90625 52.484375 
z
M 26.09375 46.296875 
C 35.09375 46.296875 40.40625 38.734375 40.40625 25.6875 
C 40.40625 13.25 35 5.6875 26.203125 5.6875 
C 17.09375 5.6875 11.59375 13.359375 11.59375 25.984375 
C 11.59375 38.53125 17.203125 46.296875 26.09375 46.296875 
z
" id="Nimbus_Sans_L_Regular-103"/>
        <path d="M 51.296875 23.1875 
C 51.296875 31.21875 50.703125 36.109375 49.203125 40.078125 
C 45.796875 48.796875 37.796875 54 28 54 
C 13.40625 54 4 42.71875 4 25.296875 
C 4 8.515625 13.09375 -2 27.796875 -2 
C 39.796875 -2 48.09375 4.796875 50.203125 15.90625 
L 41.796875 15.90625 
C 39.5 9.1875 34.796875 5.6875 28.09375 5.6875 
C 22.796875 5.6875 18.296875 8.03125 15.5 12.296875 
C 13.5 15.21875 12.796875 18.140625 12.703125 23.1875 
z
M 12.90625 30 
C 13.59375 39.875 19.5 46.296875 27.90625 46.296875 
C 36.09375 46.296875 42.40625 39.359375 42.40625 30.609375 
C 42.40625 30.40625 42.40625 30.203125 42.296875 30 
z
" id="Nimbus_Sans_L_Regular-101"/>
        <path d="M 59.59375 51.484375 
C 59.5 65.6875 49.703125 74 32.90625 74 
C 16.90625 74 7 65.796875 7 52.6875 
C 7 43.84375 11.703125 38.28125 21.296875 35.796875 
L 39.40625 31.03125 
C 48.59375 28.640625 52.796875 24.96875 52.796875 19.3125 
C 52.796875 15.4375 50.703125 11.453125 47.59375 9.265625 
C 44.703125 7.28125 40.09375 6.1875 34.203125 6.1875 
C 26.296875 6.1875 20.90625 8.078125 17.40625 12.25 
C 14.703125 15.4375 13.5 18.90625 13.59375 23.375 
L 4.796875 23.375 
C 4.90625 16.71875 6.203125 12.34375 9.09375 8.375 
C 14.09375 1.59375 22.5 -2 33.59375 -2 
C 42.296875 -2 49.40625 0 54.09375 3.59375 
C 59 7.484375 62.09375 13.9375 62.09375 20.203125 
C 62.09375 29.140625 56.5 35.6875 46.59375 38.375 
L 28.296875 43.25 
C 19.5 45.625 16.296875 48.40625 16.296875 53.96875 
C 16.296875 61.328125 22.796875 66.1875 32.59375 66.1875 
C 44.203125 66.1875 50.703125 60.921875 50.796875 51.484375 
z
" id="Nimbus_Sans_L_Regular-83"/>
        <path d="M 27.203125 54 
C 12.5 54 3.59375 43.5 3.59375 25.984375 
C 3.59375 8.484375 12.40625 -2 27.296875 -2 
C 42 -2 51 8.484375 51 25.59375 
C 51 43.609375 42.296875 54 27.203125 54 
z
M 27.296875 46.296875 
C 36.703125 46.296875 42.296875 38.625 42.296875 25.6875 
C 42.296875 13.453125 36.5 5.6875 27.296875 5.6875 
C 18 5.6875 12.296875 13.359375 12.296875 25.984375 
C 12.296875 38.53125 18 46.296875 27.296875 46.296875 
z
" id="Nimbus_Sans_L_Regular-111"/>
        <path d="M 15.203125 73 
L 6.796875 73 
L 6.796875 0 
L 15.203125 0 
z
" id="Nimbus_Sans_L_Regular-108"/>
        <path d="M 47.59375 71 
L 11 71 
L 5.703125 32.4375 
L 13.796875 32.4375 
C 17.90625 37.296875 21.296875 39 26.796875 39 
C 36.296875 39 42.296875 32.53125 42.296875 22.09375 
C 42.296875 11.953125 36.40625 5.796875 26.796875 5.796875 
C 19.09375 5.796875 14.40625 9.671875 12.296875 17.625 
L 3.5 17.625 
C 4.703125 11.859375 5.703125 9.078125 7.796875 6.484375 
C 11.796875 1.09375 19 -2 27 -2 
C 41.296875 -2 51.296875 8.375 51.296875 23.28125 
C 51.296875 37.203125 42 46.796875 28.40625 46.796875 
C 23.40625 46.796875 19.40625 45.5 15.296875 42.5 
L 18.09375 62.296875 
L 47.59375 62.296875 
z
" id="Nimbus_Sans_L_Regular-53"/>
       </defs>
       <use transform="scale(0.996264)" xlink:href="#Nimbus_Sans_L_Regular-77"/>
       <use transform="translate(82.98843 0)scale(0.996264)" xlink:href="#Nimbus_Sans_L_Regular-105"/>
       <use transform="translate(105.105215 0)scale(0.996264)" xlink:href="#Nimbus_Sans_L_Regular-114"/>
       <use transform="translate(137.284348 0)scale(0.996264)" xlink:href="#Nimbus_Sans_L_Regular-97"/>
       <use transform="translate(192.676024 0)scale(0.996264)" xlink:href="#Nimbus_Sans_L_Regular-103"/>
       <use transform="translate(248.067701 0)scale(0.996264)" xlink:href="#Nimbus_Sans_L_Regular-101"/>
       <use transform="translate(331.154548 0)scale(0.996264)" xlink:href="#Nimbus_Sans_L_Regular-83"/>
       <use transform="translate(397.604579 0)scale(0.996264)" xlink:href="#Nimbus_Sans_L_Regular-111"/>
       <use transform="translate(452.996256 0)scale(0.996264)" xlink:href="#Nimbus_Sans_L_Regular-108"/>
       <use transform="translate(475.11304 0)scale(0.996264)" xlink:href="#Nimbus_Sans_L_Regular-111"/>
       <use transform="translate(530.504717 0)scale(0.996264)" xlink:href="#Nimbus_Sans_L_Regular-53"/>
      </g>
     </g>
    </g>
    <g id="xtick_2">
     <g id="line2d_3"/>
     <g id="line2d_4"/>
     <g id="text_2">
      <!-- Linux FC -->
      <g transform="translate(99.826313 313.990859)rotate(-45)scale(0.18 -0.18)">
       <defs>
        <path d="M 17.296875 73 
L 8 73 
L 8 0 
L 53.296875 0 
L 53.296875 8.1875 
L 17.296875 8.1875 
z
" id="Nimbus_Sans_L_Regular-76"/>
        <path d="M 7 52 
L 7 0 
L 15.40625 0 
L 15.40625 28.671875 
C 15.40625 39.671875 21 46.6875 29.59375 46.6875 
C 36.203125 46.6875 40.40625 42.6875 40.40625 36.375 
L 40.40625 0 
L 48.703125 0 
L 48.703125 39.671875 
C 48.703125 48.390625 42.203125 54 32.09375 54 
C 24.296875 54 19.296875 50.984375 14.703125 43.6875 
L 14.703125 52 
z
" id="Nimbus_Sans_L_Regular-110"/>
        <path d="M 48.203125 0.296875 
L 48.203125 52 
L 39.90625 52 
L 39.90625 22.71875 
C 39.90625 12.1875 34.296875 5.296875 25.59375 5.296875 
C 19 5.296875 14.796875 9.234375 14.796875 15.4375 
L 14.796875 52 
L 6.5 52 
L 6.5 12.1875 
C 6.5 3.59375 13 -2 23.203125 -2 
C 30.90625 -2 35.796875 0.6875 40.703125 7.5625 
L 40.703125 0.296875 
z
" id="Nimbus_Sans_L_Regular-117"/>
        <path d="M 29.203125 26.890625 
L 46.796875 52 
L 37.40625 52 
L 24.796875 33.125 
L 12.203125 52 
L 2.703125 52 
L 20.203125 26.484375 
L 1.703125 0 
L 11.203125 0 
L 24.5 19.9375 
L 37.59375 0 
L 47.296875 0 
z
" id="Nimbus_Sans_L_Regular-120"/>
        <path d="M 18.296875 33 
L 53.09375 33 
L 53.09375 41.1875 
L 18.296875 41.1875 
L 18.296875 64.796875 
L 57.90625 64.796875 
L 57.90625 73 
L 9 73 
L 9 0 
L 18.296875 0 
z
" id="Nimbus_Sans_L_Regular-70"/>
        <path d="M 66.203125 50.296875 
C 63.296875 66.1875 54.09375 74 38.09375 74 
C 28.296875 74 20.40625 70.890625 15 64.90625 
C 8.40625 57.75 4.796875 47.421875 4.796875 35.6875 
C 4.796875 23.78125 8.5 13.546875 15.40625 6.484375 
C 21 0.6875 28.203125 -2 37.703125 -2 
C 55.5 -2 65.5 7.578125 67.703125 26.75 
L 58.09375 26.75 
C 57.296875 21.78125 56.296875 18.40625 54.796875 15.53125 
C 51.796875 9.5625 45.59375 6.1875 37.796875 6.1875 
C 23.296875 6.1875 14.09375 17.71875 14.09375 35.796875 
C 14.09375 54.375 22.90625 65.796875 37 65.796875 
C 42.90625 65.796875 48.40625 64 51.40625 61.21875 
C 54.09375 58.734375 55.59375 55.65625 56.703125 50.296875 
z
" id="Nimbus_Sans_L_Regular-67"/>
       </defs>
       <use transform="scale(0.996264)" xlink:href="#Nimbus_Sans_L_Regular-76"/>
       <use transform="translate(55.391677 0)scale(0.996264)" xlink:href="#Nimbus_Sans_L_Regular-105"/>
       <use transform="translate(77.508461 0)scale(0.996264)" xlink:href="#Nimbus_Sans_L_Regular-110"/>
       <use transform="translate(131.904041 0)scale(0.996264)" xlink:href="#Nimbus_Sans_L_Regular-117"/>
       <use transform="translate(187.295718 0)scale(0.996264)" xlink:href="#Nimbus_Sans_L_Regular-120"/>
       <use transform="translate(264.804089 0)scale(0.996264)" xlink:href="#Nimbus_Sans_L_Regular-70"/>
       <use transform="translate(325.675719 0)scale(0.996264)" xlink:href="#Nimbus_Sans_L_Regular-67"/>
      </g>
     </g>
    </g>
    <g id="xtick_3">
     <g id="line2d_5"/>
     <g id="line2d_6"/>
     <g id="text_3">
      <!-- Lupine FC -->
      <g transform="translate(141.524712 322.112534)rotate(-45)scale(0.18 -0.18)">
       <defs>
        <path d="M 5.40625 -22 
L 13.796875 -22 
L 13.796875 5.796875 
C 18.203125 0.390625 23.09375 -2 29.90625 -2 
C 43.40625 -2 52.296875 8.875 52.296875 25.5 
C 52.296875 43 43.703125 54 29.796875 54 
C 22.703125 54 17 50.796875 13.09375 44.59375 
L 13.09375 52.484375 
L 5.40625 52.484375 
z
M 28.40625 46.1875 
C 37.59375 46.1875 43.59375 38.125 43.59375 25.6875 
C 43.59375 13.859375 37.5 5.796875 28.40625 5.796875 
C 19.59375 5.796875 13.796875 13.75 13.796875 25.984375 
C 13.796875 38.234375 19.59375 46.1875 28.40625 46.1875 
z
" id="Nimbus_Sans_L_Regular-112"/>
       </defs>
       <use transform="scale(0.996264)" xlink:href="#Nimbus_Sans_L_Regular-76"/>
       <use transform="translate(55.391677 0)scale(0.996264)" xlink:href="#Nimbus_Sans_L_Regular-117"/>
       <use transform="translate(110.783354 0)scale(0.996264)" xlink:href="#Nimbus_Sans_L_Regular-112"/>
       <use transform="translate(166.175031 0)scale(0.996264)" xlink:href="#Nimbus_Sans_L_Regular-105"/>
       <use transform="translate(188.291815 0)scale(0.996264)" xlink:href="#Nimbus_Sans_L_Regular-110"/>
       <use transform="translate(243.683492 0)scale(0.996264)" xlink:href="#Nimbus_Sans_L_Regular-101"/>
       <use transform="translate(326.770339 0)scale(0.996264)" xlink:href="#Nimbus_Sans_L_Regular-70"/>
       <use transform="translate(387.641969 0)scale(0.996264)" xlink:href="#Nimbus_Sans_L_Regular-67"/>
      </g>
     </g>
    </g>
    <g id="xtick_4">
     <g id="line2d_7"/>
     <g id="line2d_8"/>
     <g id="text_4">
      <!-- Linux KVM -->
      <g transform="translate(187.952593 324.566101)rotate(-45)scale(0.18 -0.18)">
       <defs>
        <path d="M 17.203125 25.53125 
L 29.09375 37.4375 
L 54.796875 0 
L 65.796875 0 
L 35.796875 43.25 
L 65.5 73 
L 53.5 73 
L 17.203125 36.046875 
L 17.203125 73 
L 7.90625 73 
L 7.90625 0 
L 17.203125 0 
z
" id="Nimbus_Sans_L_Regular-75"/>
        <path d="M 39.203125 0 
L 64.5 73 
L 54.59375 73 
L 34.40625 11.203125 
L 13 73 
L 3 73 
L 29.203125 0 
z
" id="Nimbus_Sans_L_Regular-86"/>
       </defs>
       <use transform="scale(0.996264)" xlink:href="#Nimbus_Sans_L_Regular-76"/>
       <use transform="translate(55.391677 0)scale(0.996264)" xlink:href="#Nimbus_Sans_L_Regular-105"/>
       <use transform="translate(77.508461 0)scale(0.996264)" xlink:href="#Nimbus_Sans_L_Regular-110"/>
       <use transform="translate(131.904041 0)scale(0.996264)" xlink:href="#Nimbus_Sans_L_Regular-117"/>
       <use transform="translate(187.295718 0)scale(0.996264)" xlink:href="#Nimbus_Sans_L_Regular-120"/>
       <use transform="translate(264.804089 0)scale(0.996264)" xlink:href="#Nimbus_Sans_L_Regular-75"/>
       <use transform="translate(331.25412 0)scale(0.996264)" xlink:href="#Nimbus_Sans_L_Regular-86"/>
       <use transform="translate(397.704151 0)scale(0.996264)" xlink:href="#Nimbus_Sans_L_Regular-77"/>
      </g>
     </g>
    </g>
    <g id="xtick_5">
     <g id="line2d_9"/>
     <g id="line2d_10"/>
     <g id="text_5">
      <!-- Rump KVM -->
      <g transform="translate(233.664076 328.205378)rotate(-45)scale(0.18 -0.18)">
       <defs>
        <path d="M 18.59375 31.796875 
L 42.59375 31.796875 
C 50.90625 31.796875 54.59375 27.734375 54.59375 18.609375 
L 54.5 12.03125 
C 54.5 7.46875 55.296875 3 56.59375 0 
L 67.90625 0 
L 67.90625 2.296875 
C 64.40625 4.734375 63.703125 7.359375 63.5 17.203125 
C 63.40625 29.359375 61.5 32.984375 53.59375 36.390625 
C 61.796875 40.390625 65.09375 45.421875 65.09375 53.625 
C 65.09375 66.09375 57.203125 73 42.90625 73 
L 9.296875 73 
L 9.296875 0 
L 18.59375 0 
z
M 18.59375 40 
L 18.59375 64.796875 
L 41.09375 64.796875 
C 46.296875 64.796875 49.296875 64 51.59375 62.03125 
C 54.09375 59.953125 55.40625 56.6875 55.40625 52.34375 
C 55.40625 43.84375 51 40 41.09375 40 
z
" id="Nimbus_Sans_L_Regular-82"/>
        <path d="M 7 52 
L 7 0 
L 15.40625 0 
L 15.40625 32.640625 
C 15.40625 40.578125 20.90625 46.6875 27.703125 46.6875 
C 33.90625 46.6875 37.40625 42.875 37.40625 36.171875 
L 37.40625 0 
L 45.796875 0 
L 45.796875 32.953125 
C 45.796875 40.578125 51.296875 46.6875 58.09375 46.6875 
C 64.203125 46.6875 67.796875 42.78125 67.796875 36.171875 
L 67.796875 0 
L 76.203125 0 
L 76.203125 39.375 
C 76.203125 48.796875 70.796875 54 61 54 
C 54 54 49.796875 51.890625 44.90625 45.984375 
C 41.796875 51.59375 37.59375 54 30.796875 54 
C 23.796875 54 19.203125 51.390625 14.703125 45.09375 
L 14.703125 52 
z
" id="Nimbus_Sans_L_Regular-109"/>
       </defs>
       <use transform="scale(0.996264)" xlink:href="#Nimbus_Sans_L_Regular-82"/>
       <use transform="translate(71.929985 0)scale(0.996264)" xlink:href="#Nimbus_Sans_L_Regular-117"/>
       <use transform="translate(127.321662 0)scale(0.996264)" xlink:href="#Nimbus_Sans_L_Regular-109"/>
       <use transform="translate(210.310092 0)scale(0.996264)" xlink:href="#Nimbus_Sans_L_Regular-112"/>
       <use transform="translate(293.396939 0)scale(0.996264)" xlink:href="#Nimbus_Sans_L_Regular-75"/>
       <use transform="translate(359.84697 0)scale(0.996264)" xlink:href="#Nimbus_Sans_L_Regular-86"/>
       <use transform="translate(426.297001 0)scale(0.996264)" xlink:href="#Nimbus_Sans_L_Regular-77"/>
      </g>
     </g>
    </g>
    <g id="xtick_6">
     <g id="line2d_11"/>
     <g id="line2d_12"/>
     <g id="text_6">
      <!-- Docker Native -->
      <g transform="translate(269.041059 342.179157)rotate(-45)scale(0.18 -0.18)">
       <defs>
        <path d="M 8.90625 0 
L 37 0 
C 55.40625 0 66.703125 13.796875 66.703125 36.546875 
C 66.703125 59.1875 55.5 73 37 73 
L 8.90625 73 
z
M 18.203125 8.1875 
L 18.203125 64.796875 
L 35.40625 64.796875 
C 49.796875 64.796875 57.40625 55.078125 57.40625 36.4375 
C 57.40625 18.015625 49.796875 8.1875 35.40625 8.1875 
z
" id="Nimbus_Sans_L_Regular-68"/>
        <path d="M 47.09375 34.953125 
C 46.703125 40.015625 45.59375 43.296875 43.59375 46.1875 
C 40 51.09375 33.703125 54 26.40625 54 
C 12.296875 54 3.09375 42.8125 3.09375 25.5 
C 3.09375 8.671875 12.09375 -2 26.296875 -2 
C 38.796875 -2 46.703125 5.5 47.703125 18.234375 
L 39.296875 18.234375 
C 37.90625 9.875 33.59375 5.6875 26.5 5.6875 
C 17.296875 5.6875 11.796875 13.15625 11.796875 25.5 
C 11.796875 38.53125 17.203125 46.296875 26.296875 46.296875 
C 33.296875 46.296875 37.703125 42.203125 38.703125 34.953125 
z
" id="Nimbus_Sans_L_Regular-99"/>
        <path d="M 14.09375 73 
L 5.796875 73 
L 5.796875 0 
L 14.09375 0 
L 14.09375 20.421875 
L 22.203125 28.4375 
L 39.90625 0 
L 50.203125 0 
L 28.796875 34.34375 
L 47 52.46875 
L 36.296875 52.46875 
L 14.09375 30.234375 
z
" id="Nimbus_Sans_L_Regular-107"/>
        <path d="M 64.59375 73 
L 55.796875 73 
L 55.796875 13.3125 
L 17.703125 73 
L 7.59375 73 
L 7.59375 0 
L 16.40625 0 
L 16.40625 59.171875 
L 54.09375 0 
L 64.59375 0 
z
" id="Nimbus_Sans_L_Regular-78"/>
        <path d="M 25.40625 52 
L 16.796875 52 
L 16.796875 66.390625 
L 8.5 66.390625 
L 8.5 52 
L 1.40625 52 
L 1.40625 45.1875 
L 8.5 45.1875 
L 8.5 6.28125 
C 8.5 1 12.09375 -2 18.59375 -2 
C 20.59375 -2 22.59375 -1.8125 25.40625 -1.3125 
L 25.40625 5.6875 
C 24.296875 5.390625 23 5.296875 21.40625 5.296875 
C 17.796875 5.296875 16.796875 6.28125 16.796875 9.90625 
L 16.796875 45.1875 
L 25.40625 45.1875 
z
" id="Nimbus_Sans_L_Regular-116"/>
        <path d="M 28.5 0 
L 48.59375 52 
L 39.203125 52 
L 24.40625 9.828125 
L 10.40625 52 
L 1 52 
L 19.40625 0 
z
" id="Nimbus_Sans_L_Regular-118"/>
       </defs>
       <use transform="scale(0.996264)" xlink:href="#Nimbus_Sans_L_Regular-68"/>
       <use transform="translate(71.929985 0)scale(0.996264)" xlink:href="#Nimbus_Sans_L_Regular-111"/>
       <use transform="translate(127.321662 0)scale(0.996264)" xlink:href="#Nimbus_Sans_L_Regular-99"/>
       <use transform="translate(175.142851 0)scale(0.996264)" xlink:href="#Nimbus_Sans_L_Regular-107"/>
       <use transform="translate(222.96404 0)scale(0.996264)" xlink:href="#Nimbus_Sans_L_Regular-101"/>
       <use transform="translate(278.355717 0)scale(0.996264)" xlink:href="#Nimbus_Sans_L_Regular-114"/>
       <use transform="translate(339.226117 0)scale(0.996264)" xlink:href="#Nimbus_Sans_L_Regular-78"/>
       <use transform="translate(411.156102 0)scale(0.996264)" xlink:href="#Nimbus_Sans_L_Regular-97"/>
       <use transform="translate(466.547779 0)scale(0.996264)" xlink:href="#Nimbus_Sans_L_Regular-116"/>
       <use transform="translate(494.242948 0)scale(0.996264)" xlink:href="#Nimbus_Sans_L_Regular-105"/>
       <use transform="translate(516.359733 0)scale(0.996264)" xlink:href="#Nimbus_Sans_L_Regular-118"/>
       <use transform="translate(563.682303 0)scale(0.996264)" xlink:href="#Nimbus_Sans_L_Regular-101"/>
      </g>
     </g>
    </g>
    <g id="xtick_7">
     <g id="line2d_13"/>
     <g id="line2d_14"/>
     <g id="text_7">
      <!-- Linux Native -->
      <g transform="translate(327.864196 332.706781)rotate(-45)scale(0.18 -0.18)">
       <use transform="scale(0.996264)" xlink:href="#Nimbus_Sans_L_Regular-76"/>
       <use transform="translate(55.391677 0)scale(0.996264)" xlink:href="#Nimbus_Sans_L_Regular-105"/>
       <use transform="translate(77.508461 0)scale(0.996264)" xlink:href="#Nimbus_Sans_L_Regular-110"/>
       <use transform="translate(131.904041 0)scale(0.996264)" xlink:href="#Nimbus_Sans_L_Regular-117"/>
       <use transform="translate(187.295718 0)scale(0.996264)" xlink:href="#Nimbus_Sans_L_Regular-120"/>
       <use transform="translate(264.804089 0)scale(0.996264)" xlink:href="#Nimbus_Sans_L_Regular-78"/>
       <use transform="translate(336.734073 0)scale(0.996264)" xlink:href="#Nimbus_Sans_L_Regular-97"/>
       <use transform="translate(392.12575 0)scale(0.996264)" xlink:href="#Nimbus_Sans_L_Regular-116"/>
       <use transform="translate(419.82092 0)scale(0.996264)" xlink:href="#Nimbus_Sans_L_Regular-105"/>
       <use transform="translate(441.937704 0)scale(0.996264)" xlink:href="#Nimbus_Sans_L_Regular-118"/>
       <use transform="translate(489.260275 0)scale(0.996264)" xlink:href="#Nimbus_Sans_L_Regular-101"/>
      </g>
     </g>
    </g>
    <g id="xtick_8">
     <g id="line2d_15"/>
     <g id="line2d_16"/>
     <g id="text_8">
      <!-- Lupine KVM -->
      <g transform="translate(377.468619 332.453119)rotate(-45)scale(0.18 -0.18)">
       <use transform="scale(0.996264)" xlink:href="#Nimbus_Sans_L_Regular-76"/>
       <use transform="translate(55.391677 0)scale(0.996264)" xlink:href="#Nimbus_Sans_L_Regular-117"/>
       <use transform="translate(110.783354 0)scale(0.996264)" xlink:href="#Nimbus_Sans_L_Regular-112"/>
       <use transform="translate(166.175031 0)scale(0.996264)" xlink:href="#Nimbus_Sans_L_Regular-105"/>
       <use transform="translate(188.291815 0)scale(0.996264)" xlink:href="#Nimbus_Sans_L_Regular-110"/>
       <use transform="translate(243.683492 0)scale(0.996264)" xlink:href="#Nimbus_Sans_L_Regular-101"/>
       <use transform="translate(326.770339 0)scale(0.996264)" xlink:href="#Nimbus_Sans_L_Regular-75"/>
       <use transform="translate(393.22037 0)scale(0.996264)" xlink:href="#Nimbus_Sans_L_Regular-86"/>
       <use transform="translate(459.670401 0)scale(0.996264)" xlink:href="#Nimbus_Sans_L_Regular-77"/>
      </g>
     </g>
    </g>
    <g id="xtick_9">
     <g id="line2d_17"/>
     <g id="line2d_18"/>
     <g id="text_9">
      <!-- OSv KVM -->
      <g transform="translate(440.222328 319.050171)rotate(-45)scale(0.18 -0.18)">
       <defs>
        <path d="M 38.90625 74 
C 18 74 3.796875 58.640625 3.796875 36 
C 3.796875 13.34375 18 -2 39 -2 
C 47.796875 -2 55.703125 0.6875 61.59375 5.6875 
C 69.5 12.34375 74.203125 23.578125 74.203125 35.390625 
C 74.203125 58.734375 60.296875 74 38.90625 74 
z
M 38.90625 65.796875 
C 54.703125 65.796875 64.90625 53.875 64.90625 35.59375 
C 64.90625 18.109375 54.40625 6.1875 39 6.1875 
C 23.5 6.1875 13.09375 18.109375 13.09375 36 
C 13.09375 53.875 23.5 65.796875 38.90625 65.796875 
z
" id="Nimbus_Sans_L_Regular-79"/>
       </defs>
       <use transform="scale(0.996264)" xlink:href="#Nimbus_Sans_L_Regular-79"/>
       <use transform="translate(77.50837 0)scale(0.996264)" xlink:href="#Nimbus_Sans_L_Regular-83"/>
       <use transform="translate(143.958401 0)scale(0.996264)" xlink:href="#Nimbus_Sans_L_Regular-118"/>
       <use transform="translate(221.466771 0)scale(0.996264)" xlink:href="#Nimbus_Sans_L_Regular-75"/>
       <use transform="translate(287.916802 0)scale(0.996264)" xlink:href="#Nimbus_Sans_L_Regular-86"/>
       <use transform="translate(354.366834 0)scale(0.996264)" xlink:href="#Nimbus_Sans_L_Regular-77"/>
      </g>
     </g>
    </g>
    <g id="xtick_10">
     <g id="line2d_19"/>
     <g id="line2d_20"/>
     <g id="text_10">
      <!-- Unikraft KVM -->
      <g transform="translate(470.679643 337.943616)rotate(-45)scale(0.18 -0.18)">
       <defs>
        <path d="M 55.203125 73 
L 55.203125 21.9375 
C 55.203125 12.171875 48.09375 6.1875 36.40625 6.1875 
C 31 6.1875 26.59375 7.484375 23.09375 9.984375 
C 19.5 12.765625 17.796875 16.453125 17.796875 21.9375 
L 17.796875 73 
L 8.5 73 
L 8.5 21.9375 
C 8.5 7.1875 19.09375 -2 36.40625 -2 
C 53.5 -2 64.5 7.390625 64.5 21.9375 
L 64.5 73 
z
" id="Nimbus_Sans_L_Regular-85"/>
        <path d="M 25.796875 52 
L 17.09375 52 
L 17.09375 60.3125 
C 17.09375 63.859375 19.09375 65.6875 22.90625 65.6875 
C 23.59375 65.6875 23.90625 65.6875 25.796875 65.59375 
L 25.796875 72.484375 
C 23.90625 72.890625 22.796875 73 21.09375 73 
C 13.40625 73 8.796875 68.59375 8.796875 61.015625 
L 8.796875 52 
L 1.796875 52 
L 1.796875 45.1875 
L 8.796875 45.1875 
L 8.796875 0 
L 17.09375 0 
L 17.09375 45.1875 
L 25.796875 45.1875 
z
" id="Nimbus_Sans_L_Regular-102"/>
       </defs>
       <use transform="scale(0.996264)" xlink:href="#Nimbus_Sans_L_Regular-85"/>
       <use transform="translate(71.929985 0)scale(0.996264)" xlink:href="#Nimbus_Sans_L_Regular-110"/>
       <use transform="translate(127.321662 0)scale(0.996264)" xlink:href="#Nimbus_Sans_L_Regular-105"/>
       <use transform="translate(149.438446 0)scale(0.996264)" xlink:href="#Nimbus_Sans_L_Regular-107"/>
       <use transform="translate(199.251647 0)scale(0.996264)" xlink:href="#Nimbus_Sans_L_Regular-114"/>
       <use transform="translate(231.43078 0)scale(0.996264)" xlink:href="#Nimbus_Sans_L_Regular-97"/>
       <use transform="translate(286.822457 0)scale(0.996264)" xlink:href="#Nimbus_Sans_L_Regular-102"/>
       <use transform="translate(314.517626 0)scale(0.996264)" xlink:href="#Nimbus_Sans_L_Regular-116"/>
       <use transform="translate(369.907965 0)scale(0.996264)" xlink:href="#Nimbus_Sans_L_Regular-75"/>
       <use transform="translate(436.357997 0)scale(0.996264)" xlink:href="#Nimbus_Sans_L_Regular-86"/>
       <use transform="translate(502.808028 0)scale(0.996264)" xlink:href="#Nimbus_Sans_L_Regular-77"/>
      </g>
     </g>
    </g>
   </g>
   <g id="matplotlib.axis_2">
    <g id="ytick_1">
     <g id="line2d_21">
      <path clip-path="url(#pd0ace69e8a)" d="M 67.37239 250.349266 
L 560.88 250.349266 
" style="fill:none;stroke:#000000;stroke-dasharray:1,3;stroke-dashoffset:0;stroke-opacity:0.5;stroke-width:0.5;"/>
     </g>
     <g id="line2d_22"/>
     <g id="line2d_23"/>
     <g id="text_11">
      <!--   0 -->
      <g transform="translate(55.617566 253.832702)scale(0.14 -0.14)">
       <defs>
        <path d="M 27.5 71 
C 20.90625 71 14.90625 68.09375 11.203125 63.1875 
C 6.59375 57.015625 4.296875 47.546875 4.296875 34.484375 
C 4.296875 10.671875 12.296875 -2 27.5 -2 
C 42.5 -2 50.703125 10.671875 50.703125 33.890625 
C 50.703125 47.640625 48.5 56.8125 43.796875 63.1875 
C 40.09375 68.1875 34.203125 71 27.5 71 
z
M 27.5 63.1875 
C 37 63.1875 41.703125 53.625 41.703125 34.6875 
C 41.703125 14.65625 37.09375 5.296875 27.296875 5.296875 
C 18 5.296875 13.296875 15.0625 13.296875 34.390625 
C 13.296875 53.71875 18 63.1875 27.5 63.1875 
z
" id="Nimbus_Sans_L_Regular-48"/>
       </defs>
       <use transform="scale(0.996264)" xlink:href="#Nimbus_Sans_L_Regular-48"/>
      </g>
     </g>
    </g>
    <g id="ytick_2">
     <g id="line2d_24">
      <path clip-path="url(#pd0ace69e8a)" d="M 67.37239 220.433041 
L 560.88 220.433041 
" style="fill:none;stroke:#000000;stroke-dasharray:1,3;stroke-dashoffset:0;stroke-opacity:0.5;stroke-width:0.5;"/>
     </g>
     <g id="line2d_25"/>
     <g id="line2d_26"/>
     <g id="text_12">
      <!--  50 -->
      <g transform="translate(47.862742 223.916476)scale(0.14 -0.14)">
       <use transform="scale(0.996264)" xlink:href="#Nimbus_Sans_L_Regular-53"/>
       <use transform="translate(55.391677 0)scale(0.996264)" xlink:href="#Nimbus_Sans_L_Regular-48"/>
      </g>
     </g>
    </g>
    <g id="ytick_3">
     <g id="line2d_27">
      <path clip-path="url(#pd0ace69e8a)" d="M 67.37239 190.516815 
L 560.88 190.516815 
" style="fill:none;stroke:#000000;stroke-dasharray:1,3;stroke-dashoffset:0;stroke-opacity:0.5;stroke-width:0.5;"/>
     </g>
     <g id="line2d_28"/>
     <g id="line2d_29"/>
     <g id="text_13">
      <!-- 100 -->
      <g transform="translate(40.107917 194.00025)scale(0.14 -0.14)">
       <defs>
        <path d="M 25.90625 50.5 
L 25.90625 0 
L 34.703125 0 
L 34.703125 70.890625 
L 28.90625 70.890625 
C 25.796875 60 23.796875 58.5 10.203125 56.796875 
L 10.203125 50.5 
z
" id="Nimbus_Sans_L_Regular-49"/>
       </defs>
       <use transform="scale(0.996264)" xlink:href="#Nimbus_Sans_L_Regular-49"/>
       <use transform="translate(55.391677 0)scale(0.996264)" xlink:href="#Nimbus_Sans_L_Regular-48"/>
       <use transform="translate(110.783354 0)scale(0.996264)" xlink:href="#Nimbus_Sans_L_Regular-48"/>
      </g>
     </g>
    </g>
    <g id="ytick_4">
     <g id="line2d_30">
      <path clip-path="url(#pd0ace69e8a)" d="M 67.37239 160.600589 
L 560.88 160.600589 
" style="fill:none;stroke:#000000;stroke-dasharray:1,3;stroke-dashoffset:0;stroke-opacity:0.5;stroke-width:0.5;"/>
     </g>
     <g id="line2d_31"/>
     <g id="line2d_32"/>
     <g id="text_14">
      <!-- 150 -->
      <g transform="translate(40.107917 164.084025)scale(0.14 -0.14)">
       <use transform="scale(0.996264)" xlink:href="#Nimbus_Sans_L_Regular-49"/>
       <use transform="translate(55.391677 0)scale(0.996264)" xlink:href="#Nimbus_Sans_L_Regular-53"/>
       <use transform="translate(110.783354 0)scale(0.996264)" xlink:href="#Nimbus_Sans_L_Regular-48"/>
      </g>
     </g>
    </g>
    <g id="ytick_5">
     <g id="line2d_33">
      <path clip-path="url(#pd0ace69e8a)" d="M 67.37239 130.684364 
L 560.88 130.684364 
" style="fill:none;stroke:#000000;stroke-dasharray:1,3;stroke-dashoffset:0;stroke-opacity:0.5;stroke-width:0.5;"/>
     </g>
     <g id="line2d_34"/>
     <g id="line2d_35"/>
     <g id="text_15">
      <!-- 200 -->
      <g transform="translate(40.107917 134.167799)scale(0.14 -0.14)">
       <defs>
        <path d="M 50.59375 8.6875 
L 13.296875 8.6875 
C 14.203125 14.5 17.40625 18.203125 26.09375 23.328125 
L 36.09375 28.734375 
C 46 34.140625 51.09375 41.453125 51.09375 50.171875 
C 51.09375 56.078125 48.703125 61.59375 44.5 65.390625 
C 40.296875 69.1875 35.09375 71 28.40625 71 
C 19.40625 71 12.703125 67.796875 8.796875 61.796875 
C 6.296875 57.984375 5.203125 53.578125 5 46.359375 
L 13.796875 46.359375 
C 14.09375 51.171875 14.703125 54.078125 15.90625 56.375 
C 18.203125 60.6875 22.796875 63.296875 28.09375 63.296875 
C 36.09375 63.296875 42.09375 57.578125 42.09375 49.96875 
C 42.09375 44.359375 38.796875 39.546875 32.5 35.9375 
L 23.296875 30.734375 
C 8.5 22.3125 4.203125 15.609375 3.40625 0 
L 50.59375 0 
z
" id="Nimbus_Sans_L_Regular-50"/>
       </defs>
       <use transform="scale(0.996264)" xlink:href="#Nimbus_Sans_L_Regular-50"/>
       <use transform="translate(55.391677 0)scale(0.996264)" xlink:href="#Nimbus_Sans_L_Regular-48"/>
       <use transform="translate(110.783354 0)scale(0.996264)" xlink:href="#Nimbus_Sans_L_Regular-48"/>
      </g>
     </g>
    </g>
    <g id="ytick_6">
     <g id="line2d_36">
      <path clip-path="url(#pd0ace69e8a)" d="M 67.37239 100.768138 
L 560.88 100.768138 
" style="fill:none;stroke:#000000;stroke-dasharray:1,3;stroke-dashoffset:0;stroke-opacity:0.5;stroke-width:0.5;"/>
     </g>
     <g id="line2d_37"/>
     <g id="line2d_38"/>
     <g id="text_16">
      <!-- 250 -->
      <g transform="translate(40.107917 104.251573)scale(0.14 -0.14)">
       <use transform="scale(0.996264)" xlink:href="#Nimbus_Sans_L_Regular-50"/>
       <use transform="translate(55.391677 0)scale(0.996264)" xlink:href="#Nimbus_Sans_L_Regular-53"/>
       <use transform="translate(110.783354 0)scale(0.996264)" xlink:href="#Nimbus_Sans_L_Regular-48"/>
      </g>
     </g>
    </g>
    <g id="ytick_7">
     <g id="line2d_39">
      <path clip-path="url(#pd0ace69e8a)" d="M 67.37239 70.851912 
L 560.88 70.851912 
" style="fill:none;stroke:#000000;stroke-dasharray:1,3;stroke-dashoffset:0;stroke-opacity:0.5;stroke-width:0.5;"/>
     </g>
     <g id="line2d_40"/>
     <g id="line2d_41"/>
     <g id="text_17">
      <!-- 300 -->
      <g transform="translate(40.107917 74.335347)scale(0.14 -0.14)">
       <defs>
        <path d="M 22.09375 32.703125 
L 23.203125 32.703125 
L 26.90625 32.796875 
C 36.59375 32.796875 41.59375 28.421875 41.59375 19.9375 
C 41.59375 11.078125 36.09375 5.796875 26.90625 5.796875 
C 17.296875 5.796875 12.59375 10.578125 12 20.84375 
L 3.203125 20.84375 
C 3.59375 15.15625 4.59375 11.46875 6.296875 8.28125 
C 9.90625 1.5 16.90625 -2 26.59375 -2 
C 41.203125 -2 50.59375 6.6875 50.59375 20.046875 
C 50.59375 29.015625 47.09375 34 38.59375 36.890625 
C 45.203125 39.46875 48.5 44.453125 48.5 51.53125 
C 48.5 63.6875 40.40625 71 26.90625 71 
C 12.59375 71 5 63.1875 4.703125 48.140625 
L 13.5 48.140625 
C 13.59375 52.4375 14 54.828125 15.09375 57.015625 
C 17.09375 60.90625 21.5 63.296875 27 63.296875 
C 34.796875 63.296875 39.5 58.703125 39.5 51.234375 
C 39.5 46.25 37.703125 43.265625 33.796875 41.671875 
C 31.40625 40.671875 28.296875 40.265625 22.09375 40.171875 
z
" id="Nimbus_Sans_L_Regular-51"/>
       </defs>
       <use transform="scale(0.996264)" xlink:href="#Nimbus_Sans_L_Regular-51"/>
       <use transform="translate(55.391677 0)scale(0.996264)" xlink:href="#Nimbus_Sans_L_Regular-48"/>
       <use transform="translate(110.783354 0)scale(0.996264)" xlink:href="#Nimbus_Sans_L_Regular-48"/>
      </g>
     </g>
    </g>
    <g id="ytick_8">
     <g id="line2d_42">
      <path clip-path="url(#pd0ace69e8a)" d="M 67.37239 40.935686 
L 560.88 40.935686 
" style="fill:none;stroke:#000000;stroke-dasharray:1,3;stroke-dashoffset:0;stroke-opacity:0.5;stroke-width:0.5;"/>
     </g>
     <g id="line2d_43"/>
     <g id="line2d_44"/>
     <g id="text_18">
      <!-- 350 -->
      <g transform="translate(40.107917 44.419122)scale(0.14 -0.14)">
       <use transform="scale(0.996264)" xlink:href="#Nimbus_Sans_L_Regular-51"/>
       <use transform="translate(55.391677 0)scale(0.996264)" xlink:href="#Nimbus_Sans_L_Regular-53"/>
       <use transform="translate(110.783354 0)scale(0.996264)" xlink:href="#Nimbus_Sans_L_Regular-48"/>
      </g>
     </g>
    </g>
    <g id="text_19">
     <!-- Average Throughput (x1000 req/s) -->
     <g transform="translate(31.288348 269.11164)rotate(-90)scale(0.18 -0.18)">
      <defs>
       <path d="M 47.40625 22 
L 54.90625 0 
L 65.296875 0 
L 39.703125 73 
L 27.703125 73 
L 1.703125 0 
L 11.59375 0 
L 19.296875 22 
z
M 44.796875 29.796875 
L 21.59375 29.796875 
L 33.59375 63 
z
" id="Nimbus_Sans_L_Regular-65"/>
       <path d="M 35.40625 64.796875 
L 59.296875 64.796875 
L 59.296875 73 
L 2.09375 73 
L 2.09375 64.796875 
L 26.09375 64.796875 
L 26.09375 0 
L 35.40625 0 
z
" id="Nimbus_Sans_L_Regular-84"/>
       <path d="M 7 73 
L 7 0 
L 15.296875 0 
L 15.296875 28.953125 
C 15.296875 39.671875 20.90625 46.6875 29.5 46.6875 
C 32.203125 46.6875 34.90625 45.78125 36.90625 44.28125 
C 39.296875 42.578125 40.296875 40.078125 40.296875 36.375 
L 40.296875 0 
L 48.59375 0 
L 48.59375 39.671875 
C 48.59375 48.484375 42.296875 54 32.09375 54 
C 24.703125 54 20.203125 51.6875 15.296875 45.28125 
L 15.296875 73 
z
" id="Nimbus_Sans_L_Regular-104"/>
       <path d="M 23.59375 73 
C 13.59375 59.890625 7.296875 41.6875 7.296875 25.984375 
C 7.296875 10.1875 13.59375 -8.015625 23.59375 -21.109375 
L 29.09375 -21.109375 
C 20.296875 -6.8125 15.40625 9.984375 15.40625 25.984375 
C 15.40625 41.890625 20.296875 58.796875 29.09375 73 
z
" id="Nimbus_Sans_L_Regular-40"/>
       <path d="M 49.5 -22 
L 49.5 52.484375 
L 42.09375 52.484375 
L 42.09375 45.5 
C 38.203125 50.984375 32.296875 54 25.40625 54 
C 11.59375 54 2.59375 42.703125 2.59375 25.390625 
C 2.59375 8.484375 11.203125 -2 25 -2 
C 32.296875 -2 37.296875 0.59375 41.203125 6.296875 
L 41.203125 -22 
z
M 26.59375 46.1875 
C 35.5 46.1875 41.203125 38.234375 41.203125 25.6875 
C 41.203125 13.75 35.40625 5.796875 26.59375 5.796875 
C 17.40625 5.796875 11.296875 13.859375 11.296875 25.984375 
C 11.296875 38.03125 17.40625 46.1875 26.59375 46.1875 
z
" id="Nimbus_Sans_L_Regular-113"/>
       <path d="M 22.90625 73 
L -0.796875 -2 
L 4.703125 -2 
L 28.40625 73 
z
" id="Nimbus_Sans_L_Regular-47"/>
       <path d="M 43.796875 37.9375 
C 43.703125 48.1875 36.90625 54 24.796875 54 
C 12.59375 54 4.703125 47.6875 4.703125 38.03125 
C 4.703125 29.875 8.90625 25.984375 21.296875 23 
L 29.09375 21.109375 
C 34.90625 19.71875 37.203125 17.640625 37.203125 13.859375 
C 37.203125 8.96875 32.296875 5.6875 25 5.6875 
C 20.5 5.6875 16.703125 6.984375 14.59375 9.171875 
C 13.296875 10.671875 12.703125 12.15625 12.203125 15.84375 
L 3.40625 15.84375 
C 3.796875 3.796875 10.59375 -2 24.296875 -2 
C 37.5 -2 45.90625 4.5 45.90625 14.546875 
C 45.90625 22.3125 41.5 26.59375 31.09375 29.078125 
L 23.09375 30.96875 
C 16.296875 32.5625 13.40625 34.75 13.40625 38.421875 
C 13.40625 43.203125 17.703125 46.296875 24.5 46.296875 
C 31.203125 46.296875 34.796875 43.40625 35 37.9375 
z
" id="Nimbus_Sans_L_Regular-115"/>
       <path d="M 9.296875 -21.109375 
C 19.296875 -8.015625 25.59375 10.1875 25.59375 25.890625 
C 25.59375 41.6875 19.296875 59.890625 9.296875 73 
L 3.796875 73 
C 12.59375 58.6875 17.5 41.890625 17.5 25.890625 
C 17.5 9.984375 12.59375 -6.90625 3.796875 -21.109375 
z
" id="Nimbus_Sans_L_Regular-41"/>
      </defs>
      <use transform="scale(0.996264)" xlink:href="#Nimbus_Sans_L_Regular-65"/>
      <use transform="translate(62.465918 0)scale(0.996264)" xlink:href="#Nimbus_Sans_L_Regular-118"/>
      <use transform="translate(109.788488 0)scale(0.996264)" xlink:href="#Nimbus_Sans_L_Regular-101"/>
      <use transform="translate(165.180165 0)scale(0.996264)" xlink:href="#Nimbus_Sans_L_Regular-114"/>
      <use transform="translate(197.359298 0)scale(0.996264)" xlink:href="#Nimbus_Sans_L_Regular-97"/>
      <use transform="translate(252.750975 0)scale(0.996264)" xlink:href="#Nimbus_Sans_L_Regular-103"/>
      <use transform="translate(308.142652 0)scale(0.996264)" xlink:href="#Nimbus_Sans_L_Regular-101"/>
      <use transform="translate(391.229499 0)scale(0.996264)" xlink:href="#Nimbus_Sans_L_Regular-84"/>
      <use transform="translate(452.10113 0)scale(0.996264)" xlink:href="#Nimbus_Sans_L_Regular-104"/>
      <use transform="translate(507.492807 0)scale(0.996264)" xlink:href="#Nimbus_Sans_L_Regular-114"/>
      <use transform="translate(540.668036 0)scale(0.996264)" xlink:href="#Nimbus_Sans_L_Regular-111"/>
      <use transform="translate(596.059713 0)scale(0.996264)" xlink:href="#Nimbus_Sans_L_Regular-117"/>
      <use transform="translate(651.45139 0)scale(0.996264)" xlink:href="#Nimbus_Sans_L_Regular-103"/>
      <use transform="translate(706.843067 0)scale(0.996264)" xlink:href="#Nimbus_Sans_L_Regular-104"/>
      <use transform="translate(762.234744 0)scale(0.996264)" xlink:href="#Nimbus_Sans_L_Regular-112"/>
      <use transform="translate(817.626421 0)scale(0.996264)" xlink:href="#Nimbus_Sans_L_Regular-117"/>
      <use transform="translate(873.018098 0)scale(0.996264)" xlink:href="#Nimbus_Sans_L_Regular-116"/>
      <use transform="translate(928.408437 0)scale(0.996264)" xlink:href="#Nimbus_Sans_L_Regular-40"/>
      <use transform="translate(961.583667 0)scale(0.996264)" xlink:href="#Nimbus_Sans_L_Regular-120"/>
      <use transform="translate(1011.396867 0)scale(0.996264)" xlink:href="#Nimbus_Sans_L_Regular-49"/>
      <use transform="translate(1066.788544 0)scale(0.996264)" xlink:href="#Nimbus_Sans_L_Regular-48"/>
      <use transform="translate(1122.180221 0)scale(0.996264)" xlink:href="#Nimbus_Sans_L_Regular-48"/>
      <use transform="translate(1177.571898 0)scale(0.996264)" xlink:href="#Nimbus_Sans_L_Regular-48"/>
      <use transform="translate(1260.658745 0)scale(0.996264)" xlink:href="#Nimbus_Sans_L_Regular-114"/>
      <use transform="translate(1293.833975 0)scale(0.996264)" xlink:href="#Nimbus_Sans_L_Regular-101"/>
      <use transform="translate(1349.225652 0)scale(0.996264)" xlink:href="#Nimbus_Sans_L_Regular-113"/>
      <use transform="translate(1404.617329 0)scale(0.996264)" xlink:href="#Nimbus_Sans_L_Regular-47"/>
      <use transform="translate(1432.312498 0)scale(0.996264)" xlink:href="#Nimbus_Sans_L_Regular-115"/>
      <use transform="translate(1482.125699 0)scale(0.996264)" xlink:href="#Nimbus_Sans_L_Regular-41"/>
     </g>
    </g>
   </g>
   <g id="patch_7">
    <path clip-path="url(#pd0ace69e8a)" d="M 82.177619 250.349266 
L 101.917923 250.349266 
L 101.917923 234.861244 
L 82.177619 234.861244 
z
" style="fill:#5697c4;stroke:#000000;stroke-linejoin:miter;stroke-width:0.5;"/>
   </g>
   <g id="patch_8">
    <path clip-path="url(#pd0ace69e8a)" d="M 131.52838 250.349266 
L 151.268684 250.349266 
L 151.268684 214.410887 
L 131.52838 214.410887 
z
" style="fill:#5697c4;stroke:#000000;stroke-linejoin:miter;stroke-width:0.5;"/>
   </g>
   <g id="patch_9">
    <path clip-path="url(#pd0ace69e8a)" d="M 180.879141 250.349266 
L 200.619445 250.349266 
L 200.619445 207.525962 
L 180.879141 207.525962 
z
" style="fill:#5697c4;stroke:#000000;stroke-linejoin:miter;stroke-width:0.5;"/>
   </g>
   <g id="patch_10">
    <path clip-path="url(#pd0ace69e8a)" d="M 230.229902 250.349266 
L 249.970206 250.349266 
L 249.970206 187.851124 
L 230.229902 187.851124 
z
" style="fill:#5697c4;stroke:#000000;stroke-linejoin:miter;stroke-width:0.5;"/>
   </g>
   <g id="patch_11">
    <path clip-path="url(#pd0ace69e8a)" d="M 279.580663 250.349266 
L 299.320967 250.349266 
L 299.320967 159.074394 
L 279.580663 159.074394 
z
" style="fill:#5697c4;stroke:#000000;stroke-linejoin:miter;stroke-width:0.5;"/>
   </g>
   <g id="patch_12">
    <path clip-path="url(#pd0ace69e8a)" d="M 328.931424 250.349266 
L 348.671728 250.349266 
L 348.671728 154.416088 
L 328.931424 154.416088 
z
" style="fill:#5697c4;stroke:#000000;stroke-linejoin:miter;stroke-width:0.5;"/>
   </g>
   <g id="patch_13">
    <path clip-path="url(#pd0ace69e8a)" d="M 378.282184 250.349266 
L 398.022489 250.349266 
L 398.022489 145.309579 
L 378.282184 145.309579 
z
" style="fill:#5697c4;stroke:#000000;stroke-linejoin:miter;stroke-width:0.5;"/>
   </g>
   <g id="patch_14">
    <path clip-path="url(#pd0ace69e8a)" d="M 427.632945 250.349266 
L 447.37325 250.349266 
L 447.37325 137.255661 
L 427.632945 137.255661 
z
" style="fill:#5697c4;stroke:#000000;stroke-linejoin:miter;stroke-width:0.5;"/>
   </g>
   <g id="patch_15">
    <path clip-path="url(#pd0ace69e8a)" d="M 476.983706 250.349266 
L 496.724011 250.349266 
L 496.724011 111.106333 
L 476.983706 111.106333 
z
" style="fill:#5697c4;stroke:#000000;stroke-linejoin:miter;stroke-width:0.5;"/>
   </g>
   <g id="patch_16">
    <path clip-path="url(#pd0ace69e8a)" d="M 526.334467 250.349266 
L 546.074772 250.349266 
L 546.074772 75.770369 
L 526.334467 75.770369 
z
" style="fill:#5697c4;stroke:#000000;stroke-linejoin:miter;stroke-width:0.5;"/>
   </g>
   <g id="LineCollection_1">
    <path clip-path="url(#pd0ace69e8a)" d="M 92.047771 235.02485 
L 92.047771 234.697638 
" style="fill:none;stroke:#000000;"/>
   </g>
   <g id="LineCollection_2">
    <path clip-path="url(#pd0ace69e8a)" d="M 141.398532 214.871429 
L 141.398532 213.950344 
" style="fill:none;stroke:#000000;"/>
   </g>
   <g id="LineCollection_3">
    <path clip-path="url(#pd0ace69e8a)" d="M 190.749293 212.990298 
L 190.749293 202.061625 
" style="fill:none;stroke:#000000;"/>
   </g>
   <g id="LineCollection_4">
    <path clip-path="url(#pd0ace69e8a)" d="M 240.100054 194.399008 
L 240.100054 181.30324 
" style="fill:none;stroke:#000000;"/>
   </g>
   <g id="LineCollection_5">
    <path clip-path="url(#pd0ace69e8a)" d="M 289.450815 160.597638 
L 289.450815 157.551149 
" style="fill:none;stroke:#000000;"/>
   </g>
   <g id="LineCollection_6">
    <path clip-path="url(#pd0ace69e8a)" d="M 338.801576 159.086735 
L 338.801576 149.745441 
" style="fill:none;stroke:#000000;"/>
   </g>
   <g id="LineCollection_7">
    <path clip-path="url(#pd0ace69e8a)" d="M 388.152337 153.539557 
L 388.152337 137.079602 
" style="fill:none;stroke:#000000;"/>
   </g>
   <g id="LineCollection_8">
    <path clip-path="url(#pd0ace69e8a)" d="M 437.503098 142.340301 
L 437.503098 132.171022 
" style="fill:none;stroke:#000000;"/>
   </g>
   <g id="LineCollection_9">
    <path clip-path="url(#pd0ace69e8a)" d="M 486.853859 117.192963 
L 486.853859 105.019704 
" style="fill:none;stroke:#000000;"/>
   </g>
   <g id="LineCollection_10">
    <path clip-path="url(#pd0ace69e8a)" d="M 536.20462 77.15497 
L 536.20462 74.385769 
" style="fill:none;stroke:#000000;"/>
   </g>
   <g id="line2d_45">
    <defs>
     <path d="M 3 0 
L -3 -0 
" id="mea5897ce5b" style="stroke:#000000;stroke-width:0.5;"/>
    </defs>
    <g clip-path="url(#pd0ace69e8a)">
     <use style="stroke:#000000;stroke-width:0.5;" x="92.047771" xlink:href="#mea5897ce5b" y="235.02485"/>
    </g>
   </g>
   <g id="line2d_46">
    <g clip-path="url(#pd0ace69e8a)">
     <use style="stroke:#000000;stroke-width:0.5;" x="92.047771" xlink:href="#mea5897ce5b" y="234.697638"/>
    </g>
   </g>
   <g id="line2d_47">
    <g clip-path="url(#pd0ace69e8a)">
     <use style="stroke:#000000;stroke-width:0.5;" x="141.398532" xlink:href="#mea5897ce5b" y="214.871429"/>
    </g>
   </g>
   <g id="line2d_48">
    <g clip-path="url(#pd0ace69e8a)">
     <use style="stroke:#000000;stroke-width:0.5;" x="141.398532" xlink:href="#mea5897ce5b" y="213.950344"/>
    </g>
   </g>
   <g id="line2d_49">
    <g clip-path="url(#pd0ace69e8a)">
     <use style="stroke:#000000;stroke-width:0.5;" x="190.749293" xlink:href="#mea5897ce5b" y="212.990298"/>
    </g>
   </g>
   <g id="line2d_50">
    <g clip-path="url(#pd0ace69e8a)">
     <use style="stroke:#000000;stroke-width:0.5;" x="190.749293" xlink:href="#mea5897ce5b" y="202.061625"/>
    </g>
   </g>
   <g id="line2d_51">
    <g clip-path="url(#pd0ace69e8a)">
     <use style="stroke:#000000;stroke-width:0.5;" x="240.100054" xlink:href="#mea5897ce5b" y="194.399008"/>
    </g>
   </g>
   <g id="line2d_52">
    <g clip-path="url(#pd0ace69e8a)">
     <use style="stroke:#000000;stroke-width:0.5;" x="240.100054" xlink:href="#mea5897ce5b" y="181.30324"/>
    </g>
   </g>
   <g id="line2d_53">
    <g clip-path="url(#pd0ace69e8a)">
     <use style="stroke:#000000;stroke-width:0.5;" x="289.450815" xlink:href="#mea5897ce5b" y="160.597638"/>
    </g>
   </g>
   <g id="line2d_54">
    <g clip-path="url(#pd0ace69e8a)">
     <use style="stroke:#000000;stroke-width:0.5;" x="289.450815" xlink:href="#mea5897ce5b" y="157.551149"/>
    </g>
   </g>
   <g id="line2d_55">
    <g clip-path="url(#pd0ace69e8a)">
     <use style="stroke:#000000;stroke-width:0.5;" x="338.801576" xlink:href="#mea5897ce5b" y="159.086735"/>
    </g>
   </g>
   <g id="line2d_56">
    <g clip-path="url(#pd0ace69e8a)">
     <use style="stroke:#000000;stroke-width:0.5;" x="338.801576" xlink:href="#mea5897ce5b" y="149.745441"/>
    </g>
   </g>
   <g id="line2d_57">
    <g clip-path="url(#pd0ace69e8a)">
     <use style="stroke:#000000;stroke-width:0.5;" x="388.152337" xlink:href="#mea5897ce5b" y="153.539557"/>
    </g>
   </g>
   <g id="line2d_58">
    <g clip-path="url(#pd0ace69e8a)">
     <use style="stroke:#000000;stroke-width:0.5;" x="388.152337" xlink:href="#mea5897ce5b" y="137.079602"/>
    </g>
   </g>
   <g id="line2d_59">
    <g clip-path="url(#pd0ace69e8a)">
     <use style="stroke:#000000;stroke-width:0.5;" x="437.503098" xlink:href="#mea5897ce5b" y="142.340301"/>
    </g>
   </g>
   <g id="line2d_60">
    <g clip-path="url(#pd0ace69e8a)">
     <use style="stroke:#000000;stroke-width:0.5;" x="437.503098" xlink:href="#mea5897ce5b" y="132.171022"/>
    </g>
   </g>
   <g id="line2d_61">
    <g clip-path="url(#pd0ace69e8a)">
     <use style="stroke:#000000;stroke-width:0.5;" x="486.853859" xlink:href="#mea5897ce5b" y="117.192963"/>
    </g>
   </g>
   <g id="line2d_62">
    <g clip-path="url(#pd0ace69e8a)">
     <use style="stroke:#000000;stroke-width:0.5;" x="486.853859" xlink:href="#mea5897ce5b" y="105.019704"/>
    </g>
   </g>
   <g id="line2d_63">
    <g clip-path="url(#pd0ace69e8a)">
     <use style="stroke:#000000;stroke-width:0.5;" x="536.20462" xlink:href="#mea5897ce5b" y="77.15497"/>
    </g>
   </g>
   <g id="line2d_64">
    <g clip-path="url(#pd0ace69e8a)">
     <use style="stroke:#000000;stroke-width:0.5;" x="536.20462" xlink:href="#mea5897ce5b" y="74.385769"/>
    </g>
   </g>
   <g id="text_20">
    <g id="patch_17">
     <path d="M 99.806044 225.18277 
L 99.806044 191.366151 
L 84.289498 191.366151 
L 84.289498 225.18277 
z
" style="fill:#ffffff;"/>
    </g>
    <!-- 25.9 -->
    <g transform="translate(96.526474 225.72277)rotate(-90)scale(0.18 -0.18)">
     <defs>
      <path d="M 19.09375 10.390625 
L 8.703125 10.390625 
L 8.703125 0 
L 19.09375 0 
z
" id="Nimbus_Sans_L_Regular-46"/>
      <path d="M 5.296875 16.609375 
C 7 4.890625 14.59375 -2 25.40625 -2 
C 33.203125 -2 40.296875 1.796875 44.40625 8.109375 
C 48.90625 15.09375 50.90625 23.875 50.90625 36.734375 
C 50.90625 48.484375 49.09375 55.984375 44.90625 62.203125 
C 41 67.890625 34.796875 71 27 71 
C 13.5 71 3.796875 61.03125 3.796875 47.296875 
C 3.796875 34.265625 12.796875 25 25.59375 25 
C 32.296875 25 37.203125 27.390625 41.796875 32.890625 
C 41.703125 15.5 36.09375 5.796875 26 5.796875 
C 19.796875 5.796875 15.5 9.734375 14.09375 16.609375 
z
M 26.90625 63.296875 
C 35.09375 63.296875 41.296875 56.578125 41.296875 47.5 
C 41.296875 38.90625 35.203125 32.796875 26.59375 32.796875 
C 18.09375 32.796875 12.796875 38.609375 12.796875 48 
C 12.796875 56.875 18.796875 63.296875 26.90625 63.296875 
z
" id="Nimbus_Sans_L_Regular-57"/>
     </defs>
     <use transform="scale(0.996264)" xlink:href="#Nimbus_Sans_L_Regular-50"/>
     <use transform="translate(55.391677 0)scale(0.996264)" xlink:href="#Nimbus_Sans_L_Regular-53"/>
     <use transform="translate(110.783354 0)scale(0.996264)" xlink:href="#Nimbus_Sans_L_Regular-46"/>
     <use transform="translate(138.478524 0)scale(0.996264)" xlink:href="#Nimbus_Sans_L_Regular-57"/>
    </g>
   </g>
   <g id="text_21">
    <g id="patch_18">
     <path d="M 149.156805 204.435476 
L 149.156805 170.618858 
L 133.640259 170.618858 
L 133.640259 204.435476 
z
" style="fill:#ffffff;"/>
    </g>
    <!-- 60.1 -->
    <g transform="translate(145.877235 204.975476)rotate(-90)scale(0.18 -0.18)">
     <defs>
      <path d="M 49.796875 52.375 
C 48.09375 64.09375 40.5 71 29.703125 71 
C 21.90625 71 14.90625 67.1875 10.703125 60.859375 
C 6.296875 53.890625 4.296875 45.109375 4.296875 32.25 
C 4.296875 20.5 6.09375 13 10.296875 6.78125 
C 14.09375 1.09375 20.296875 -2 28.09375 -2 
C 41.59375 -2 51.296875 7.96875 51.296875 21.6875 
C 51.296875 34.703125 42.296875 44 29.59375 44 
C 22.59375 44 17.09375 41.296875 13.296875 36.09375 
C 13.40625 53.484375 19 63.1875 29.09375 63.1875 
C 35.296875 63.1875 39.59375 59.25 41 52.375 
z
M 28.5 36.1875 
C 37 36.1875 42.296875 30.375 42.296875 20.984375 
C 42.296875 12.203125 36.296875 5.796875 28.203125 5.796875 
C 20 5.796875 13.796875 12.5 13.796875 21.484375 
C 13.796875 30.171875 19.796875 36.1875 28.5 36.1875 
z
" id="Nimbus_Sans_L_Regular-54"/>
     </defs>
     <use transform="scale(0.996264)" xlink:href="#Nimbus_Sans_L_Regular-54"/>
     <use transform="translate(55.391677 0)scale(0.996264)" xlink:href="#Nimbus_Sans_L_Regular-48"/>
     <use transform="translate(110.783354 0)scale(0.996264)" xlink:href="#Nimbus_Sans_L_Regular-46"/>
     <use transform="translate(138.478524 0)scale(0.996264)" xlink:href="#Nimbus_Sans_L_Regular-49"/>
    </g>
   </g>
   <g id="text_22">
    <g id="patch_19">
     <path d="M 198.507566 192.546758 
L 198.507566 158.730139 
L 182.99102 158.730139 
L 182.99102 192.546758 
z
" style="fill:#ffffff;"/>
    </g>
    <!-- 71.6 -->
    <g transform="translate(195.227996 193.086758)rotate(-90)scale(0.18 -0.18)">
     <defs>
      <path d="M 52 71 
L 4.59375 71 
L 4.59375 62.296875 
L 42.90625 62.296875 
C 26 38.15625 19.09375 23.328125 13.796875 0 
L 23.203125 0 
C 27.09375 22.71875 36 42.25 52 63.59375 
z
" id="Nimbus_Sans_L_Regular-55"/>
     </defs>
     <use transform="scale(0.996264)" xlink:href="#Nimbus_Sans_L_Regular-55"/>
     <use transform="translate(55.391677 0)scale(0.996264)" xlink:href="#Nimbus_Sans_L_Regular-49"/>
     <use transform="translate(110.783354 0)scale(0.996264)" xlink:href="#Nimbus_Sans_L_Regular-46"/>
     <use transform="translate(138.478524 0)scale(0.996264)" xlink:href="#Nimbus_Sans_L_Regular-54"/>
    </g>
   </g>
   <g id="text_23">
    <g id="patch_20">
     <path d="M 247.858327 171.788372 
L 247.858327 128.001254 
L 232.341781 128.001254 
L 232.341781 171.788372 
z
" style="fill:#ffffff;"/>
    </g>
    <!-- 104.5 -->
    <g transform="translate(244.578757 172.328372)rotate(-90)scale(0.18 -0.18)">
     <defs>
      <path d="M 32.703125 17 
L 32.703125 0 
L 41.5 0 
L 41.5 17 
L 52 17 
L 52 24.890625 
L 41.5 24.890625 
L 41.5 70.890625 
L 35 70.890625 
L 2.796875 26.296875 
L 2.796875 17 
z
M 32.703125 24.890625 
L 10.5 24.890625 
L 32.703125 55.890625 
z
" id="Nimbus_Sans_L_Regular-52"/>
     </defs>
     <use transform="scale(0.996264)" xlink:href="#Nimbus_Sans_L_Regular-49"/>
     <use transform="translate(55.391677 0)scale(0.996264)" xlink:href="#Nimbus_Sans_L_Regular-48"/>
     <use transform="translate(110.783354 0)scale(0.996264)" xlink:href="#Nimbus_Sans_L_Regular-52"/>
     <use transform="translate(166.175031 0)scale(0.996264)" xlink:href="#Nimbus_Sans_L_Regular-46"/>
     <use transform="translate(193.8702 0)scale(0.996264)" xlink:href="#Nimbus_Sans_L_Regular-53"/>
    </g>
   </g>
   <g id="text_24">
    <g id="patch_21">
     <path d="M 297.209088 148.036282 
L 297.209088 104.249164 
L 281.692542 104.249164 
L 281.692542 148.036282 
z
" style="fill:#ffffff;"/>
    </g>
    <!-- 152.6 -->
    <g transform="translate(293.929518 148.576282)rotate(-90)scale(0.18 -0.18)">
     <use transform="scale(0.996264)" xlink:href="#Nimbus_Sans_L_Regular-49"/>
     <use transform="translate(55.391677 0)scale(0.996264)" xlink:href="#Nimbus_Sans_L_Regular-53"/>
     <use transform="translate(110.783354 0)scale(0.996264)" xlink:href="#Nimbus_Sans_L_Regular-50"/>
     <use transform="translate(166.175031 0)scale(0.996264)" xlink:href="#Nimbus_Sans_L_Regular-46"/>
     <use transform="translate(193.8702 0)scale(0.996264)" xlink:href="#Nimbus_Sans_L_Regular-54"/>
    </g>
   </g>
   <g id="text_25">
    <g id="patch_22">
     <path d="M 346.559849 140.230574 
L 346.559849 96.443455 
L 331.043303 96.443455 
L 331.043303 140.230574 
z
" style="fill:#ffffff;"/>
    </g>
    <!-- 160.3 -->
    <g transform="translate(343.280279 140.770574)rotate(-90)scale(0.18 -0.18)">
     <use transform="scale(0.996264)" xlink:href="#Nimbus_Sans_L_Regular-49"/>
     <use transform="translate(55.391677 0)scale(0.996264)" xlink:href="#Nimbus_Sans_L_Regular-54"/>
     <use transform="translate(110.783354 0)scale(0.996264)" xlink:href="#Nimbus_Sans_L_Regular-48"/>
     <use transform="translate(166.175031 0)scale(0.996264)" xlink:href="#Nimbus_Sans_L_Regular-46"/>
     <use transform="translate(193.8702 0)scale(0.996264)" xlink:href="#Nimbus_Sans_L_Regular-51"/>
    </g>
   </g>
   <g id="text_26">
    <g id="patch_23">
     <path d="M 395.91061 127.564734 
L 395.91061 83.777616 
L 380.394064 83.777616 
L 380.394064 127.564734 
z
" style="fill:#ffffff;"/>
    </g>
    <!-- 175.6 -->
    <g transform="translate(392.63104 128.104734)rotate(-90)scale(0.18 -0.18)">
     <use transform="scale(0.996264)" xlink:href="#Nimbus_Sans_L_Regular-49"/>
     <use transform="translate(55.391677 0)scale(0.996264)" xlink:href="#Nimbus_Sans_L_Regular-55"/>
     <use transform="translate(110.783354 0)scale(0.996264)" xlink:href="#Nimbus_Sans_L_Regular-53"/>
     <use transform="translate(166.175031 0)scale(0.996264)" xlink:href="#Nimbus_Sans_L_Regular-46"/>
     <use transform="translate(193.8702 0)scale(0.996264)" xlink:href="#Nimbus_Sans_L_Regular-54"/>
    </g>
   </g>
   <g id="text_27">
    <g id="patch_24">
     <path d="M 445.261371 122.656154 
L 445.261371 78.869036 
L 429.744825 78.869036 
L 429.744825 122.656154 
z
" style="fill:#ffffff;"/>
    </g>
    <!-- 189.0 -->
    <g transform="translate(441.981801 123.196154)rotate(-90)scale(0.18 -0.18)">
     <defs>
      <path d="M 39.09375 37.484375 
C 46.40625 41.890625 48.796875 45.46875 48.796875 52.140625 
C 48.796875 63.1875 40.09375 71 27.5 71 
C 15 71 6.203125 63.1875 6.203125 52.140625 
C 6.203125 45.578125 8.59375 41.984375 15.796875 37.484375 
C 7.703125 33.59375 3.703125 27.71875 3.703125 19.9375 
C 3.703125 6.984375 13.5 -2 27.5 -2 
C 41.5 -2 51.296875 6.984375 51.296875 19.84375 
C 51.296875 27.71875 47.296875 33.59375 39.09375 37.484375 
z
M 27.5 63.1875 
C 35 63.1875 39.796875 58.8125 39.796875 51.9375 
C 39.796875 45.375 34.90625 41 27.5 41 
C 20.09375 41 15.203125 45.375 15.203125 52.046875 
C 15.203125 58.8125 20.09375 63.1875 27.5 63.1875 
z
M 27.5 33.59375 
C 36.296875 33.59375 42.296875 28.015625 42.296875 19.75 
C 42.296875 11.375 36.296875 5.796875 27.296875 5.796875 
C 18.703125 5.796875 12.703125 11.46875 12.703125 19.75 
C 12.703125 28.015625 18.703125 33.59375 27.5 33.59375 
z
" id="Nimbus_Sans_L_Regular-56"/>
     </defs>
     <use transform="scale(0.996264)" xlink:href="#Nimbus_Sans_L_Regular-49"/>
     <use transform="translate(55.391677 0)scale(0.996264)" xlink:href="#Nimbus_Sans_L_Regular-56"/>
     <use transform="translate(110.783354 0)scale(0.996264)" xlink:href="#Nimbus_Sans_L_Regular-57"/>
     <use transform="translate(166.175031 0)scale(0.996264)" xlink:href="#Nimbus_Sans_L_Regular-46"/>
     <use transform="translate(193.8702 0)scale(0.996264)" xlink:href="#Nimbus_Sans_L_Regular-48"/>
    </g>
   </g>
   <g id="text_28">
    <g id="patch_25">
     <path d="M 494.612132 95.504836 
L 494.612132 51.717718 
L 479.095586 51.717718 
L 479.095586 95.504836 
z
" style="fill:#ffffff;"/>
    </g>
    <!-- 232.7 -->
    <g transform="translate(491.332562 96.044836)rotate(-90)scale(0.18 -0.18)">
     <use transform="scale(0.996264)" xlink:href="#Nimbus_Sans_L_Regular-50"/>
     <use transform="translate(55.391677 0)scale(0.996264)" xlink:href="#Nimbus_Sans_L_Regular-51"/>
     <use transform="translate(110.783354 0)scale(0.996264)" xlink:href="#Nimbus_Sans_L_Regular-50"/>
     <use transform="translate(166.175031 0)scale(0.996264)" xlink:href="#Nimbus_Sans_L_Regular-46"/>
     <use transform="translate(193.8702 0)scale(0.996264)" xlink:href="#Nimbus_Sans_L_Regular-55"/>
    </g>
   </g>
   <g id="text_29">
    <g id="patch_26">
     <path d="M 543.962892 64.870901 
L 543.962892 21.083783 
L 528.446347 21.083783 
L 528.446347 64.870901 
z
" style="fill:#ffffff;"/>
    </g>
    <!-- 291.8 -->
    <g transform="translate(540.683323 65.410901)rotate(-90)scale(0.18 -0.18)">
     <use transform="scale(0.996264)" xlink:href="#Nimbus_Sans_L_Regular-50"/>
     <use transform="translate(55.391677 0)scale(0.996264)" xlink:href="#Nimbus_Sans_L_Regular-57"/>
     <use transform="translate(110.783354 0)scale(0.996264)" xlink:href="#Nimbus_Sans_L_Regular-49"/>
     <use transform="translate(166.175031 0)scale(0.996264)" xlink:href="#Nimbus_Sans_L_Regular-46"/>
     <use transform="translate(193.8702 0)scale(0.996264)" xlink:href="#Nimbus_Sans_L_Regular-56"/>
    </g>
   </g>
  </g>
 </g>
 <defs>
  <clipPath id="pd0ace69e8a">
   <rect height="235.229266" width="493.50761" x="67.37239" y="15.12"/>
  </clipPath>
 </defs>
</svg>
