<?xml version="1.0" encoding="utf-8" standalone="no"?>
<!DOCTYPE svg PUBLIC "-//W3C//DTD SVG 1.1//EN"
  "http://www.w3.org/Graphics/SVG/1.1/DTD/svg11.dtd">
<!-- Created with matplotlib (https://matplotlib.org/) -->
<svg height="360pt" version="1.1" viewBox="0 0 576 360" width="576pt" xmlns="http://www.w3.org/2000/svg" xmlns:xlink="http://www.w3.org/1999/xlink">
 <metadata>
  <rdf:RDF xmlns:cc="http://creativecommons.org/ns#" xmlns:dc="http://purl.org/dc/elements/1.1/" xmlns:rdf="http://www.w3.org/1999/02/22-rdf-syntax-ns#">
   <cc:Work>
    <dc:type rdf:resource="http://purl.org/dc/dcmitype/StillImage"/>
    <dc:date>2021-03-06T00:24:51.877360</dc:date>
    <dc:format>image/svg+xml</dc:format>
    <dc:creator>
     <cc:Agent>
      <dc:title>Matplotlib v3.3.4, https://matplotlib.org/</dc:title>
     </cc:Agent>
    </dc:creator>
   </cc:Work>
  </rdf:RDF>
 </metadata>
 <defs>
  <style type="text/css">*{stroke-linecap:butt;stroke-linejoin:round;}</style>
 </defs>
 <g id="figure_1">
  <g id="patch_1">
   <path d="M 0 360 
L 576 360 
L 576 0 
L 0 0 
z
" style="fill:#ffffff;"/>
  </g>
  <g id="axes_1">
   <g id="patch_2">
    <path d="M 60.435371 324.283454 
L 560.88 324.283454 
L 560.88 15.12 
L 60.435371 15.12 
z
" style="fill:#ffffff;"/>
   </g>
   <g id="line2d_1">
    <path d="M 185.546528 330.466723 
L 185.546528 15.12 
" style="fill:none;stroke:#000000;stroke-linecap:square;stroke-width:0.5;"/>
   </g>
   <g id="line2d_2">
    <path d="M 310.657685 330.466723 
L 310.657685 15.12 
" style="fill:none;stroke:#000000;stroke-linecap:square;stroke-width:0.5;"/>
   </g>
   <g id="line2d_3">
    <path d="M 435.768843 330.466723 
L 435.768843 15.12 
" style="fill:none;stroke:#000000;stroke-linecap:square;stroke-width:0.5;"/>
   </g>
   <g id="patch_3">
    <path d="M 60.435371 324.283454 
L 60.435371 15.12 
" style="fill:none;stroke:#000000;stroke-linecap:square;stroke-linejoin:miter;"/>
   </g>
   <g id="patch_4">
    <path d="M 560.88 324.283454 
L 560.88 15.12 
" style="fill:none;stroke:#000000;stroke-linecap:square;stroke-linejoin:miter;"/>
   </g>
   <g id="patch_5">
    <path d="M 60.435371 324.283454 
L 560.88 324.283454 
" style="fill:none;stroke:#000000;stroke-linecap:square;stroke-linejoin:miter;"/>
   </g>
   <g id="patch_6">
    <path d="M 60.435371 15.12 
L 560.88 15.12 
" style="fill:none;stroke:#000000;stroke-linecap:square;stroke-linejoin:miter;"/>
   </g>
   <g id="matplotlib.axis_1">
    <g id="xtick_1">
     <g id="line2d_4"/>
     <g id="line2d_5"/>
     <g id="text_1">
      <!-- Mimalloc -->
      <g transform="translate(87.627834 341.060431)scale(0.18 -0.18)">
       <defs>
        <path d="M 46.796875 0 
L 67.296875 61.171875 
L 67.296875 0 
L 76.09375 0 
L 76.09375 73 
L 63.203125 73 
L 42 9.40625 
L 20.40625 73 
L 7.5 73 
L 7.5 0 
L 16.296875 0 
L 16.296875 61.171875 
L 37 0 
z
" id="Nimbus_Sans_L_Regular-77"/>
        <path d="M 15 52.46875 
L 6.703125 52.46875 
L 6.703125 0 
L 15 0 
z
M 15 73 
L 6.59375 73 
L 6.59375 62.484375 
L 15 62.484375 
z
" id="Nimbus_Sans_L_Regular-105"/>
        <path d="M 7 52 
L 7 0 
L 15.40625 0 
L 15.40625 32.640625 
C 15.40625 40.578125 20.90625 46.6875 27.703125 46.6875 
C 33.90625 46.6875 37.40625 42.875 37.40625 36.171875 
L 37.40625 0 
L 45.796875 0 
L 45.796875 32.953125 
C 45.796875 40.578125 51.296875 46.6875 58.09375 46.6875 
C 64.203125 46.6875 67.796875 42.78125 67.796875 36.171875 
L 67.796875 0 
L 76.203125 0 
L 76.203125 39.375 
C 76.203125 48.796875 70.796875 54 61 54 
C 54 54 49.796875 51.890625 44.90625 45.984375 
C 41.796875 51.59375 37.59375 54 30.796875 54 
C 23.796875 54 19.203125 51.390625 14.703125 45.09375 
L 14.703125 52 
z
" id="Nimbus_Sans_L_Regular-109"/>
        <path d="M 53.5 5.1875 
C 52.59375 5 52.203125 5 51.703125 5 
C 48.796875 5 47.203125 6.484375 47.203125 9.078125 
L 47.203125 39.71875 
C 47.203125 48.984375 40.40625 54 27.5 54 
C 19.90625 54 13.59375 51.796875 10.09375 47.890625 
C 7.703125 45.203125 6.703125 42.21875 6.5 37.03125 
L 14.90625 37.03125 
C 15.59375 43.40625 19.40625 46.296875 27.203125 46.296875 
C 34.703125 46.296875 38.90625 43.5 38.90625 38.53125 
L 38.90625 36.34375 
C 38.90625 32.859375 36.796875 31.359375 30.203125 30.5625 
C 18.40625 29.078125 16.59375 28.671875 13.40625 27.390625 
C 7.296875 24.890625 4.203125 20.21875 4.203125 13.453125 
C 4.203125 4 10.796875 -2 21.40625 -2 
C 28 -2 33.296875 0.296875 39.203125 5.6875 
C 39.796875 0.390625 42.40625 -2 47.796875 -2 
C 49.5 -2 50.796875 -1.8125 53.5 -1.109375 
z
M 38.90625 16.734375 
C 38.90625 13.953125 38.09375 12.265625 35.59375 9.96875 
C 32.203125 6.890625 28.09375 5.296875 23.203125 5.296875 
C 16.703125 5.296875 12.90625 8.375 12.90625 13.65625 
C 12.90625 19.125 16.59375 21.90625 25.5 23.203125 
C 34.296875 24.40625 36.09375 24.796875 38.90625 26.09375 
z
" id="Nimbus_Sans_L_Regular-97"/>
        <path d="M 15.203125 73 
L 6.796875 73 
L 6.796875 0 
L 15.203125 0 
z
" id="Nimbus_Sans_L_Regular-108"/>
        <path d="M 27.203125 54 
C 12.5 54 3.59375 43.5 3.59375 25.984375 
C 3.59375 8.484375 12.40625 -2 27.296875 -2 
C 42 -2 51 8.484375 51 25.59375 
C 51 43.609375 42.296875 54 27.203125 54 
z
M 27.296875 46.296875 
C 36.703125 46.296875 42.296875 38.625 42.296875 25.6875 
C 42.296875 13.453125 36.5 5.6875 27.296875 5.6875 
C 18 5.6875 12.296875 13.359375 12.296875 25.984375 
C 12.296875 38.53125 18 46.296875 27.296875 46.296875 
z
" id="Nimbus_Sans_L_Regular-111"/>
        <path d="M 47.09375 34.953125 
C 46.703125 40.015625 45.59375 43.296875 43.59375 46.1875 
C 40 51.09375 33.703125 54 26.40625 54 
C 12.296875 54 3.09375 42.8125 3.09375 25.5 
C 3.09375 8.671875 12.09375 -2 26.296875 -2 
C 38.796875 -2 46.703125 5.5 47.703125 18.234375 
L 39.296875 18.234375 
C 37.90625 9.875 33.59375 5.6875 26.5 5.6875 
C 17.296875 5.6875 11.796875 13.15625 11.796875 25.5 
C 11.796875 38.53125 17.203125 46.296875 26.296875 46.296875 
C 33.296875 46.296875 37.703125 42.203125 38.703125 34.953125 
z
" id="Nimbus_Sans_L_Regular-99"/>
       </defs>
       <use transform="scale(0.996264)" xlink:href="#Nimbus_Sans_L_Regular-77"/>
       <use transform="translate(82.98843 0)scale(0.996264)" xlink:href="#Nimbus_Sans_L_Regular-105"/>
       <use transform="translate(105.105215 0)scale(0.996264)" xlink:href="#Nimbus_Sans_L_Regular-109"/>
       <use transform="translate(188.093645 0)scale(0.996264)" xlink:href="#Nimbus_Sans_L_Regular-97"/>
       <use transform="translate(243.485322 0)scale(0.996264)" xlink:href="#Nimbus_Sans_L_Regular-108"/>
       <use transform="translate(265.602106 0)scale(0.996264)" xlink:href="#Nimbus_Sans_L_Regular-108"/>
       <use transform="translate(287.71889 0)scale(0.996264)" xlink:href="#Nimbus_Sans_L_Regular-111"/>
       <use transform="translate(343.110567 0)scale(0.996264)" xlink:href="#Nimbus_Sans_L_Regular-99"/>
      </g>
     </g>
    </g>
    <g id="xtick_2">
     <g id="line2d_6"/>
     <g id="line2d_7"/>
     <g id="text_2">
      <!-- TLSF -->
      <g transform="translate(226.179472 341.060431)scale(0.18 -0.18)">
       <defs>
        <path d="M 35.40625 64.796875 
L 59.296875 64.796875 
L 59.296875 73 
L 2.09375 73 
L 2.09375 64.796875 
L 26.09375 64.796875 
L 26.09375 0 
L 35.40625 0 
z
" id="Nimbus_Sans_L_Regular-84"/>
        <path d="M 17.296875 73 
L 8 73 
L 8 0 
L 53.296875 0 
L 53.296875 8.1875 
L 17.296875 8.1875 
z
" id="Nimbus_Sans_L_Regular-76"/>
        <path d="M 59.59375 51.484375 
C 59.5 65.6875 49.703125 74 32.90625 74 
C 16.90625 74 7 65.796875 7 52.6875 
C 7 43.84375 11.703125 38.28125 21.296875 35.796875 
L 39.40625 31.03125 
C 48.59375 28.640625 52.796875 24.96875 52.796875 19.3125 
C 52.796875 15.4375 50.703125 11.453125 47.59375 9.265625 
C 44.703125 7.28125 40.09375 6.1875 34.203125 6.1875 
C 26.296875 6.1875 20.90625 8.078125 17.40625 12.25 
C 14.703125 15.4375 13.5 18.90625 13.59375 23.375 
L 4.796875 23.375 
C 4.90625 16.71875 6.203125 12.34375 9.09375 8.375 
C 14.09375 1.59375 22.5 -2 33.59375 -2 
C 42.296875 -2 49.40625 0 54.09375 3.59375 
C 59 7.484375 62.09375 13.9375 62.09375 20.203125 
C 62.09375 29.140625 56.5 35.6875 46.59375 38.375 
L 28.296875 43.25 
C 19.5 45.625 16.296875 48.40625 16.296875 53.96875 
C 16.296875 61.328125 22.796875 66.1875 32.59375 66.1875 
C 44.203125 66.1875 50.703125 60.921875 50.796875 51.484375 
z
" id="Nimbus_Sans_L_Regular-83"/>
        <path d="M 18.296875 33 
L 53.09375 33 
L 53.09375 41.1875 
L 18.296875 41.1875 
L 18.296875 64.796875 
L 57.90625 64.796875 
L 57.90625 73 
L 9 73 
L 9 0 
L 18.296875 0 
z
" id="Nimbus_Sans_L_Regular-70"/>
       </defs>
       <use transform="scale(0.996264)" xlink:href="#Nimbus_Sans_L_Regular-84"/>
       <use transform="translate(60.871631 0)scale(0.996264)" xlink:href="#Nimbus_Sans_L_Regular-76"/>
       <use transform="translate(116.263308 0)scale(0.996264)" xlink:href="#Nimbus_Sans_L_Regular-83"/>
       <use transform="translate(182.713339 0)scale(0.996264)" xlink:href="#Nimbus_Sans_L_Regular-70"/>
      </g>
     </g>
    </g>
    <g id="xtick_3">
     <g id="line2d_8"/>
     <g id="line2d_9"/>
     <g id="text_3">
      <!-- Binary buddy -->
      <g transform="translate(320.796409 341.060431)scale(0.18 -0.18)">
       <defs>
        <path d="M 7.90625 0 
L 40.796875 0 
C 47.703125 0 52.796875 1.890625 56.703125 6.09375 
C 60.296875 9.875 62.296875 15.015625 62.296875 20.640625 
C 62.296875 29.34375 58.296875 34.59375 49 38.1875 
C 55.59375 41.296875 59.09375 46.78125 59.09375 54.3125 
C 59.09375 59.703125 57.09375 64.484375 53.296875 67.890625 
C 49.5 71.390625 44.5 73 37.5 73 
L 7.90625 73 
z
M 17.203125 41.1875 
L 17.203125 64.796875 
L 35.203125 64.796875 
C 40.40625 64.796875 43.296875 64.078125 45.796875 62.140625 
C 48.40625 60.109375 49.796875 57.0625 49.796875 52.984375 
C 49.796875 49.03125 48.40625 45.875 45.796875 43.84375 
C 43.296875 41.90625 40.40625 41.1875 35.203125 41.1875 
z
M 17.203125 8.1875 
L 17.203125 33 
L 39.90625 33 
C 44.40625 33 47.40625 31.90625 49.59375 29.53125 
C 51.796875 27.265625 53 24.09375 53 20.546875 
C 53 17.078125 51.796875 13.921875 49.59375 11.65625 
C 47.40625 9.28125 44.40625 8.1875 39.90625 8.1875 
z
" id="Nimbus_Sans_L_Regular-66"/>
        <path d="M 7 52 
L 7 0 
L 15.40625 0 
L 15.40625 28.671875 
C 15.40625 39.671875 21 46.6875 29.59375 46.6875 
C 36.203125 46.6875 40.40625 42.6875 40.40625 36.375 
L 40.40625 0 
L 48.703125 0 
L 48.703125 39.671875 
C 48.703125 48.390625 42.203125 54 32.09375 54 
C 24.296875 54 19.296875 50.984375 14.703125 43.6875 
L 14.703125 52 
z
" id="Nimbus_Sans_L_Regular-110"/>
        <path d="M 6.90625 52 
L 6.90625 0 
L 15.296875 0 
L 15.296875 26.984375 
C 15.296875 34.421875 17.203125 39.28125 21.203125 42.15625 
C 23.796875 44.046875 26.296875 44.640625 32.09375 44.734375 
L 32.09375 53.1875 
C 30.703125 53.890625 30 54 28.90625 54 
C 23.5 54 19.40625 50.796875 14.59375 42.96875 
L 14.59375 52 
z
" id="Nimbus_Sans_L_Regular-114"/>
        <path d="M 38.796875 52 
L 24.296875 11.3125 
L 10.90625 52 
L 2 52 
L 19.703125 -0.453125 
L 16.5 -8.71875 
C 15.203125 -12.40625 13.296875 -13.8125 9.796875 -13.8125 
C 8.59375 -13.8125 7.203125 -13.609375 5.40625 -13.203125 
L 5.40625 -20.703125 
C 7.09375 -21.609375 8.796875 -22 11 -22 
C 13.703125 -22 16.59375 -21.109375 18.796875 -19.5 
C 21.40625 -17.609375 22.90625 -15.40625 24.5 -11.21875 
L 47.796875 52 
z
" id="Nimbus_Sans_L_Regular-121"/>
        <path d="M 5.40625 73 
L 5.40625 0.296875 
L 12.90625 0.296875 
L 12.90625 6.984375 
C 16.90625 0.890625 22.203125 -2 29.5 -2 
C 43.296875 -2 52.296875 9.28125 52.296875 26.59375 
C 52.296875 43.5 43.703125 54 29.90625 54 
C 22.703125 54 17.59375 51.296875 13.703125 45.390625 
L 13.703125 73 
z
M 28.296875 46.1875 
C 37.59375 46.1875 43.59375 38.125 43.59375 25.6875 
C 43.59375 13.859375 37.40625 5.796875 28.296875 5.796875 
C 19.5 5.796875 13.703125 13.75 13.703125 25.984375 
C 13.703125 38.234375 19.5 46.1875 28.296875 46.1875 
z
" id="Nimbus_Sans_L_Regular-98"/>
        <path d="M 48.203125 0.296875 
L 48.203125 52 
L 39.90625 52 
L 39.90625 22.71875 
C 39.90625 12.1875 34.296875 5.296875 25.59375 5.296875 
C 19 5.296875 14.796875 9.234375 14.796875 15.4375 
L 14.796875 52 
L 6.5 52 
L 6.5 12.1875 
C 6.5 3.59375 13 -2 23.203125 -2 
C 30.90625 -2 35.796875 0.6875 40.703125 7.5625 
L 40.703125 0.296875 
z
" id="Nimbus_Sans_L_Regular-117"/>
        <path d="M 49.5 73 
L 41.203125 73 
L 41.203125 45.890625 
C 37.703125 51.1875 32.09375 54 25.09375 54 
C 11.5 54 2.59375 43.109375 2.59375 26.484375 
C 2.59375 8.875 11.296875 -2 25.40625 -2 
C 32.59375 -2 37.59375 0.6875 42.09375 7.1875 
L 42.09375 0.296875 
L 49.5 0.296875 
z
M 26.5 46.1875 
C 35.5 46.1875 41.203125 38.234375 41.203125 25.796875 
C 41.203125 13.75 35.40625 5.796875 26.59375 5.796875 
C 17.40625 5.796875 11.296875 13.859375 11.296875 25.984375 
C 11.296875 38.125 17.40625 46.1875 26.5 46.1875 
z
" id="Nimbus_Sans_L_Regular-100"/>
       </defs>
       <use transform="scale(0.996264)" xlink:href="#Nimbus_Sans_L_Regular-66"/>
       <use transform="translate(66.450031 0)scale(0.996264)" xlink:href="#Nimbus_Sans_L_Regular-105"/>
       <use transform="translate(88.566815 0)scale(0.996264)" xlink:href="#Nimbus_Sans_L_Regular-110"/>
       <use transform="translate(143.958492 0)scale(0.996264)" xlink:href="#Nimbus_Sans_L_Regular-97"/>
       <use transform="translate(199.350169 0)scale(0.996264)" xlink:href="#Nimbus_Sans_L_Regular-114"/>
       <use transform="translate(235.513492 0)scale(0.996264)" xlink:href="#Nimbus_Sans_L_Regular-121"/>
       <use transform="translate(313.021862 0)scale(0.996264)" xlink:href="#Nimbus_Sans_L_Regular-98"/>
       <use transform="translate(366.421528 0)scale(0.996264)" xlink:href="#Nimbus_Sans_L_Regular-117"/>
       <use transform="translate(421.813205 0)scale(0.996264)" xlink:href="#Nimbus_Sans_L_Regular-100"/>
       <use transform="translate(477.204882 0)scale(0.996264)" xlink:href="#Nimbus_Sans_L_Regular-100"/>
       <use transform="translate(532.596559 0)scale(0.996264)" xlink:href="#Nimbus_Sans_L_Regular-121"/>
      </g>
     </g>
    </g>
    <g id="xtick_4">
     <g id="line2d_10"/>
     <g id="line2d_11"/>
     <g id="text_4">
      <!-- tinyalloc -->
      <g transform="translate(466.251906 341.060431)scale(0.18 -0.18)">
       <defs>
        <path d="M 25.40625 52 
L 16.796875 52 
L 16.796875 66.390625 
L 8.5 66.390625 
L 8.5 52 
L 1.40625 52 
L 1.40625 45.1875 
L 8.5 45.1875 
L 8.5 6.28125 
C 8.5 1 12.09375 -2 18.59375 -2 
C 20.59375 -2 22.59375 -1.8125 25.40625 -1.3125 
L 25.40625 5.6875 
C 24.296875 5.390625 23 5.296875 21.40625 5.296875 
C 17.796875 5.296875 16.796875 6.28125 16.796875 9.90625 
L 16.796875 45.1875 
L 25.40625 45.1875 
z
" id="Nimbus_Sans_L_Regular-116"/>
       </defs>
       <use transform="scale(0.996264)" xlink:href="#Nimbus_Sans_L_Regular-116"/>
       <use transform="translate(27.69517 0)scale(0.996264)" xlink:href="#Nimbus_Sans_L_Regular-105"/>
       <use transform="translate(49.811954 0)scale(0.996264)" xlink:href="#Nimbus_Sans_L_Regular-110"/>
       <use transform="translate(103.710238 0)scale(0.996264)" xlink:href="#Nimbus_Sans_L_Regular-121"/>
       <use transform="translate(151.531428 0)scale(0.996264)" xlink:href="#Nimbus_Sans_L_Regular-97"/>
       <use transform="translate(206.923105 0)scale(0.996264)" xlink:href="#Nimbus_Sans_L_Regular-108"/>
       <use transform="translate(229.039889 0)scale(0.996264)" xlink:href="#Nimbus_Sans_L_Regular-108"/>
       <use transform="translate(251.156673 0)scale(0.996264)" xlink:href="#Nimbus_Sans_L_Regular-111"/>
       <use transform="translate(306.54835 0)scale(0.996264)" xlink:href="#Nimbus_Sans_L_Regular-99"/>
      </g>
     </g>
    </g>
   </g>
   <g id="matplotlib.axis_2">
    <g id="ytick_1">
     <g id="line2d_12">
      <path clip-path="url(#p0fc78b182d)" d="M 60.435371 324.283454 
L 560.88 324.283454 
" style="fill:none;stroke:#000000;stroke-dasharray:1,3;stroke-dashoffset:0;stroke-opacity:0.5;stroke-width:0.5;"/>
     </g>
     <g id="line2d_13"/>
     <g id="line2d_14"/>
     <g id="text_5">
      <!-- 0.0 -->
      <g transform="translate(37.048401 327.766889)scale(0.14 -0.14)">
       <defs>
        <path d="M 27.5 71 
C 20.90625 71 14.90625 68.09375 11.203125 63.1875 
C 6.59375 57.015625 4.296875 47.546875 4.296875 34.484375 
C 4.296875 10.671875 12.296875 -2 27.5 -2 
C 42.5 -2 50.703125 10.671875 50.703125 33.890625 
C 50.703125 47.640625 48.5 56.8125 43.796875 63.1875 
C 40.09375 68.1875 34.203125 71 27.5 71 
z
M 27.5 63.1875 
C 37 63.1875 41.703125 53.625 41.703125 34.6875 
C 41.703125 14.65625 37.09375 5.296875 27.296875 5.296875 
C 18 5.296875 13.296875 15.0625 13.296875 34.390625 
C 13.296875 53.71875 18 63.1875 27.5 63.1875 
z
" id="Nimbus_Sans_L_Regular-48"/>
        <path d="M 19.09375 10.390625 
L 8.703125 10.390625 
L 8.703125 0 
L 19.09375 0 
z
" id="Nimbus_Sans_L_Regular-46"/>
       </defs>
       <use transform="scale(0.996264)" xlink:href="#Nimbus_Sans_L_Regular-48"/>
       <use transform="translate(55.391677 0)scale(0.996264)" xlink:href="#Nimbus_Sans_L_Regular-46"/>
       <use transform="translate(83.086847 0)scale(0.996264)" xlink:href="#Nimbus_Sans_L_Regular-48"/>
      </g>
     </g>
    </g>
    <g id="ytick_2">
     <g id="line2d_15">
      <path clip-path="url(#p0fc78b182d)" d="M 60.435371 285.638022 
L 560.88 285.638022 
" style="fill:none;stroke:#000000;stroke-dasharray:1,3;stroke-dashoffset:0;stroke-opacity:0.5;stroke-width:0.5;"/>
     </g>
     <g id="line2d_16"/>
     <g id="line2d_17"/>
     <g id="text_6">
      <!-- 0.5 -->
      <g transform="translate(37.048401 289.121458)scale(0.14 -0.14)">
       <defs>
        <path d="M 47.59375 71 
L 11 71 
L 5.703125 32.4375 
L 13.796875 32.4375 
C 17.90625 37.296875 21.296875 39 26.796875 39 
C 36.296875 39 42.296875 32.53125 42.296875 22.09375 
C 42.296875 11.953125 36.40625 5.796875 26.796875 5.796875 
C 19.09375 5.796875 14.40625 9.671875 12.296875 17.625 
L 3.5 17.625 
C 4.703125 11.859375 5.703125 9.078125 7.796875 6.484375 
C 11.796875 1.09375 19 -2 27 -2 
C 41.296875 -2 51.296875 8.375 51.296875 23.28125 
C 51.296875 37.203125 42 46.796875 28.40625 46.796875 
C 23.40625 46.796875 19.40625 45.5 15.296875 42.5 
L 18.09375 62.296875 
L 47.59375 62.296875 
z
" id="Nimbus_Sans_L_Regular-53"/>
       </defs>
       <use transform="scale(0.996264)" xlink:href="#Nimbus_Sans_L_Regular-48"/>
       <use transform="translate(55.391677 0)scale(0.996264)" xlink:href="#Nimbus_Sans_L_Regular-46"/>
       <use transform="translate(83.086847 0)scale(0.996264)" xlink:href="#Nimbus_Sans_L_Regular-53"/>
      </g>
     </g>
    </g>
    <g id="ytick_3">
     <g id="line2d_18">
      <path clip-path="url(#p0fc78b182d)" d="M 60.435371 246.992591 
L 560.88 246.992591 
" style="fill:none;stroke:#000000;stroke-dasharray:1,3;stroke-dashoffset:0;stroke-opacity:0.5;stroke-width:0.5;"/>
     </g>
     <g id="line2d_19"/>
     <g id="line2d_20"/>
     <g id="text_7">
      <!-- 1.0 -->
      <g transform="translate(37.048401 250.476026)scale(0.14 -0.14)">
       <defs>
        <path d="M 25.90625 50.5 
L 25.90625 0 
L 34.703125 0 
L 34.703125 70.890625 
L 28.90625 70.890625 
C 25.796875 60 23.796875 58.5 10.203125 56.796875 
L 10.203125 50.5 
z
" id="Nimbus_Sans_L_Regular-49"/>
       </defs>
       <use transform="scale(0.996264)" xlink:href="#Nimbus_Sans_L_Regular-49"/>
       <use transform="translate(55.391677 0)scale(0.996264)" xlink:href="#Nimbus_Sans_L_Regular-46"/>
       <use transform="translate(83.086847 0)scale(0.996264)" xlink:href="#Nimbus_Sans_L_Regular-48"/>
      </g>
     </g>
    </g>
    <g id="ytick_4">
     <g id="line2d_21">
      <path clip-path="url(#p0fc78b182d)" d="M 60.435371 208.347159 
L 560.88 208.347159 
" style="fill:none;stroke:#000000;stroke-dasharray:1,3;stroke-dashoffset:0;stroke-opacity:0.5;stroke-width:0.5;"/>
     </g>
     <g id="line2d_22"/>
     <g id="line2d_23"/>
     <g id="text_8">
      <!-- 1.5 -->
      <g transform="translate(37.048401 211.830594)scale(0.14 -0.14)">
       <use transform="scale(0.996264)" xlink:href="#Nimbus_Sans_L_Regular-49"/>
       <use transform="translate(55.391677 0)scale(0.996264)" xlink:href="#Nimbus_Sans_L_Regular-46"/>
       <use transform="translate(83.086847 0)scale(0.996264)" xlink:href="#Nimbus_Sans_L_Regular-53"/>
      </g>
     </g>
    </g>
    <g id="ytick_5">
     <g id="line2d_24">
      <path clip-path="url(#p0fc78b182d)" d="M 60.435371 169.701727 
L 560.88 169.701727 
" style="fill:none;stroke:#000000;stroke-dasharray:1,3;stroke-dashoffset:0;stroke-opacity:0.5;stroke-width:0.5;"/>
     </g>
     <g id="line2d_25"/>
     <g id="line2d_26"/>
     <g id="text_9">
      <!-- 2.0 -->
      <g transform="translate(37.048401 173.185162)scale(0.14 -0.14)">
       <defs>
        <path d="M 50.59375 8.6875 
L 13.296875 8.6875 
C 14.203125 14.5 17.40625 18.203125 26.09375 23.328125 
L 36.09375 28.734375 
C 46 34.140625 51.09375 41.453125 51.09375 50.171875 
C 51.09375 56.078125 48.703125 61.59375 44.5 65.390625 
C 40.296875 69.1875 35.09375 71 28.40625 71 
C 19.40625 71 12.703125 67.796875 8.796875 61.796875 
C 6.296875 57.984375 5.203125 53.578125 5 46.359375 
L 13.796875 46.359375 
C 14.09375 51.171875 14.703125 54.078125 15.90625 56.375 
C 18.203125 60.6875 22.796875 63.296875 28.09375 63.296875 
C 36.09375 63.296875 42.09375 57.578125 42.09375 49.96875 
C 42.09375 44.359375 38.796875 39.546875 32.5 35.9375 
L 23.296875 30.734375 
C 8.5 22.3125 4.203125 15.609375 3.40625 0 
L 50.59375 0 
z
" id="Nimbus_Sans_L_Regular-50"/>
       </defs>
       <use transform="scale(0.996264)" xlink:href="#Nimbus_Sans_L_Regular-50"/>
       <use transform="translate(55.391677 0)scale(0.996264)" xlink:href="#Nimbus_Sans_L_Regular-46"/>
       <use transform="translate(83.086847 0)scale(0.996264)" xlink:href="#Nimbus_Sans_L_Regular-48"/>
      </g>
     </g>
    </g>
    <g id="ytick_6">
     <g id="line2d_27">
      <path clip-path="url(#p0fc78b182d)" d="M 60.435371 131.056295 
L 560.88 131.056295 
" style="fill:none;stroke:#000000;stroke-dasharray:1,3;stroke-dashoffset:0;stroke-opacity:0.5;stroke-width:0.5;"/>
     </g>
     <g id="line2d_28"/>
     <g id="line2d_29"/>
     <g id="text_10">
      <!-- 2.5 -->
      <g transform="translate(37.048401 134.539731)scale(0.14 -0.14)">
       <use transform="scale(0.996264)" xlink:href="#Nimbus_Sans_L_Regular-50"/>
       <use transform="translate(55.391677 0)scale(0.996264)" xlink:href="#Nimbus_Sans_L_Regular-46"/>
       <use transform="translate(83.086847 0)scale(0.996264)" xlink:href="#Nimbus_Sans_L_Regular-53"/>
      </g>
     </g>
    </g>
    <g id="ytick_7">
     <g id="line2d_30">
      <path clip-path="url(#p0fc78b182d)" d="M 60.435371 92.410864 
L 560.88 92.410864 
" style="fill:none;stroke:#000000;stroke-dasharray:1,3;stroke-dashoffset:0;stroke-opacity:0.5;stroke-width:0.5;"/>
     </g>
     <g id="line2d_31"/>
     <g id="line2d_32"/>
     <g id="text_11">
      <!-- 3.0 -->
      <g transform="translate(37.048401 95.894299)scale(0.14 -0.14)">
       <defs>
        <path d="M 22.09375 32.703125 
L 23.203125 32.703125 
L 26.90625 32.796875 
C 36.59375 32.796875 41.59375 28.421875 41.59375 19.9375 
C 41.59375 11.078125 36.09375 5.796875 26.90625 5.796875 
C 17.296875 5.796875 12.59375 10.578125 12 20.84375 
L 3.203125 20.84375 
C 3.59375 15.15625 4.59375 11.46875 6.296875 8.28125 
C 9.90625 1.5 16.90625 -2 26.59375 -2 
C 41.203125 -2 50.59375 6.6875 50.59375 20.046875 
C 50.59375 29.015625 47.09375 34 38.59375 36.890625 
C 45.203125 39.46875 48.5 44.453125 48.5 51.53125 
C 48.5 63.6875 40.40625 71 26.90625 71 
C 12.59375 71 5 63.1875 4.703125 48.140625 
L 13.5 48.140625 
C 13.59375 52.4375 14 54.828125 15.09375 57.015625 
C 17.09375 60.90625 21.5 63.296875 27 63.296875 
C 34.796875 63.296875 39.5 58.703125 39.5 51.234375 
C 39.5 46.25 37.703125 43.265625 33.796875 41.671875 
C 31.40625 40.671875 28.296875 40.265625 22.09375 40.171875 
z
" id="Nimbus_Sans_L_Regular-51"/>
       </defs>
       <use transform="scale(0.996264)" xlink:href="#Nimbus_Sans_L_Regular-51"/>
       <use transform="translate(55.391677 0)scale(0.996264)" xlink:href="#Nimbus_Sans_L_Regular-46"/>
       <use transform="translate(83.086847 0)scale(0.996264)" xlink:href="#Nimbus_Sans_L_Regular-48"/>
      </g>
     </g>
    </g>
    <g id="ytick_8">
     <g id="line2d_33">
      <path clip-path="url(#p0fc78b182d)" d="M 60.435371 53.765432 
L 560.88 53.765432 
" style="fill:none;stroke:#000000;stroke-dasharray:1,3;stroke-dashoffset:0;stroke-opacity:0.5;stroke-width:0.5;"/>
     </g>
     <g id="line2d_34"/>
     <g id="line2d_35"/>
     <g id="text_12">
      <!-- 3.5 -->
      <g transform="translate(37.048401 57.248867)scale(0.14 -0.14)">
       <use transform="scale(0.996264)" xlink:href="#Nimbus_Sans_L_Regular-51"/>
       <use transform="translate(55.391677 0)scale(0.996264)" xlink:href="#Nimbus_Sans_L_Regular-46"/>
       <use transform="translate(83.086847 0)scale(0.996264)" xlink:href="#Nimbus_Sans_L_Regular-53"/>
      </g>
     </g>
    </g>
    <g id="text_13">
     <!-- Aver. Throughput (Million req/s) -->
     <g transform="translate(28.228831 294.825865)rotate(-90)scale(0.18 -0.18)">
      <defs>
       <path d="M 47.40625 22 
L 54.90625 0 
L 65.296875 0 
L 39.703125 73 
L 27.703125 73 
L 1.703125 0 
L 11.59375 0 
L 19.296875 22 
z
M 44.796875 29.796875 
L 21.59375 29.796875 
L 33.59375 63 
z
" id="Nimbus_Sans_L_Regular-65"/>
       <path d="M 28.5 0 
L 48.59375 52 
L 39.203125 52 
L 24.40625 9.828125 
L 10.40625 52 
L 1 52 
L 19.40625 0 
z
" id="Nimbus_Sans_L_Regular-118"/>
       <path d="M 51.296875 23.1875 
C 51.296875 31.21875 50.703125 36.109375 49.203125 40.078125 
C 45.796875 48.796875 37.796875 54 28 54 
C 13.40625 54 4 42.71875 4 25.296875 
C 4 8.515625 13.09375 -2 27.796875 -2 
C 39.796875 -2 48.09375 4.796875 50.203125 15.90625 
L 41.796875 15.90625 
C 39.5 9.1875 34.796875 5.6875 28.09375 5.6875 
C 22.796875 5.6875 18.296875 8.03125 15.5 12.296875 
C 13.5 15.21875 12.796875 18.140625 12.703125 23.1875 
z
M 12.90625 30 
C 13.59375 39.875 19.5 46.296875 27.90625 46.296875 
C 36.09375 46.296875 42.40625 39.359375 42.40625 30.609375 
C 42.40625 30.40625 42.40625 30.203125 42.296875 30 
z
" id="Nimbus_Sans_L_Regular-101"/>
       <path d="M 7 73 
L 7 0 
L 15.296875 0 
L 15.296875 28.953125 
C 15.296875 39.671875 20.90625 46.6875 29.5 46.6875 
C 32.203125 46.6875 34.90625 45.78125 36.90625 44.28125 
C 39.296875 42.578125 40.296875 40.078125 40.296875 36.375 
L 40.296875 0 
L 48.59375 0 
L 48.59375 39.671875 
C 48.59375 48.484375 42.296875 54 32.09375 54 
C 24.703125 54 20.203125 51.6875 15.296875 45.28125 
L 15.296875 73 
z
" id="Nimbus_Sans_L_Regular-104"/>
       <path d="M 41.203125 52.484375 
L 41.203125 44.890625 
C 37 51.09375 31.90625 54 25.203125 54 
C 11.90625 54 2.90625 42.40625 2.90625 25.5 
C 2.90625 16.9375 5.203125 9.96875 9.5 5 
C 13.40625 0.59375 19 -2 24.5 -2 
C 31.09375 -2 35.703125 0.796875 40.40625 7.390625 
L 40.40625 4.6875 
C 40.40625 -2.421875 39.5 -6.890625 37.40625 -9.90625 
C 35.203125 -13.140625 30.90625 -15 25.796875 -15 
C 22 -15 18.59375 -13.96875 16.296875 -12.09375 
C 14.40625 -10.53125 13.59375 -9.078125 13.09375 -5.859375 
L 4.59375 -5.859375 
C 5.5 -16.109375 13.203125 -22 25.5 -22 
C 33.296875 -22 40 -19.5 43.40625 -15.3125 
C 47.40625 -10.328125 48.90625 -3.46875 48.90625 8.875 
L 48.90625 52.484375 
z
M 26.09375 46.296875 
C 35.09375 46.296875 40.40625 38.734375 40.40625 25.6875 
C 40.40625 13.25 35 5.6875 26.203125 5.6875 
C 17.09375 5.6875 11.59375 13.359375 11.59375 25.984375 
C 11.59375 38.53125 17.203125 46.296875 26.09375 46.296875 
z
" id="Nimbus_Sans_L_Regular-103"/>
       <path d="M 5.40625 -22 
L 13.796875 -22 
L 13.796875 5.796875 
C 18.203125 0.390625 23.09375 -2 29.90625 -2 
C 43.40625 -2 52.296875 8.875 52.296875 25.5 
C 52.296875 43 43.703125 54 29.796875 54 
C 22.703125 54 17 50.796875 13.09375 44.59375 
L 13.09375 52.484375 
L 5.40625 52.484375 
z
M 28.40625 46.1875 
C 37.59375 46.1875 43.59375 38.125 43.59375 25.6875 
C 43.59375 13.859375 37.5 5.796875 28.40625 5.796875 
C 19.59375 5.796875 13.796875 13.75 13.796875 25.984375 
C 13.796875 38.234375 19.59375 46.1875 28.40625 46.1875 
z
" id="Nimbus_Sans_L_Regular-112"/>
       <path d="M 23.59375 73 
C 13.59375 59.890625 7.296875 41.6875 7.296875 25.984375 
C 7.296875 10.1875 13.59375 -8.015625 23.59375 -21.109375 
L 29.09375 -21.109375 
C 20.296875 -6.8125 15.40625 9.984375 15.40625 25.984375 
C 15.40625 41.890625 20.296875 58.796875 29.09375 73 
z
" id="Nimbus_Sans_L_Regular-40"/>
       <path d="M 49.5 -22 
L 49.5 52.484375 
L 42.09375 52.484375 
L 42.09375 45.5 
C 38.203125 50.984375 32.296875 54 25.40625 54 
C 11.59375 54 2.59375 42.703125 2.59375 25.390625 
C 2.59375 8.484375 11.203125 -2 25 -2 
C 32.296875 -2 37.296875 0.59375 41.203125 6.296875 
L 41.203125 -22 
z
M 26.59375 46.1875 
C 35.5 46.1875 41.203125 38.234375 41.203125 25.6875 
C 41.203125 13.75 35.40625 5.796875 26.59375 5.796875 
C 17.40625 5.796875 11.296875 13.859375 11.296875 25.984375 
C 11.296875 38.03125 17.40625 46.1875 26.59375 46.1875 
z
" id="Nimbus_Sans_L_Regular-113"/>
       <path d="M 22.90625 73 
L -0.796875 -2 
L 4.703125 -2 
L 28.40625 73 
z
" id="Nimbus_Sans_L_Regular-47"/>
       <path d="M 43.796875 37.9375 
C 43.703125 48.1875 36.90625 54 24.796875 54 
C 12.59375 54 4.703125 47.6875 4.703125 38.03125 
C 4.703125 29.875 8.90625 25.984375 21.296875 23 
L 29.09375 21.109375 
C 34.90625 19.71875 37.203125 17.640625 37.203125 13.859375 
C 37.203125 8.96875 32.296875 5.6875 25 5.6875 
C 20.5 5.6875 16.703125 6.984375 14.59375 9.171875 
C 13.296875 10.671875 12.703125 12.15625 12.203125 15.84375 
L 3.40625 15.84375 
C 3.796875 3.796875 10.59375 -2 24.296875 -2 
C 37.5 -2 45.90625 4.5 45.90625 14.546875 
C 45.90625 22.3125 41.5 26.59375 31.09375 29.078125 
L 23.09375 30.96875 
C 16.296875 32.5625 13.40625 34.75 13.40625 38.421875 
C 13.40625 43.203125 17.703125 46.296875 24.5 46.296875 
C 31.203125 46.296875 34.796875 43.40625 35 37.9375 
z
" id="Nimbus_Sans_L_Regular-115"/>
       <path d="M 9.296875 -21.109375 
C 19.296875 -8.015625 25.59375 10.1875 25.59375 25.890625 
C 25.59375 41.6875 19.296875 59.890625 9.296875 73 
L 3.796875 73 
C 12.59375 58.6875 17.5 41.890625 17.5 25.890625 
C 17.5 9.984375 12.59375 -6.90625 3.796875 -21.109375 
z
" id="Nimbus_Sans_L_Regular-41"/>
      </defs>
      <use transform="scale(0.996264)" xlink:href="#Nimbus_Sans_L_Regular-65"/>
      <use transform="translate(62.465918 0)scale(0.996264)" xlink:href="#Nimbus_Sans_L_Regular-118"/>
      <use transform="translate(109.788488 0)scale(0.996264)" xlink:href="#Nimbus_Sans_L_Regular-101"/>
      <use transform="translate(165.180165 0)scale(0.996264)" xlink:href="#Nimbus_Sans_L_Regular-114"/>
      <use transform="translate(193.374045 0)scale(0.996264)" xlink:href="#Nimbus_Sans_L_Regular-46"/>
      <use transform="translate(255.338866 0)scale(0.996264)" xlink:href="#Nimbus_Sans_L_Regular-84"/>
      <use transform="translate(316.210497 0)scale(0.996264)" xlink:href="#Nimbus_Sans_L_Regular-104"/>
      <use transform="translate(371.602174 0)scale(0.996264)" xlink:href="#Nimbus_Sans_L_Regular-114"/>
      <use transform="translate(404.777403 0)scale(0.996264)" xlink:href="#Nimbus_Sans_L_Regular-111"/>
      <use transform="translate(460.16908 0)scale(0.996264)" xlink:href="#Nimbus_Sans_L_Regular-117"/>
      <use transform="translate(515.560757 0)scale(0.996264)" xlink:href="#Nimbus_Sans_L_Regular-103"/>
      <use transform="translate(570.952434 0)scale(0.996264)" xlink:href="#Nimbus_Sans_L_Regular-104"/>
      <use transform="translate(626.344111 0)scale(0.996264)" xlink:href="#Nimbus_Sans_L_Regular-112"/>
      <use transform="translate(681.735788 0)scale(0.996264)" xlink:href="#Nimbus_Sans_L_Regular-117"/>
      <use transform="translate(737.127465 0)scale(0.996264)" xlink:href="#Nimbus_Sans_L_Regular-116"/>
      <use transform="translate(792.517804 0)scale(0.996264)" xlink:href="#Nimbus_Sans_L_Regular-40"/>
      <use transform="translate(825.693034 0)scale(0.996264)" xlink:href="#Nimbus_Sans_L_Regular-77"/>
      <use transform="translate(908.681464 0)scale(0.996264)" xlink:href="#Nimbus_Sans_L_Regular-105"/>
      <use transform="translate(930.798249 0)scale(0.996264)" xlink:href="#Nimbus_Sans_L_Regular-108"/>
      <use transform="translate(952.915033 0)scale(0.996264)" xlink:href="#Nimbus_Sans_L_Regular-108"/>
      <use transform="translate(975.031817 0)scale(0.996264)" xlink:href="#Nimbus_Sans_L_Regular-105"/>
      <use transform="translate(997.148602 0)scale(0.996264)" xlink:href="#Nimbus_Sans_L_Regular-111"/>
      <use transform="translate(1052.540279 0)scale(0.996264)" xlink:href="#Nimbus_Sans_L_Regular-110"/>
      <use transform="translate(1135.627125 0)scale(0.996264)" xlink:href="#Nimbus_Sans_L_Regular-114"/>
      <use transform="translate(1168.802355 0)scale(0.996264)" xlink:href="#Nimbus_Sans_L_Regular-101"/>
      <use transform="translate(1224.194032 0)scale(0.996264)" xlink:href="#Nimbus_Sans_L_Regular-113"/>
      <use transform="translate(1279.585709 0)scale(0.996264)" xlink:href="#Nimbus_Sans_L_Regular-47"/>
      <use transform="translate(1307.280878 0)scale(0.996264)" xlink:href="#Nimbus_Sans_L_Regular-115"/>
      <use transform="translate(1357.094079 0)scale(0.996264)" xlink:href="#Nimbus_Sans_L_Regular-41"/>
     </g>
    </g>
   </g>
   <g id="patch_7">
    <path clip-path="url(#p0fc78b182d)" d="M 72.946486 324.283454 
L 122.990949 324.283454 
L 122.990949 111.075936 
L 72.946486 111.075936 
z
" style="fill:#fff6f9;stroke:#000000;stroke-linejoin:miter;stroke-width:0.5;"/>
   </g>
   <g id="patch_8">
    <path clip-path="url(#p0fc78b182d)" d="M 122.990949 324.283454 
L 173.035412 324.283454 
L 173.035412 150.92911 
L 122.990949 150.92911 
z
" style="fill:#5697c4;stroke:#000000;stroke-linejoin:miter;stroke-width:0.5;"/>
   </g>
   <g id="patch_9">
    <path clip-path="url(#p0fc78b182d)" d="M 198.057644 324.283454 
L 248.102107 324.283454 
L 248.102107 127.16481 
L 198.057644 127.16481 
z
" style="fill:#fff6f9;stroke:#000000;stroke-linejoin:miter;stroke-width:0.5;"/>
   </g>
   <g id="patch_10">
    <path clip-path="url(#p0fc78b182d)" d="M 248.102107 324.283454 
L 298.14657 324.283454 
L 298.14657 169.635023 
L 248.102107 169.635023 
z
" style="fill:#5697c4;stroke:#000000;stroke-linejoin:miter;stroke-width:0.5;"/>
   </g>
   <g id="patch_11">
    <path clip-path="url(#p0fc78b182d)" d="M 323.168801 324.283454 
L 373.213264 324.283454 
L 373.213264 138.413505 
L 323.168801 138.413505 
z
" style="fill:#fff6f9;stroke:#000000;stroke-linejoin:miter;stroke-width:0.5;"/>
   </g>
   <g id="patch_12">
    <path clip-path="url(#p0fc78b182d)" d="M 373.213264 324.283454 
L 423.257727 324.283454 
L 423.257727 178.855222 
L 373.213264 178.855222 
z
" style="fill:#5697c4;stroke:#000000;stroke-linejoin:miter;stroke-width:0.5;"/>
   </g>
   <g id="patch_13">
    <path clip-path="url(#p0fc78b182d)" d="M 448.279958 324.283454 
L 498.324421 324.283454 
L 498.324421 246.125831 
L 448.279958 246.125831 
z
" style="fill:#fff6f9;stroke:#000000;stroke-linejoin:miter;stroke-width:0.5;"/>
   </g>
   <g id="patch_14">
    <path clip-path="url(#p0fc78b182d)" d="M 498.324421 324.283454 
L 548.368884 324.283454 
L 548.368884 264.917944 
L 498.324421 264.917944 
z
" style="fill:#5697c4;stroke:#000000;stroke-linejoin:miter;stroke-width:0.5;"/>
   </g>
   <g id="LineCollection_1">
    <path clip-path="url(#p0fc78b182d)" d="M 97.968718 113.977251 
L 97.968718 108.17462 
" style="fill:none;stroke:#000000;stroke-width:2;"/>
   </g>
   <g id="LineCollection_2">
    <path clip-path="url(#p0fc78b182d)" d="M 148.013181 158.744157 
L 148.013181 143.114063 
" style="fill:none;stroke:#000000;stroke-width:2;"/>
   </g>
   <g id="LineCollection_3">
    <path clip-path="url(#p0fc78b182d)" d="M 223.079875 129.694234 
L 223.079875 124.635385 
" style="fill:none;stroke:#000000;stroke-width:2;"/>
   </g>
   <g id="LineCollection_4">
    <path clip-path="url(#p0fc78b182d)" d="M 273.124338 171.958286 
L 273.124338 167.31176 
" style="fill:none;stroke:#000000;stroke-width:2;"/>
   </g>
   <g id="LineCollection_5">
    <path clip-path="url(#p0fc78b182d)" d="M 348.191033 142.84974 
L 348.191033 133.97727 
" style="fill:none;stroke:#000000;stroke-width:2;"/>
   </g>
   <g id="LineCollection_6">
    <path clip-path="url(#p0fc78b182d)" d="M 398.235495 183.324031 
L 398.235495 174.386413 
" style="fill:none;stroke:#000000;stroke-width:2;"/>
   </g>
   <g id="LineCollection_7">
    <path clip-path="url(#p0fc78b182d)" d="M 473.30219 249.792377 
L 473.30219 242.459286 
" style="fill:none;stroke:#000000;stroke-width:2;"/>
   </g>
   <g id="LineCollection_8">
    <path clip-path="url(#p0fc78b182d)" d="M 523.346653 267.970897 
L 523.346653 261.864991 
" style="fill:none;stroke:#000000;stroke-width:2;"/>
   </g>
   <g id="line2d_36">
    <defs>
     <path d="M 10 0 
L -10 -0 
" id="mc2f85a2ad5" style="stroke:#000000;"/>
    </defs>
    <g clip-path="url(#p0fc78b182d)">
     <use style="stroke:#000000;" x="97.968718" xlink:href="#mc2f85a2ad5" y="113.977251"/>
    </g>
   </g>
   <g id="line2d_37">
    <g clip-path="url(#p0fc78b182d)">
     <use style="stroke:#000000;" x="97.968718" xlink:href="#mc2f85a2ad5" y="108.17462"/>
    </g>
   </g>
   <g id="line2d_38">
    <g clip-path="url(#p0fc78b182d)">
     <use style="stroke:#000000;" x="148.013181" xlink:href="#mc2f85a2ad5" y="158.744157"/>
    </g>
   </g>
   <g id="line2d_39">
    <g clip-path="url(#p0fc78b182d)">
     <use style="stroke:#000000;" x="148.013181" xlink:href="#mc2f85a2ad5" y="143.114063"/>
    </g>
   </g>
   <g id="line2d_40">
    <g clip-path="url(#p0fc78b182d)">
     <use style="stroke:#000000;" x="223.079875" xlink:href="#mc2f85a2ad5" y="129.694234"/>
    </g>
   </g>
   <g id="line2d_41">
    <g clip-path="url(#p0fc78b182d)">
     <use style="stroke:#000000;" x="223.079875" xlink:href="#mc2f85a2ad5" y="124.635385"/>
    </g>
   </g>
   <g id="line2d_42">
    <g clip-path="url(#p0fc78b182d)">
     <use style="stroke:#000000;" x="273.124338" xlink:href="#mc2f85a2ad5" y="171.958286"/>
    </g>
   </g>
   <g id="line2d_43">
    <g clip-path="url(#p0fc78b182d)">
     <use style="stroke:#000000;" x="273.124338" xlink:href="#mc2f85a2ad5" y="167.31176"/>
    </g>
   </g>
   <g id="line2d_44">
    <g clip-path="url(#p0fc78b182d)">
     <use style="stroke:#000000;" x="348.191033" xlink:href="#mc2f85a2ad5" y="142.84974"/>
    </g>
   </g>
   <g id="line2d_45">
    <g clip-path="url(#p0fc78b182d)">
     <use style="stroke:#000000;" x="348.191033" xlink:href="#mc2f85a2ad5" y="133.97727"/>
    </g>
   </g>
   <g id="line2d_46">
    <g clip-path="url(#p0fc78b182d)">
     <use style="stroke:#000000;" x="398.235495" xlink:href="#mc2f85a2ad5" y="183.324031"/>
    </g>
   </g>
   <g id="line2d_47">
    <g clip-path="url(#p0fc78b182d)">
     <use style="stroke:#000000;" x="398.235495" xlink:href="#mc2f85a2ad5" y="174.386413"/>
    </g>
   </g>
   <g id="line2d_48">
    <g clip-path="url(#p0fc78b182d)">
     <use style="stroke:#000000;" x="473.30219" xlink:href="#mc2f85a2ad5" y="249.792377"/>
    </g>
   </g>
   <g id="line2d_49">
    <g clip-path="url(#p0fc78b182d)">
     <use style="stroke:#000000;" x="473.30219" xlink:href="#mc2f85a2ad5" y="242.459286"/>
    </g>
   </g>
   <g id="line2d_50">
    <g clip-path="url(#p0fc78b182d)">
     <use style="stroke:#000000;" x="523.346653" xlink:href="#mc2f85a2ad5" y="267.970897"/>
    </g>
   </g>
   <g id="line2d_51">
    <g clip-path="url(#p0fc78b182d)">
     <use style="stroke:#000000;" x="523.346653" xlink:href="#mc2f85a2ad5" y="261.864991"/>
    </g>
   </g>
   <g id="legend_1">
    <g id="patch_15">
     <path d="M 69.435371 56.016757 
L 292.383649 56.016757 
L 292.383649 24.12 
L 69.435371 24.12 
z
" style="fill:#ffffff;"/>
    </g>
    <g id="patch_16">
     <path d="M 76.635371 44.997187 
L 112.635371 44.997187 
L 112.635371 32.397187 
L 76.635371 32.397187 
z
" style="fill:#fff6f9;stroke:#000000;stroke-linejoin:miter;stroke-width:0.5;"/>
    </g>
    <g id="text_14">
     <!-- GET -->
     <g transform="translate(127.035371 44.997187)scale(0.18 -0.18)">
      <defs>
       <path d="M 70.90625 39 
L 40.5 39 
L 40.5 30.796875 
L 62.703125 30.796875 
L 62.703125 28.78125 
C 62.703125 15.671875 53.09375 6.1875 39.796875 6.1875 
C 32.40625 6.1875 25.703125 8.921875 21.40625 13.65625 
C 16.59375 18.890625 13.703125 27.671875 13.703125 36.6875 
C 13.703125 54.25 23.90625 65.796875 39.296875 65.796875 
C 50.40625 65.796875 58.40625 60.21875 60.40625 51.015625 
L 69.90625 51.015625 
C 67.296875 65.5 56.09375 74 39.40625 74 
C 30.5 74 23.296875 71.6875 17.59375 66.984375 
C 9.203125 60.125 4.40625 49.0625 4.40625 36.1875 
C 4.40625 13.65625 18.09375 -2 37.796875 -2 
C 47.703125 -2 55.59375 1.6875 62.703125 9.625 
L 65 -0.109375 
L 70.90625 -0.109375 
z
" id="Nimbus_Sans_L_Regular-71"/>
       <path d="M 18.296875 33 
L 58 33 
L 58 41.1875 
L 18.296875 41.1875 
L 18.296875 64.796875 
L 59.5 64.796875 
L 59.5 73 
L 9 73 
L 9 0 
L 61.296875 0 
L 61.296875 8.1875 
L 18.296875 8.1875 
z
" id="Nimbus_Sans_L_Regular-69"/>
      </defs>
      <use transform="scale(0.996264)" xlink:href="#Nimbus_Sans_L_Regular-71"/>
      <use transform="translate(77.50837 0)scale(0.996264)" xlink:href="#Nimbus_Sans_L_Regular-69"/>
      <use transform="translate(143.958401 0)scale(0.996264)" xlink:href="#Nimbus_Sans_L_Regular-84"/>
     </g>
    </g>
    <g id="patch_17">
     <path d="M 199.904755 44.997187 
L 235.904755 44.997187 
L 235.904755 32.397187 
L 199.904755 32.397187 
z
" style="fill:#5697c4;stroke:#000000;stroke-linejoin:miter;stroke-width:0.5;"/>
    </g>
    <g id="text_15">
     <!-- SET -->
     <g transform="translate(250.304755 44.997187)scale(0.18 -0.18)">
      <use transform="scale(0.996264)" xlink:href="#Nimbus_Sans_L_Regular-83"/>
      <use transform="translate(66.450031 0)scale(0.996264)" xlink:href="#Nimbus_Sans_L_Regular-69"/>
      <use transform="translate(132.900062 0)scale(0.996264)" xlink:href="#Nimbus_Sans_L_Regular-84"/>
     </g>
    </g>
   </g>
   <g id="text_16">
    <g id="patch_18">
     <path d="M 105.726991 93.588421 
L 105.726991 59.771802 
L 90.210445 59.771802 
L 90.210445 93.588421 
z
" style="fill:#ffffff;"/>
    </g>
    <!-- 2.76 -->
    <g transform="translate(102.447421 94.128421)rotate(-90)scale(0.18 -0.18)">
     <defs>
      <path d="M 52 71 
L 4.59375 71 
L 4.59375 62.296875 
L 42.90625 62.296875 
C 26 38.15625 19.09375 23.328125 13.796875 0 
L 23.203125 0 
C 27.09375 22.71875 36 42.25 52 63.59375 
z
" id="Nimbus_Sans_L_Regular-55"/>
      <path d="M 49.796875 52.375 
C 48.09375 64.09375 40.5 71 29.703125 71 
C 21.90625 71 14.90625 67.1875 10.703125 60.859375 
C 6.296875 53.890625 4.296875 45.109375 4.296875 32.25 
C 4.296875 20.5 6.09375 13 10.296875 6.78125 
C 14.09375 1.09375 20.296875 -2 28.09375 -2 
C 41.59375 -2 51.296875 7.96875 51.296875 21.6875 
C 51.296875 34.703125 42.296875 44 29.59375 44 
C 22.59375 44 17.09375 41.296875 13.296875 36.09375 
C 13.40625 53.484375 19 63.1875 29.09375 63.1875 
C 35.296875 63.1875 39.59375 59.25 41 52.375 
z
M 28.5 36.1875 
C 37 36.1875 42.296875 30.375 42.296875 20.984375 
C 42.296875 12.203125 36.296875 5.796875 28.203125 5.796875 
C 20 5.796875 13.796875 12.5 13.796875 21.484375 
C 13.796875 30.171875 19.796875 36.1875 28.5 36.1875 
z
" id="Nimbus_Sans_L_Regular-54"/>
     </defs>
     <use transform="scale(0.996264)" xlink:href="#Nimbus_Sans_L_Regular-50"/>
     <use transform="translate(55.391677 0)scale(0.996264)" xlink:href="#Nimbus_Sans_L_Regular-46"/>
     <use transform="translate(83.086847 0)scale(0.996264)" xlink:href="#Nimbus_Sans_L_Regular-55"/>
     <use transform="translate(138.478524 0)scale(0.996264)" xlink:href="#Nimbus_Sans_L_Regular-54"/>
    </g>
   </g>
   <g id="text_17">
    <g id="patch_19">
     <path d="M 155.771454 132.446622 
L 155.771454 98.630003 
L 140.254908 98.630003 
L 140.254908 132.446622 
z
" style="fill:#ffffff;"/>
    </g>
    <!-- 2.24 -->
    <g transform="translate(152.491884 132.986622)rotate(-90)scale(0.18 -0.18)">
     <defs>
      <path d="M 32.703125 17 
L 32.703125 0 
L 41.5 0 
L 41.5 17 
L 52 17 
L 52 24.890625 
L 41.5 24.890625 
L 41.5 70.890625 
L 35 70.890625 
L 2.796875 26.296875 
L 2.796875 17 
z
M 32.703125 24.890625 
L 10.5 24.890625 
L 32.703125 55.890625 
z
" id="Nimbus_Sans_L_Regular-52"/>
     </defs>
     <use transform="scale(0.996264)" xlink:href="#Nimbus_Sans_L_Regular-50"/>
     <use transform="translate(55.391677 0)scale(0.996264)" xlink:href="#Nimbus_Sans_L_Regular-46"/>
     <use transform="translate(83.086847 0)scale(0.996264)" xlink:href="#Nimbus_Sans_L_Regular-50"/>
     <use transform="translate(138.478524 0)scale(0.996264)" xlink:href="#Nimbus_Sans_L_Regular-52"/>
    </g>
   </g>
   <g id="text_18">
    <g id="patch_20">
     <path d="M 230.838148 110.051429 
L 230.838148 76.23481 
L 215.321602 76.23481 
L 215.321602 110.051429 
z
" style="fill:#ffffff;"/>
    </g>
    <!-- 2.55 -->
    <g transform="translate(227.558579 110.591429)rotate(-90)scale(0.18 -0.18)">
     <use transform="scale(0.996264)" xlink:href="#Nimbus_Sans_L_Regular-50"/>
     <use transform="translate(55.391677 0)scale(0.996264)" xlink:href="#Nimbus_Sans_L_Regular-46"/>
     <use transform="translate(83.086847 0)scale(0.996264)" xlink:href="#Nimbus_Sans_L_Regular-53"/>
     <use transform="translate(138.478524 0)scale(0.996264)" xlink:href="#Nimbus_Sans_L_Regular-53"/>
    </g>
   </g>
   <g id="text_19">
    <g id="patch_21">
     <path d="M 280.882611 152.390628 
L 280.882611 128.544508 
L 265.366065 128.544508 
L 265.366065 152.390628 
z
" style="fill:#ffffff;"/>
    </g>
    <!-- 2.0 -->
    <g transform="translate(277.603042 152.930628)rotate(-90)scale(0.18 -0.18)">
     <use transform="scale(0.996264)" xlink:href="#Nimbus_Sans_L_Regular-50"/>
     <use transform="translate(55.391677 0)scale(0.996264)" xlink:href="#Nimbus_Sans_L_Regular-46"/>
     <use transform="translate(83.086847 0)scale(0.996264)" xlink:href="#Nimbus_Sans_L_Regular-48"/>
    </g>
   </g>
   <g id="text_20">
    <g id="patch_22">
     <path d="M 355.949306 119.770991 
L 355.949306 95.924872 
L 340.43276 95.924872 
L 340.43276 119.770991 
z
" style="fill:#ffffff;"/>
    </g>
    <!-- 2.4 -->
    <g transform="translate(352.669736 120.310991)rotate(-90)scale(0.18 -0.18)">
     <use transform="scale(0.996264)" xlink:href="#Nimbus_Sans_L_Regular-50"/>
     <use transform="translate(55.391677 0)scale(0.996264)" xlink:href="#Nimbus_Sans_L_Regular-46"/>
     <use transform="translate(83.086847 0)scale(0.996264)" xlink:href="#Nimbus_Sans_L_Regular-52"/>
    </g>
   </g>
   <g id="text_21">
    <g id="patch_23">
     <path d="M 405.993768 160.685251 
L 405.993768 126.868633 
L 390.477223 126.868633 
L 390.477223 160.685251 
z
" style="fill:#ffffff;"/>
    </g>
    <!-- 1.88 -->
    <g transform="translate(402.714199 161.225251)rotate(-90)scale(0.18 -0.18)">
     <defs>
      <path d="M 39.09375 37.484375 
C 46.40625 41.890625 48.796875 45.46875 48.796875 52.140625 
C 48.796875 63.1875 40.09375 71 27.5 71 
C 15 71 6.203125 63.1875 6.203125 52.140625 
C 6.203125 45.578125 8.59375 41.984375 15.796875 37.484375 
C 7.703125 33.59375 3.703125 27.71875 3.703125 19.9375 
C 3.703125 6.984375 13.5 -2 27.5 -2 
C 41.5 -2 51.296875 6.984375 51.296875 19.84375 
C 51.296875 27.71875 47.296875 33.59375 39.09375 37.484375 
z
M 27.5 63.1875 
C 35 63.1875 39.796875 58.8125 39.796875 51.9375 
C 39.796875 45.375 34.90625 41 27.5 41 
C 20.09375 41 15.203125 45.375 15.203125 52.046875 
C 15.203125 58.8125 20.09375 63.1875 27.5 63.1875 
z
M 27.5 33.59375 
C 36.296875 33.59375 42.296875 28.015625 42.296875 19.75 
C 42.296875 11.375 36.296875 5.796875 27.296875 5.796875 
C 18.703125 5.796875 12.703125 11.46875 12.703125 19.75 
C 12.703125 28.015625 18.703125 33.59375 27.5 33.59375 
z
" id="Nimbus_Sans_L_Regular-56"/>
     </defs>
     <use transform="scale(0.996264)" xlink:href="#Nimbus_Sans_L_Regular-49"/>
     <use transform="translate(55.391677 0)scale(0.996264)" xlink:href="#Nimbus_Sans_L_Regular-46"/>
     <use transform="translate(83.086847 0)scale(0.996264)" xlink:href="#Nimbus_Sans_L_Regular-56"/>
     <use transform="translate(138.478524 0)scale(0.996264)" xlink:href="#Nimbus_Sans_L_Regular-56"/>
    </g>
   </g>
   <g id="text_22">
    <g id="patch_24">
     <path d="M 481.060463 228.843377 
L 481.060463 195.026758 
L 465.543917 195.026758 
L 465.543917 228.843377 
z
" style="fill:#ffffff;"/>
    </g>
    <!-- 1.01 -->
    <g transform="translate(477.780893 229.383377)rotate(-90)scale(0.18 -0.18)">
     <use transform="scale(0.996264)" xlink:href="#Nimbus_Sans_L_Regular-49"/>
     <use transform="translate(55.391677 0)scale(0.996264)" xlink:href="#Nimbus_Sans_L_Regular-46"/>
     <use transform="translate(83.086847 0)scale(0.996264)" xlink:href="#Nimbus_Sans_L_Regular-48"/>
     <use transform="translate(138.478524 0)scale(0.996264)" xlink:href="#Nimbus_Sans_L_Regular-49"/>
    </g>
   </g>
   <g id="text_23">
    <g id="patch_25">
     <path d="M 531.104926 246.94333 
L 531.104926 213.126711 
L 515.58838 213.126711 
L 515.58838 246.94333 
z
" style="fill:#ffffff;"/>
    </g>
    <!-- 0.77 -->
    <g transform="translate(527.825356 247.48333)rotate(-90)scale(0.18 -0.18)">
     <use transform="scale(0.996264)" xlink:href="#Nimbus_Sans_L_Regular-48"/>
     <use transform="translate(55.391677 0)scale(0.996264)" xlink:href="#Nimbus_Sans_L_Regular-46"/>
     <use transform="translate(83.086847 0)scale(0.996264)" xlink:href="#Nimbus_Sans_L_Regular-55"/>
     <use transform="translate(138.478524 0)scale(0.996264)" xlink:href="#Nimbus_Sans_L_Regular-55"/>
    </g>
   </g>
  </g>
 </g>
 <defs>
  <clipPath id="p0fc78b182d">
   <rect height="309.163454" width="500.444629" x="60.435371" y="15.12"/>
  </clipPath>
 </defs>
</svg>
